<svg id="Layer_1" data-name="Layer 1" xmlns="http://www.w3.org/2000/svg" viewBox="0 0 392.84 90.87"><defs><style>.cls-1{fill:#00e0ab;}.cls-2{fill:#009ae5;}.cls-3{fill:#00376a;}.cls-4{fill:#274c6a;}</style></defs><path d="M132.64,131c0-17.53,5-25.51,16.22-25.51s16.23,8,16.23,25.51-5,25.51-16.23,25.51S132.64,148.54,132.64,131Zm24.61-.21c0-16.5-3.71-19.38-8.39-19.38s-8.39,2.88-8.39,19.38c0,16.92,3.72,19.81,8.39,19.81S157.25,147.72,157.25,130.8Z" transform="translate(-3.95 -76.79)"/><path d="M171.55,118.57h7v4.53h.14a8.75,8.75,0,0,1,8.32-5.5c8.46,0,11.9,7.22,11.9,19.94,0,15.54-6.33,19-11.42,19a8.61,8.61,0,0,1-8.39-5.3H179v16.44h-7.43Zm13.34,32c4.26,0,6.19-3.17,6.19-13.41,0-8.39-1.1-13.68-6.26-13.68s-6.26,5.22-6.26,13.13C178.56,145.52,179.66,150.61,184.89,150.61Z" transform="translate(-3.95 -76.79)"/><path d="M211,138v2.14c0,5,.62,11.27,6.19,11.27,5.3,0,5.91-6.05,5.91-8.25h7c0,8.18-4.95,13.34-13,13.34-6,0-13.54-1.79-13.54-18.91,0-9.69,2.06-20,13.68-20,10.31,0,13.06,6.19,13.06,16.5V138Zm11.9-5.08v-2c0-4.67-1.51-8.25-5.71-8.25-4.74,0-6.19,4.68-6.19,9.49v.76Z" transform="translate(-3.95 -76.79)"/><path d="M236.45,118.57h7v4.33h.21a10.62,10.62,0,0,1,9.49-5.3c5.64,0,9.21,2.55,9.21,10v27.92H255V130.19c0-4.82-1.45-6.67-5.16-6.67-3,0-5.91,2.4-5.91,7.22v24.82h-7.43Z" transform="translate(-3.95 -76.79)"/><path class="cls-1" d="M276.05,140.36v1.24c0,6,2.62,9,8.05,9,4.95,0,7.42-3.51,7.42-7.15,0-5.16-2.61-7.43-7-8.74l-5.36-1.85c-7.15-2.75-10.25-6.47-10.25-13.48,0-8.94,6.05-13.89,15.27-13.89,12.58,0,13.88,7.84,13.88,12.93v1.1h-7.83v-1c0-4.47-2-7.08-6.88-7.08-3.37,0-6.6,1.85-6.6,7.08,0,4.19,2.13,6.32,7.36,8.32l5.29,1.92c6.95,2.48,10,6.26,10,13,0,10.45-6.32,14.78-16.23,14.78-12.17,0-14.92-8.11-14.92-15v-1.17Z" transform="translate(-3.95 -76.79)"/><path class="cls-1" d="M313.73,113.07H302v-6.6h31v6.6H321.57v42.49h-7.84Z" transform="translate(-3.95 -76.79)"/><path class="cls-1" d="M337.52,106.47h26.54v6.6H345.35v13.61H363v6.6H345.35V149h19.26v6.6H337.52Z" transform="translate(-3.95 -76.79)"/><path class="cls-1" d="M370.59,106.47h26.19v6.6H378.42v13.61h17.26v6.6H378.42v22.28h-7.83Z" transform="translate(-3.95 -76.79)"/><polygon class="cls-2" points="135.37 15.52 135.37 7.83 131.49 7.83 131.49 19.34 143 19.34 143 15.52 135.37 15.52"/><polygon class="cls-3" points="150.69 0.14 131.49 0.14 131.49 5.86 135.3 5.86 135.3 3.95 146.88 3.95 146.88 15.52 144.97 15.52 144.97 19.34 150.69 19.34 150.69 0.14"/><path class="cls-3" d="M159.74,77.13h5.86V91.22H174v4.83H159.74V77.13Z" transform="translate(-3.95 -76.79)"/><path class="cls-3" d="M176.49,77.13h14.7V82h-8.85v2.38h7.56v4.5h-7.56v7.21h-5.85Z" transform="translate(-3.95 -76.79)"/><path class="cls-2" d="M206.24,96.19H195.62V77.06h10.62v1.23H197V85.5h8.72v1.23H197V94.9h9.26Z" transform="translate(-3.95 -76.79)"/><path class="cls-2" d="M224.76,96.19H223.4l-11.51-17h-.14c.14,2,.14,3.54.14,4.56V96.19h-1.22V77.06H212l11.5,17h.07c-.07-1.56-.14-3.06-.14-4.49V77.06h1.3V96.19Z" transform="translate(-3.95 -76.79)"/><path class="cls-2" d="M240.82,96.19H230.2V77.06h10.62v1.23h-9.25V85.5h8.71v1.23h-8.71V94.9h9.25Z" transform="translate(-3.95 -76.79)"/><path class="cls-2" d="M246.61,87.88v8.31h-1.36V77.06h4.63c2.38,0,4.15.41,5.31,1.29a4.61,4.61,0,0,1,1.7,4,5.19,5.19,0,0,1-1,3.27,5.72,5.72,0,0,1-3.13,1.91L258,96.19h-1.63l-5-8.31Zm0-1.15h3.68a5.77,5.77,0,0,0,3.81-1.09,3.91,3.91,0,0,0,1.36-3.2,3.8,3.8,0,0,0-1.29-3.2,7.23,7.23,0,0,0-4.36-1h-3.2Z" transform="translate(-3.95 -76.79)"/><path class="cls-2" d="M268.81,86.39h7V94.9a16.2,16.2,0,0,1-6.2,1.15c-3,0-5.31-.81-6.87-2.51a10,10,0,0,1-2.39-7.08,10.77,10.77,0,0,1,1.16-5A8.24,8.24,0,0,1,264.93,78a10.54,10.54,0,0,1,5.1-1.22A13.38,13.38,0,0,1,275.61,78l-.54,1.15A12.14,12.14,0,0,0,270,78,7.57,7.57,0,0,0,264,80.26a8.77,8.77,0,0,0-2.18,6.13c0,2.79.68,4.9,2.11,6.33s3.41,2.11,6.13,2.11a11.89,11.89,0,0,0,4.42-.75v-6.6h-5.65V86.39Z" transform="translate(-3.95 -76.79)"/><path class="cls-2" d="M285,87.48l5.65-10.42h1.43l-6.4,11.64v7.35h-1.36V88.84l-6.47-11.78h1.57Z" transform="translate(-3.95 -76.79)"/><circle class="cls-1" cx="6.76" cy="55.77" r="2.25"/><path class="cls-1" d="M25.4,148.4a2.26,2.26,0,1,0,2.25,2.26A2.26,2.26,0,0,0,25.4,148.4Z" transform="translate(-3.95 -76.79)"/><path class="cls-1" d="M88.76,89.18A2.26,2.26,0,1,0,91,91.44,2.26,2.26,0,0,0,88.76,89.18Z" transform="translate(-3.95 -76.79)"/><circle class="cls-1" cx="113.5" cy="10.53" r="2.25"/><path class="cls-1" d="M57.2,93.9a27.21,27.21,0,1,0,27.21,27.21A27.25,27.25,0,0,0,57.2,93.9Zm23.64,27.21a23.66,23.66,0,1,1-2.35-10.26,23.41,23.41,0,0,1,1.84,5.38A23.76,23.76,0,0,1,80.84,121.11Z" transform="translate(-3.95 -76.79)"/><path class="cls-4" d="M117.44,80.56a6.77,6.77,0,0,0-6.67,5.66L94.64,88.11a6.76,6.76,0,1,0-11.33,7.34L80.07,100a30.94,30.94,0,0,0-49.28,36.65,1.91,1.91,0,0,0,.24.41l.07.12-4.25,6.84a6.93,6.93,0,0,0-1.45-.16,6.81,6.81,0,0,0-2.27.39l-6.65-8.19a6.75,6.75,0,1,0-3.5,2.84l6.65,8.2a6.69,6.69,0,0,0-1,3.53,6.76,6.76,0,1,0,12-4.23l3.25-5.22A30.91,30.91,0,0,0,75,147.1l14,15.72a6,6,0,0,0,.57.56,7,7,0,0,0,4.71,1.8h.41A7.09,7.09,0,0,0,99,152.81l-15.69-14a30.93,30.93,0,0,0,1.84-31.63,2.82,2.82,0,0,0-.21-.38A31.3,31.3,0,0,0,83,103.64L87,98a6.49,6.49,0,0,0,1.72.22,6.78,6.78,0,0,0,6.67-5.64l16.13-1.9a6.76,6.76,0,1,0,5.88-10.1ZM10.71,134.81A2.26,2.26,0,1,1,13,132.56,2.25,2.25,0,0,1,10.71,134.81Zm14.69,18.1a2.26,2.26,0,1,1,2.25-2.25A2.26,2.26,0,0,1,25.4,152.91ZM96,156.17a2.56,2.56,0,0,1,.2,3.64,2.58,2.58,0,0,1-3.64.21,2,2,0,0,1-.2-.21l-13.84-15.5c.69-.63,1.36-1.29,2-2ZM84.41,121.11A27.22,27.22,0,1,1,57.2,93.9,27.24,27.24,0,0,1,84.41,121.11Zm4.35-27.42A2.26,2.26,0,1,1,91,91.44,2.26,2.26,0,0,1,88.76,93.69Zm28.68-4.11a2.26,2.26,0,1,1,2.26-2.26A2.26,2.26,0,0,1,117.44,89.58Z" transform="translate(-3.95 -76.79)"/><polygon class="cls-4" points="52.97 40.71 53.05 40.49 56.92 29.61 48.57 29.61 47.78 31.77 45.58 37.84 44.98 39.48 42.79 45.53 42.32 46.81 52.97 46.81 49.41 64.01 57.69 50.95 62.61 43.18 64.18 40.71 53.39 40.71 52.97 40.71"/></svg>