<svg class="main-svg" xmlns="http://www.w3.org/2000/svg" xmlns:xlink="http://www.w3.org/1999/xlink" width="900" height="400" style="" viewBox="0 0 900 400"><rect x="0" y="0" width="900" height="400" style="fill: rgb(255, 255, 255); fill-opacity: 1;"/><defs id="defs-a55cd1"><g class="clips"><clipPath id="clipa55cd1xyplot" class="plotclip"><rect width="598" height="220"/></clipPath><clipPath class="axesclip" id="clipa55cd1x"><rect x="80" y="0" width="598" height="400"/></clipPath><clipPath class="axesclip" id="clipa55cd1y"><rect x="0" y="100" width="900" height="220"/></clipPath><clipPath class="axesclip" id="clipa55cd1xy"><rect x="80" y="100" width="598" height="220"/></clipPath></g><g class="gradients"/><g class="patterns"/></defs><g class="bglayer"/><g class="layer-below"><g class="imagelayer"/><g class="shapelayer"/></g><g class="cartesianlayer"><g class="subplot xy"><g class="layer-subplot"><g class="shapelayer"/><g class="imagelayer"/></g><g class="minor-gridlayer"><g class="x"/><g class="y"/></g><g class="gridlayer"><g class="x"><path class="xgrid crisp" transform="translate(199.85,0)" d="M0,100v220" style="stroke: rgb(235, 240, 248); stroke-opacity: 1; stroke-width: 1px;"/><path class="xgrid crisp" transform="translate(319.7,0)" d="M0,100v220" style="stroke: rgb(235, 240, 248); stroke-opacity: 1; stroke-width: 1px;"/><path class="xgrid crisp" transform="translate(439.55,0)" d="M0,100v220" style="stroke: rgb(235, 240, 248); stroke-opacity: 1; stroke-width: 1px;"/><path class="xgrid crisp" transform="translate(559.4,0)" d="M0,100v220" style="stroke: rgb(235, 240, 248); stroke-opacity: 1; stroke-width: 1px;"/></g><g class="y"><path class="ygrid crisp" transform="translate(0,287.07)" d="M80,0h598" style="stroke: rgb(235, 240, 248); stroke-opacity: 1; stroke-width: 1px;"/><path class="ygrid crisp" transform="translate(0,236.91)" d="M80,0h598" style="stroke: rgb(235, 240, 248); stroke-opacity: 1; stroke-width: 1px;"/><path class="ygrid crisp" transform="translate(0,136.61)" d="M80,0h598" style="stroke: rgb(235, 240, 248); stroke-opacity: 1; stroke-width: 1px;"/></g></g><g class="zerolinelayer"><path class="yzl zl crisp" transform="translate(0,186.76)" d="M80,0h598" style="stroke: rgb(235, 240, 248); stroke-opacity: 1; stroke-width: 2px;"/></g><g class="layer-between"><g class="shapelayer"/><g class="imagelayer"/></g><path class="xlines-below"/><path class="ylines-below"/><g class="overlines-below"/><g class="xaxislayer-below"/><g class="yaxislayer-below"/><g class="overaxes-below"/><g class="overplot"><g class="xy" transform="translate(80,100)" clip-path="url(#clipa55cd1xyplot)"><g class="scatterlayer mlayer"><g class="trace scatter trace18e748" style="stroke-miterlimit: 2; opacity: 1;"><g class="fills"><g><path class="js-fill" d="M0,154.79L3.75,156.38L4.99,156.7L7.49,158.29L8.74,158.83L13.73,160.04L14.98,158.97L17.48,158.06L18.73,157.29L21.22,154.15L22.47,153.47L23.72,153.01L24.97,146.25L27.47,150.7L28.71,153.13L34.96,170.19L36.2,171.96L42.45,184.2L43.7,189.37L46.19,190.5L47.44,192.26L48.69,194.75L49.94,192.71L53.68,184.44L54.93,184.85L56.18,183.54L57.43,183.41L58.68,183.27L59.92,182.09L64.92,193.88L66.17,190.45L69.91,180.77L71.16,177.14L73.66,168.33L74.91,161.41L77.4,153.75L78.65,151.28L81.15,148.9L82.4,148.58L84.89,146.89L86.14,144.92L87.39,142.68L88.64,138.29L91.14,134.14L92.38,132.63L93.63,129.46L94.88,130.97L98.63,132.49L99.87,134.07L102.37,136.12L103.62,137.5L104.87,143.41L106.12,144.86L108.61,146.84L109.86,149.13L113.61,153.96L114.86,155.35L119.85,157.99L121.1,158.61L123.59,159.55L124.84,160.05L129.84,160.56L131.09,160.46L133.58,160.79L134.83,159.23L137.33,157.82L138.58,157.05L139.82,154.66L141.07,153.97L143.57,153.42L144.82,148.58L147.32,150.11L148.56,151.51L151.06,157.49L152.31,161.27L158.55,178.06L159.8,180.97L163.54,190.99L164.79,195.44L166.04,196.03L167.29,198.53L171.04,197.5L172.28,198.59L173.53,198.76L174.78,200.41L176.03,202.77L177.28,203.01L179.77,199.72L181.02,199.42L183.52,193.83L184.77,190.09L186.02,190.6L187.27,192.67L189.76,193.58L191.01,188.39L198.5,163.81L199.75,161.99L205.99,150.6L207.24,145.81L210.99,135.28L212.23,132.91L213.48,129.71L214.73,130.34L215.98,129.88L217.23,130.44L220.97,133.05L222.22,134.42L223.47,135.53L224.72,141.58L233.46,150.21L234.71,151.05L238.45,153.25L239.7,153.4L245.94,156.55L247.19,156.84L253.43,158.39L254.68,158.03L257.18,156.34L258.43,155.7L259.67,153.23L260.92,152.71L263.42,151.39L264.67,145.16L268.41,150.93L269.66,153.33L280.9,184.77L282.15,189.77L283.39,191.21L284.64,194.38L288.39,198.5L289.64,197.08L290.89,196.71L292.13,197.77L294.63,204.19L295.88,205.11L297.13,205.66L298.38,208.16L299.62,209L300.87,205.41L303.37,195.77L304.62,189.05L307.11,191.75L308.36,192.32L309.61,191.7L310.86,188.21L318.35,164.39L319.6,161.79L329.59,133.6L330.84,131.46L333.33,126.69L334.58,128.2L337.08,128.02L338.33,128.77L342.07,132.39L343.32,133.53L344.57,139.62L345.82,141.53L348.31,144.14L349.56,145.39L355.8,150.9L357.05,151.55L359.55,151.95L360.8,152.45L367.04,154.19L368.29,154.21L369.54,153.72L370.78,154.15L373.28,154.64L374.53,154.36L378.28,152.86L379.52,151.15L383.27,150.42L384.52,144.55L388.26,150.8L389.51,154.33L400.75,183.6L402,185.25L403.24,187.89L404.49,188.65L406.99,193.28L408.24,192.98L410.73,191.89L411.98,192.41L413.23,193.32L414.48,196.29L416.98,199.43L418.23,200.36L419.47,201.83L420.72,201.27L425.72,194.58L426.96,193.51L428.21,192.32L429.46,189.45L439.45,153.65L440.7,151.75L443.19,148.24L444.44,144.76L448.19,137.66L449.44,134.69L453.18,129.27L454.43,130.06L455.68,129.84L456.93,130.67L458.18,131.26L459.42,132.91L463.17,136.35L464.42,142.06L469.41,148.3L470.66,149.51L476.9,156.4L478.15,157.11L488.14,161.26L489.39,161.42L493.13,162.74L494.38,162.31L496.88,161.54L498.13,161.02L500.62,159.44L501.87,158.52L503.12,158.35L504.37,153.87L508.11,156.17L509.36,157.42L519.35,180.4L520.6,181.06L521.85,183.38L523.09,182.85L524.34,184.13L525.59,183.32L526.84,184.99L528.09,183.29L529.34,180.94L530.58,182.56L533.08,186.03L534.33,192.13L536.83,199.48L538.08,203.2L539.32,206.16L540.57,204.73L543.07,203.79L544.32,202.03L545.57,199.33L546.81,198.65L550.56,190.11L551.81,188.53L554.3,180.41L555.55,174.27L560.55,157.25L561.8,155.95L566.79,146.58L568.04,142.23L571.78,134.74L573.03,132.44L576.78,131.51L578.03,132.51L581.77,135.56L583.02,136.81L584.27,142.36L585.52,143.15L590.51,148.18L591.76,149.49L595.5,153.69L596.75,154.42L598,155.28L598,49.29L594.25,47.75L593.01,45.85L584.27,32.94L583.02,34.54L576.78,27.03L575.53,26.77L574.28,27.96L573.03,23.65L571.78,21.69L570.53,24.22L569.29,25.54L568.04,29.06L565.54,36.93L564.29,38.94L561.8,43.95L560.55,44.73L559.3,46.93L558.05,55.29L553.06,84.15L551.81,87.29L549.31,88.49L548.06,93.13L544.32,102.3L543.07,101.67L540.57,98.61L539.32,98.39L533.08,53.78L531.83,52.26L529.34,46.79L528.09,48.53L526.84,50.06L525.59,48.13L523.09,52.34L521.85,56.96L520.6,58.21L519.35,62.34L515.6,48.57L514.35,44.71L509.36,36.92L508.11,37.88L504.37,42.12L503.12,45.18L500.62,47.81L499.37,49.95L495.63,53.55L494.38,53.96L493.13,54.68L491.88,54.47L485.64,53.72L484.39,53.33L480.65,51.38L479.4,50.81L478.15,48.14L476.9,47.57L471.91,42.39L470.66,40.72L466.91,35.38L465.67,34.13L464.42,32.68L463.17,33.25L460.67,30.13L459.42,28.77L458.18,25.95L456.93,25.37L455.68,24.15L454.43,24.49L451.93,16.82L450.68,19.19L446.94,23.93L445.69,24.18L444.44,24.97L443.19,28L439.45,30.1L438.2,33.78L435.7,47L434.46,55.08L431.96,64.1L430.71,67.25L429.46,70.25L428.21,69.94L426.96,68.5L425.72,68.37L424.47,67.53L423.22,70.74L419.47,79.27L418.23,76.7L414.48,70.08L413.23,71.34L409.49,78.47L408.24,77.61L406.99,77.07L405.74,75.14L403.24,72.84L402,71.61L399.5,70.28L398.25,65.05L390.76,42.7L389.51,40.29L387.01,37.29L385.77,37.34L384.52,35.17L383.27,41.08L380.77,43.59L379.52,45.44L377.03,48.26L375.78,49.13L373.28,50.29L372.03,50.15L369.54,49.37L368.29,49.53L363.29,48.97L362.05,48.42L359.55,47.36L358.3,46.2L354.56,45.98L353.31,44.03L349.56,39.08L348.31,36.45L344.57,26.44L343.32,25.71L339.57,21.05L338.33,18.1L337.08,17.25L335.83,17.32L334.58,18.4L333.33,12.78L332.08,11L330.84,14.28L325.84,28.14L324.59,29.77L320.85,48.51L319.6,53.91L317.1,56.74L315.85,59.63L314.61,64.04L313.36,65.24L312.11,67.35L310.86,67.87L309.61,68.26L308.36,64.79L304.62,55.05L303.37,66.14L299.62,94.26L298.38,94.71L297.13,93.63L295.88,94.33L294.63,95.39L293.38,94.01L290.89,88.13L289.64,87.78L288.39,89.81L287.14,87.83L284.64,89.27L283.39,85.18L282.15,83.62L280.9,78.67L277.15,62.99L275.9,56.33L272.16,40.5L270.91,36.65L269.66,33.29L268.41,32.54L264.67,30.3L263.42,36.88L259.67,41.85L258.43,45.28L253.43,49.5L252.18,49.26L248.44,48L247.19,48.05L243.44,47.64L242.2,46.85L238.45,45.25L237.2,44.6L232.21,39.66L230.96,37.56L225.97,31.21L224.72,29.34L223.47,28.78L222.22,27.1L218.48,21.84L217.23,20.94L215.98,20.25L214.73,20.77L213.48,18.58L212.23,18.24L209.74,24.07L208.49,29.19L204.74,45.67L203.49,48.61L199.75,59.17L198.5,59.22L197.25,61.59L196,68.7L194.76,70.09L193.51,73.1L192.26,72.21L191.01,70.07L189.76,70.81L188.51,66.22L184.77,54.57L183.52,59.58L182.27,63.67L181.02,70.38L178.53,77.84L177.28,82.39L176.03,85.65L174.78,86.32L173.53,85.88L172.28,86.54L171.04,84.66L169.79,84.64L167.29,82.67L166.04,78.44L164.79,78.23L163.54,72.9L157.3,57.03L156.05,51.64L149.81,31.61L148.56,31.3L144.82,34.3L143.57,38.31L139.82,43.52L138.58,46.47L134.83,49.22L133.58,50.93L131.09,50.51L129.84,50.34L128.59,50.62L127.34,50.02L124.84,48.71L123.59,48.3L121.1,47.43L119.85,47.02L118.6,48.11L117.35,47.19L111.11,39.39L109.86,37.43L107.37,32.17L106.12,30.98L104.87,29.43L103.62,29.79L96.13,21.15L94.88,21.13L93.63,18.07L92.38,17.49L88.64,22.07L87.39,25.91L84.89,26.32L83.65,24.53L79.9,18.72L78.65,18.63L76.15,22.3L74.91,26.18L72.41,39.46L71.16,43.65L64.92,61.59L63.67,57.54L59.92,42.38L58.68,43.48L56.18,44.72L54.93,48.19L53.68,51.48L52.43,57.38L48.69,69.23L47.44,68.09L46.19,68.05L44.94,69.79L43.7,68.44L42.45,63.12L39.95,58.82L38.7,58.48L36.2,55.7L34.96,56.1L32.46,48.22L31.21,45.5L28.71,39.5L27.47,38.51L26.22,37.45L24.97,34.96L23.72,42.54L22.47,44.05L18.73,50.8L17.48,51.8L13.73,54.89L12.48,55.04L7.49,53.83L6.24,53.24L3.75,52.3L2.5,52L0,51.92Z" style="fill: rgb(195, 218, 238); fill-opacity: 0.5; stroke-width: 0;"/></g></g><g class="errorbars"/><g class="lines"><path class="js-line" d="M0,154.79L3.75,156.38L4.99,156.7L7.49,158.29L8.74,158.83L13.73,160.04L14.98,158.97L17.48,158.06L18.73,157.29L21.22,154.15L22.47,153.47L23.72,153.01L24.97,146.25L27.47,150.7L28.71,153.13L34.96,170.19L36.2,171.96L42.45,184.2L43.7,189.37L46.19,190.5L47.44,192.26L48.69,194.75L49.94,192.71L53.68,184.44L54.93,184.85L56.18,183.54L57.43,183.41L58.68,183.27L59.92,182.09L64.92,193.88L66.17,190.45L69.91,180.77L71.16,177.14L73.66,168.33L74.91,161.41L77.4,153.75L78.65,151.28L81.15,148.9L82.4,148.58L84.89,146.89L86.14,144.92L87.39,142.68L88.64,138.29L91.14,134.14L92.38,132.63L93.63,129.46L94.88,130.97L98.63,132.49L99.87,134.07L102.37,136.12L103.62,137.5L104.87,143.41L106.12,144.86L108.61,146.84L109.86,149.13L113.61,153.96L114.86,155.35L119.85,157.99L121.1,158.61L123.59,159.55L124.84,160.05L129.84,160.56L131.09,160.46L133.58,160.79L134.83,159.23L137.33,157.82L138.58,157.05L139.82,154.66L141.07,153.97L143.57,153.42L144.82,148.58L147.32,150.11L148.56,151.51L151.06,157.49L152.31,161.27L158.55,178.06L159.8,180.97L163.54,190.99L164.79,195.44L166.04,196.03L167.29,198.53L171.04,197.5L172.28,198.59L173.53,198.76L174.78,200.41L176.03,202.77L177.28,203.01L179.77,199.72L181.02,199.42L183.52,193.83L184.77,190.09L186.02,190.6L187.27,192.67L189.76,193.58L191.01,188.39L198.5,163.81L199.75,161.99L205.99,150.6L207.24,145.81L210.99,135.28L212.23,132.91L213.48,129.71L214.73,130.34L215.98,129.88L217.23,130.44L220.97,133.05L222.22,134.42L223.47,135.53L224.72,141.58L233.46,150.21L234.71,151.05L238.45,153.25L239.7,153.4L245.94,156.55L247.19,156.84L253.43,158.39L254.68,158.03L257.18,156.34L258.43,155.7L259.67,153.23L260.92,152.71L263.42,151.39L264.67,145.16L268.41,150.93L269.66,153.33L280.9,184.77L282.15,189.77L283.39,191.21L284.64,194.38L288.39,198.5L289.64,197.08L290.89,196.71L292.13,197.77L294.63,204.19L295.88,205.11L297.13,205.66L298.38,208.16L299.62,209L300.87,205.41L303.37,195.77L304.62,189.05L307.11,191.75L308.36,192.32L309.61,191.7L310.86,188.21L318.35,164.39L319.6,161.79L329.59,133.6L330.84,131.46L333.33,126.69L334.58,128.2L337.08,128.02L338.33,128.77L342.07,132.39L343.32,133.53L344.57,139.62L345.82,141.53L348.31,144.14L349.56,145.39L355.8,150.9L357.05,151.55L359.55,151.95L360.8,152.45L367.04,154.19L368.29,154.21L369.54,153.72L370.78,154.15L373.28,154.64L374.53,154.36L378.28,152.86L379.52,151.15L383.27,150.42L384.52,144.55L388.26,150.8L389.51,154.33L400.75,183.6L402,185.25L403.24,187.89L404.49,188.65L406.99,193.28L408.24,192.98L410.73,191.89L411.98,192.41L413.23,193.32L414.48,196.29L416.98,199.43L418.23,200.36L419.47,201.83L420.72,201.27L425.72,194.58L426.96,193.51L428.21,192.32L429.46,189.45L439.45,153.65L440.7,151.75L443.19,148.24L444.44,144.76L448.19,137.66L449.44,134.69L453.18,129.27L454.43,130.06L455.68,129.84L456.93,130.67L458.18,131.26L459.42,132.91L463.17,136.35L464.42,142.06L469.41,148.3L470.66,149.51L476.9,156.4L478.15,157.11L488.14,161.26L489.39,161.42L493.13,162.74L494.38,162.31L496.88,161.54L498.13,161.02L500.62,159.44L501.87,158.52L503.12,158.35L504.37,153.87L508.11,156.17L509.36,157.42L519.35,180.4L520.6,181.06L521.85,183.38L523.09,182.85L524.34,184.13L525.59,183.32L526.84,184.99L528.09,183.29L529.34,180.94L530.58,182.56L533.08,186.03L534.33,192.13L536.83,199.48L538.08,203.2L539.32,206.16L540.57,204.73L543.07,203.79L544.32,202.03L545.57,199.33L546.81,198.65L550.56,190.11L551.81,188.53L554.3,180.41L555.55,174.27L560.55,157.25L561.8,155.95L566.79,146.58L568.04,142.23L571.78,134.74L573.03,132.44L576.78,131.51L578.03,132.51L581.77,135.56L583.02,136.81L584.27,142.36L585.52,143.15L590.51,148.18L591.76,149.49L595.5,153.69L596.75,154.42L598,155.28L598,49.29L594.25,47.75L593.01,45.85L584.27,32.94L583.02,34.54L576.78,27.03L575.53,26.77L574.28,27.96L573.03,23.65L571.78,21.69L570.53,24.22L569.29,25.54L568.04,29.06L565.54,36.93L564.29,38.94L561.8,43.95L560.55,44.73L559.3,46.93L558.05,55.29L553.06,84.15L551.81,87.29L549.31,88.49L548.06,93.13L544.32,102.3L543.07,101.67L540.57,98.61L539.32,98.39L533.08,53.78L531.83,52.26L529.34,46.79L528.09,48.53L526.84,50.06L525.59,48.13L523.09,52.34L521.85,56.96L520.6,58.21L519.35,62.34L515.6,48.57L514.35,44.71L509.36,36.92L508.11,37.88L504.37,42.12L503.12,45.18L500.62,47.81L499.37,49.95L495.63,53.55L494.38,53.96L493.13,54.68L491.88,54.47L485.64,53.72L484.39,53.33L480.65,51.38L479.4,50.81L478.15,48.14L476.9,47.57L471.91,42.39L470.66,40.72L466.91,35.38L465.67,34.13L464.42,32.68L463.17,33.25L460.67,30.13L459.42,28.77L458.18,25.95L456.93,25.37L455.68,24.15L454.43,24.49L451.93,16.82L450.68,19.19L446.94,23.93L445.69,24.18L444.44,24.97L443.19,28L439.45,30.1L438.2,33.78L435.7,47L434.46,55.08L431.96,64.1L430.71,67.25L429.46,70.25L428.21,69.94L426.96,68.5L425.72,68.37L424.47,67.53L423.22,70.74L419.47,79.27L418.23,76.7L414.48,70.08L413.23,71.34L409.49,78.47L408.24,77.61L406.99,77.07L405.74,75.14L403.24,72.84L402,71.61L399.5,70.28L398.25,65.05L390.76,42.7L389.51,40.29L387.01,37.29L385.77,37.34L384.52,35.17L383.27,41.08L380.77,43.59L379.52,45.44L377.03,48.26L375.78,49.13L373.28,50.29L372.03,50.15L369.54,49.37L368.29,49.53L363.29,48.97L362.05,48.42L359.55,47.36L358.3,46.2L354.56,45.98L353.31,44.03L349.56,39.08L348.31,36.45L344.57,26.44L343.32,25.71L339.57,21.05L338.33,18.1L337.08,17.25L335.83,17.32L334.58,18.4L333.33,12.78L332.08,11L330.84,14.28L325.84,28.14L324.59,29.77L320.85,48.51L319.6,53.91L317.1,56.74L315.85,59.63L314.61,64.04L313.36,65.24L312.11,67.35L310.86,67.87L309.61,68.26L308.36,64.79L304.62,55.05L303.37,66.14L299.62,94.26L298.38,94.71L297.13,93.63L295.88,94.33L294.63,95.39L293.38,94.01L290.89,88.13L289.64,87.78L288.39,89.81L287.14,87.83L284.64,89.27L283.39,85.18L282.15,83.62L280.9,78.67L277.15,62.99L275.9,56.33L272.16,40.5L270.91,36.65L269.66,33.29L268.41,32.54L264.67,30.3L263.42,36.88L259.67,41.85L258.43,45.28L253.43,49.5L252.18,49.26L248.44,48L247.19,48.05L243.44,47.64L242.2,46.85L238.45,45.25L237.2,44.6L232.21,39.66L230.96,37.56L225.97,31.21L224.72,29.34L223.47,28.78L222.22,27.1L218.48,21.84L217.23,20.94L215.98,20.25L214.73,20.77L213.48,18.58L212.23,18.24L209.74,24.07L208.49,29.19L204.74,45.67L203.49,48.61L199.75,59.17L198.5,59.22L197.25,61.59L196,68.7L194.76,70.09L193.51,73.1L192.26,72.21L191.01,70.07L189.76,70.81L188.51,66.22L184.77,54.57L183.52,59.58L182.27,63.67L181.02,70.38L178.53,77.84L177.28,82.39L176.03,85.65L174.78,86.32L173.53,85.88L172.28,86.54L171.04,84.66L169.79,84.64L167.29,82.67L166.04,78.44L164.79,78.23L163.54,72.9L157.3,57.03L156.05,51.64L149.81,31.61L148.56,31.3L144.82,34.3L143.57,38.31L139.82,43.52L138.58,46.47L134.83,49.22L133.58,50.93L131.09,50.51L129.84,50.34L128.59,50.62L127.34,50.02L124.84,48.71L123.59,48.3L121.1,47.43L119.85,47.02L118.6,48.11L117.35,47.19L111.11,39.39L109.86,37.43L107.37,32.17L106.12,30.98L104.87,29.43L103.62,29.79L96.13,21.15L94.88,21.13L93.63,18.07L92.38,17.49L88.64,22.07L87.39,25.91L84.89,26.32L83.65,24.53L79.9,18.72L78.65,18.63L76.15,22.3L74.91,26.18L72.41,39.46L71.16,43.65L64.92,61.59L63.67,57.54L59.92,42.38L58.68,43.48L56.18,44.72L54.93,48.19L53.68,51.48L52.43,57.38L48.69,69.23L47.44,68.09L46.19,68.05L44.94,69.79L43.7,68.44L42.45,63.12L39.95,58.82L38.7,58.48L36.2,55.7L34.96,56.1L32.46,48.22L31.21,45.5L28.71,39.5L27.47,38.51L26.22,37.45L24.97,34.96L23.72,42.54L22.47,44.05L18.73,50.8L17.48,51.8L13.73,54.89L12.48,55.04L7.49,53.83L6.24,53.24L3.75,52.3L2.5,52L0,51.92" style="vector-effect: none; fill: none; stroke: rgb(176, 209, 231); stroke-opacity: 0.8; stroke-width: 1.5px; opacity: 1;"/></g><g class="points"/><g class="text"/></g><g class="trace scatter trace98a975" style="stroke-miterlimit: 2; opacity: 1;"><g class="fills"/><g class="errorbars"/><g class="lines"><path class="js-line" d="M0,154.79L3.75,156.38L4.99,156.7L7.49,158.29L8.74,158.83L13.73,160.04L14.98,158.97L17.48,158.06L18.73,157.29L21.22,154.15L22.47,153.47L23.72,153.01L24.97,146.25L27.47,150.7L28.71,153.13L34.96,170.19L36.2,171.96L42.45,184.2L43.7,189.37L46.19,190.5L47.44,192.26L48.69,194.75L49.94,192.71L53.68,184.44L54.93,184.85L56.18,183.54L57.43,183.41L58.68,183.27L59.92,182.09L64.92,193.88L66.17,190.45L69.91,180.77L71.16,177.14L73.66,168.33L74.91,161.41L77.4,153.75L78.65,151.28L81.15,148.9L82.4,148.58L84.89,146.89L86.14,144.92L87.39,142.68L88.64,138.29L91.14,134.14L92.38,132.63L93.63,129.46L94.88,130.97L98.63,132.49L99.87,134.07L102.37,136.12L103.62,137.5L104.87,143.41L106.12,144.86L108.61,146.84L109.86,149.13L113.61,153.96L114.86,155.35L119.85,157.99L121.1,158.61L123.59,159.55L124.84,160.05L129.84,160.56L131.09,160.46L133.58,160.79L134.83,159.23L137.33,157.82L138.58,157.05L139.82,154.66L141.07,153.97L143.57,153.42L144.82,148.58L147.32,150.11L148.56,151.51L151.06,157.49L152.31,161.27L158.55,178.06L159.8,180.97L163.54,190.99L164.79,195.44L166.04,196.03L167.29,198.53L171.04,197.5L172.28,198.59L173.53,198.76L174.78,200.41L176.03,202.77L177.28,203.01L179.77,199.72L181.02,199.42L183.52,193.83L184.77,190.09L186.02,190.6L187.27,192.67L189.76,193.58L191.01,188.39L198.5,163.81L199.75,161.99L205.99,150.6L207.24,145.81L210.99,135.28L212.23,132.91L213.48,129.71L214.73,130.34L215.98,129.88L217.23,130.44L220.97,133.05L222.22,134.42L223.47,135.53L224.72,141.58L233.46,150.21L234.71,151.05L238.45,153.25L239.7,153.4L245.94,156.55L247.19,156.84L253.43,158.39L254.68,158.03L257.18,156.34L258.43,155.7L259.67,153.23L260.92,152.71L263.42,151.39L264.67,145.16L268.41,150.93L269.66,153.33L280.9,184.77L282.15,189.77L283.39,191.21L284.64,194.38L288.39,198.5L289.64,197.08L290.89,196.71L292.13,197.77L294.63,204.19L295.88,205.11L297.13,205.66L298.38,208.16L299.62,209L300.87,205.41L303.37,195.77L304.62,189.05L307.11,191.75L308.36,192.32L309.61,191.7L310.86,188.21L318.35,164.39L319.6,161.79L329.59,133.6L330.84,131.46L333.33,126.69L334.58,128.2L337.08,128.02L338.33,128.77L342.07,132.39L343.32,133.53L344.57,139.62L345.82,141.53L348.31,144.14L349.56,145.39L355.8,150.9L357.05,151.55L359.55,151.95L360.8,152.45L367.04,154.19L368.29,154.21L369.54,153.72L370.78,154.15L373.28,154.64L374.53,154.36L378.28,152.86L379.52,151.15L383.27,150.42L384.52,144.55L388.26,150.8L389.51,154.33L400.75,183.6L402,185.25L403.24,187.89L404.49,188.65L406.99,193.28L408.24,192.98L410.73,191.89L411.98,192.41L413.23,193.32L414.48,196.29L416.98,199.43L418.23,200.36L419.47,201.83L420.72,201.27L425.72,194.58L426.96,193.51L428.21,192.32L429.46,189.45L439.45,153.65L440.7,151.75L443.19,148.24L444.44,144.76L448.19,137.66L449.44,134.69L453.18,129.27L454.43,130.06L455.68,129.84L456.93,130.67L458.18,131.26L459.42,132.91L463.17,136.35L464.42,142.06L469.41,148.3L470.66,149.51L476.9,156.4L478.15,157.11L488.14,161.26L489.39,161.42L493.13,162.74L494.38,162.31L496.88,161.54L498.13,161.02L500.62,159.44L501.87,158.52L503.12,158.35L504.37,153.87L508.11,156.17L509.36,157.42L519.35,180.4L520.6,181.06L521.85,183.38L523.09,182.85L524.34,184.13L525.59,183.32L526.84,184.99L528.09,183.29L529.34,180.94L530.58,182.56L533.08,186.03L534.33,192.13L536.83,199.48L538.08,203.2L539.32,206.16L540.57,204.73L543.07,203.79L544.32,202.03L545.57,199.33L546.81,198.65L550.56,190.11L551.81,188.53L554.3,180.41L555.55,174.27L560.55,157.25L561.8,155.95L566.79,146.58L568.04,142.23L571.78,134.74L573.03,132.44L576.78,131.51L578.03,132.51L581.77,135.56L583.02,136.81L584.27,142.36L585.52,143.15L590.51,148.18L591.76,149.49L595.5,153.69L596.75,154.42L598,155.28" style="vector-effect: none; fill: none; stroke: rgb(176, 209, 231); stroke-opacity: 0.8; stroke-width: 1.5px; opacity: 1;"/></g><g class="points"/><g class="text"/></g><g class="trace scatter trace249864" style="stroke-miterlimit: 2; opacity: 1;"><g class="fills"><g><path class="js-fill" d="M0,145.39L3.75,149.16L4.99,150.04L6.24,152.04L7.49,152.48L11.24,154.07L12.48,154.39L13.73,154.89L14.98,152.99L16.23,153.02L17.48,151.66L18.73,150.23L19.97,147.05L22.47,143.39L23.72,142.32L24.97,129.34L26.22,132.01L36.2,167.43L37.45,170.91L41.2,180.62L42.45,183.3L43.7,186.95L44.94,187.98L46.19,188.05L47.44,189.24L48.69,190.94L49.94,189.94L53.68,183.14L54.93,182.7L56.18,181.18L57.43,180.99L59.92,180.36L61.17,182.63L64.92,189.26L66.17,186.79L69.91,180.6L71.16,174.9L73.66,159.79L74.91,148.39L77.4,133.18L78.65,128.47L81.15,124.13L82.4,123.41L83.65,122.34L84.89,120.27L87.39,114.03L88.64,107.04L91.14,101.53L92.38,99.34L93.63,93.71L94.88,96.64L97.38,98.19L98.63,100.12L103.62,109.66L104.87,121.11L107.37,125.54L108.61,128.02L114.86,143.49L116.1,145.13L119.85,149.48L121.1,150.53L122.35,150.47L123.59,151.92L128.59,155.21L129.84,154.79L132.33,155.01L133.58,155.24L134.83,152.56L136.08,152.21L138.58,148.88L139.82,145.2L142.32,143.46L143.57,143.4L144.82,133.68L146.07,134.11L148.56,138.53L149.81,142.91L156.05,169.25L157.3,174.03L161.05,182.47L162.3,184.32L164.79,190.07L166.04,190.26L167.29,192.65L168.54,192.69L171.04,192.72L172.28,193.72L173.53,193.43L174.78,194.32L176.03,195.46L177.28,195L179.77,192.07L181.02,191.49L183.52,187.02L184.77,184.46L187.27,186.64L188.51,187.86L189.76,188.58L191.01,185.8L192.26,184.04L193.51,178.8L197.25,150.15L198.5,144.16L205.99,126.14L207.24,119.34L210.99,104.3L212.23,101.04L213.48,95.73L214.73,97.33L215.98,96.53L217.23,97.58L220.97,102.42L222.22,105.14L223.47,107.21L224.72,119.43L229.71,130.73L230.96,131.94L233.46,138.09L234.71,139.99L237.2,143.65L238.45,144.57L242.2,147.87L243.44,149.42L245.94,151.2L247.19,151.65L250.94,153.5L252.18,154.64L254.68,153.9L255.93,152.86L259.67,145.07L260.92,144.29L263.42,142.27L264.67,130.64L268.41,138.91L269.66,142.51L278.4,176.31L279.65,180.14L282.15,186.57L283.39,187.51L284.64,189.79L285.89,190.28L287.14,190.59L288.39,192.31L290.89,191.34L292.13,192.27L294.63,201.01L295.88,202.55L297.13,203.26L298.38,206.76L299.62,207.74L300.87,198.14L304.62,183.5L305.87,184.65L308.36,186.38L309.61,186.55L312.11,182.84L313.36,177.43L318.35,148.95L319.6,145.19L329.59,105.59L330.84,102.67L333.33,95.29L334.58,97.57L335.83,96.85L337.08,97.06L339.57,100.48L340.82,103.34L342.07,104.37L343.32,106.46L344.57,118.36L345.82,121.94L347.06,123.45L348.31,126.62L355.8,140.17L357.05,141.43L358.3,142.7L359.55,142.53L365.79,146.76L367.04,146.85L368.29,146.96L369.54,145.98L372.03,147.66L373.28,147.96L377.03,146.34L378.28,144.98L379.52,142.6L380.77,141.91L382.02,140.53L383.27,140.84L384.52,129.27L385.77,132.33L388.26,139.17L389.51,144.68L397,173.48L398.25,176.42L400.75,180.84L402,181.88L406.99,187.19L408.24,187.46L409.49,187.75L410.73,187.2L413.23,187.55L414.48,188.93L418.23,191.64L419.47,192.8L421.97,191.25L423.22,190.07L425.72,188.1L426.96,187.54L428.21,187.08L429.46,185.64L431.96,179.82L433.21,173.66L438.2,138.47L439.45,134.75L443.19,126.69L444.44,121.69L446.94,116.3L448.19,110.71L450.68,102.94L451.93,100.85L453.18,97.5L454.43,98.51L455.68,97.95L456.93,99.54L458.18,100.57L459.42,103.07L463.17,109.51L464.42,120.82L466.91,126.47L468.16,128.46L473.16,140.95L474.41,143.56L478.15,148.71L479.4,149.32L485.64,155.63L486.89,155.83L493.13,159.05L494.38,158.16L495.63,158.18L496.88,156.75L500.62,153.7L501.87,152.1L503.12,151.89L504.37,142.64L506.86,144.4L508.11,146.14L509.36,148.17L510.61,152.53L516.85,171.87L518.1,175.24L519.35,179.64L520.6,179.41L521.85,180.77L523.09,179.84L524.34,180.31L525.59,179.68L526.84,181.32L528.09,180.51L529.34,179.45L530.58,180.86L533.08,183.55L534.33,187.99L538.08,197.7L539.32,200.74L541.82,199.88L543.07,199.72L544.32,198.88L545.57,197.02L546.81,196.31L548.06,194.36L551.81,185.08L553.06,178.76L559.3,137.71L560.55,134.87L561.8,133.52L563.04,130.41L566.79,120.25L568.04,113.42L570.53,106.19L571.78,102.52L573.03,98.79L574.28,98.65L575.53,97.4L576.78,97.69L583.02,108.11L584.27,119.48L586.76,123.17L588.01,125.27L594.25,141.29L595.5,142.66L598,146.1L598,50.16L594.25,48.64L593.01,46.73L584.27,34.05L583.02,35.4L576.78,27.66L575.53,27.09L574.28,27.99L573.03,24.03L571.78,22.7L570.53,25.86L569.29,27.41L568.04,31.28L565.54,40L564.29,42.34L561.8,48.01L560.55,49.07L559.3,51.61L558.05,60.97L553.06,92.45L551.81,95.68L549.31,96.86L548.06,102.1L544.32,112.66L543.07,111.88L540.57,108.46L539.32,108.13L533.08,57.3L531.83,55.57L529.34,49.46L528.09,51.3L526.84,52.93L525.59,50.73L523.09,55.48L521.85,60.73L520.6,62.19L519.35,66.89L515.6,51.43L514.35,47.08L509.36,38.33L508.11,39.18L504.37,43.13L503.12,46.56L500.62,49.06L499.37,51.12L496.88,53.53L495.63,54.58L491.88,55.47L490.63,55.46L486.89,54.81L485.64,54.78L480.65,52.45L479.4,51.87L478.15,49.17L476.9,48.62L473.16,45.02L471.91,43.41L464.42,33.36L463.17,34.5L458.18,27.44L456.93,26.66L455.68,25.33L454.43,25.51L451.93,18.06L450.68,19.33L446.94,24.85L445.69,25.14L444.44,26.03L443.19,29.46L439.45,31.84L438.2,36.17L435.7,50.61L434.46,59.33L431.96,68.91L430.71,72.27L429.46,75.46L428.21,75.08L426.96,73.46L425.72,73.18L424.47,72.23L423.22,75.84L419.47,85.36L418.23,82.51L414.48,75.01L413.23,76.54L409.49,85.03L408.24,83.91L406.99,83.07L405.74,80.91L403.24,78.23L402,76.92L399.5,75.48L398.25,69.69L390.76,44.62L389.51,41.84L387.01,38.08L385.77,37.8L384.52,36.03L383.27,41.82L380.77,44.2L379.52,45.95L377.03,48.81L375.78,49.63L373.28,50.72L372.03,50.57L369.54,49.8L368.29,50.03L363.29,49.52L362.05,48.98L359.55,47.93L358.3,46.83L354.56,46.62L353.31,44.33L348.31,36.63L347.06,33.11L344.57,27.27L343.32,28.51L339.57,23.7L338.33,21.38L335.83,20.15L334.58,21.06L332.08,13.77L330.84,15.55L328.34,22.77L327.09,26.94L324.59,32.3L323.34,40.83L319.6,59.02L318.35,60.31L315.85,65.18L314.61,69.68L310.86,73.37L309.61,73.68L304.62,58.82L303.37,71.22L299.62,102.77L298.38,103.3L297.13,102.18L295.88,103.04L294.63,104.19L293.38,102.65L290.89,96.28L289.64,95.89L288.39,98.08L287.14,95.74L284.64,97.34L283.39,92.75L282.15,90.92L280.9,85.49L277.15,67.81L275.9,60.35L272.16,42.57L270.91,38.32L269.66,34.54L268.41,33.54L264.67,31.59L263.42,37.81L259.67,42.55L258.43,46.08L253.43,50.13L252.18,49.91L248.44,48.64L247.19,48.7L243.44,48.29L242.2,47.52L238.45,45.63L237.2,44.99L230.96,37.96L229.71,36.46L224.72,29.69L223.47,31.1L217.23,23.03L215.98,22.11L214.73,22.38L213.48,19.89L212.23,18.47L210.99,22.49L209.74,25.79L208.49,31.49L204.74,49.94L203.49,53.4L199.75,65.48L198.5,65.62L197.25,68.02L196,75.54L194.76,76.61L193.51,79.61L192.26,78.29L191.01,75.71L189.76,76.34L188.51,71.18L184.77,57.84L183.52,63.52L176.03,93.14L174.78,93.96L173.53,93.48L172.28,94.44L171.04,92.55L169.79,92.59L167.29,90.26L166.04,85.38L164.79,85.13L163.54,79.19L157.3,61.41L156.05,55.39L149.81,32.8L148.56,32.49L144.82,35.37L143.57,39.32L141.07,42.95L139.82,44.72L138.58,47.74L137.33,48.45L133.58,52.17L132.33,52.26L129.84,51.62L128.59,52L121.1,48.85L119.85,48.45L118.6,49.48L117.35,48.55L109.86,38.91L108.61,35.04L104.87,30.21L103.62,31.29L96.13,22.27L94.88,22.17L92.38,17.59L91.14,20.01L87.39,28.37L86.14,28.7L84.89,28.79L83.65,26.68L79.9,20.09L78.65,19.96L76.15,23.68L74.91,27.62L72.41,42.01L71.16,46.6L64.92,66.54L63.67,61.9L59.92,44.73L58.68,45.83L56.18,47.25L54.93,51.11L53.68,54.92L52.43,61.68L48.69,75.17L47.44,73.9L46.19,73.79L44.94,75.64L43.7,73.95L42.45,68.09L39.95,63.33L38.7,62.77L36.2,59.81L34.96,60.21L32.46,51.24L31.21,48.09L28.71,41L27.47,39.71L24.97,36.38L23.72,42.94L22.47,44.51L21.22,47.48L16.23,53.81L14.98,54.55L12.48,55.86L11.24,55.61L9.99,55.68L8.74,54.91L0,52.66Z" style="fill: rgb(176, 209, 231); fill-opacity: 0.5; stroke-width: 0;"/></g></g><g class="errorbars"/><g class="lines"><path class="js-line" d="M0,145.39L3.75,149.16L4.99,150.04L6.24,152.04L7.49,152.48L11.24,154.07L12.48,154.39L13.73,154.89L14.98,152.99L16.23,153.02L17.48,151.66L18.73,150.23L19.97,147.05L22.47,143.39L23.72,142.32L24.97,129.34L26.22,132.01L36.2,167.43L37.45,170.91L41.2,180.62L42.45,183.3L43.7,186.95L44.94,187.98L46.19,188.05L47.44,189.24L48.69,190.94L49.94,189.94L53.68,183.14L54.93,182.7L56.18,181.18L57.43,180.99L59.92,180.36L61.17,182.63L64.92,189.26L66.17,186.79L69.91,180.6L71.16,174.9L73.66,159.79L74.91,148.39L77.4,133.18L78.65,128.47L81.15,124.13L82.4,123.41L83.65,122.34L84.89,120.27L87.39,114.03L88.64,107.04L91.14,101.53L92.38,99.34L93.63,93.71L94.88,96.64L97.38,98.19L98.63,100.12L103.62,109.66L104.87,121.11L107.37,125.54L108.61,128.02L114.86,143.49L116.1,145.13L119.85,149.48L121.1,150.53L122.35,150.47L123.59,151.92L128.59,155.21L129.84,154.79L132.33,155.01L133.58,155.24L134.83,152.56L136.08,152.21L138.58,148.88L139.82,145.2L142.32,143.46L143.57,143.4L144.82,133.68L146.07,134.11L148.56,138.53L149.81,142.91L156.05,169.25L157.3,174.03L161.05,182.47L162.3,184.32L164.79,190.07L166.04,190.26L167.29,192.65L168.54,192.69L171.04,192.72L172.28,193.72L173.53,193.43L174.78,194.32L176.03,195.46L177.28,195L179.77,192.07L181.02,191.49L183.52,187.02L184.77,184.46L187.27,186.64L188.51,187.86L189.76,188.58L191.01,185.8L192.26,184.04L193.51,178.8L197.25,150.15L198.5,144.16L205.99,126.14L207.24,119.34L210.99,104.3L212.23,101.04L213.48,95.73L214.73,97.33L215.98,96.53L217.23,97.58L220.97,102.42L222.22,105.14L223.47,107.21L224.72,119.43L229.71,130.73L230.96,131.94L233.46,138.09L234.71,139.99L237.2,143.65L238.45,144.57L242.2,147.87L243.44,149.42L245.94,151.2L247.19,151.65L250.94,153.5L252.18,154.64L254.68,153.9L255.93,152.86L259.67,145.07L260.92,144.29L263.42,142.27L264.67,130.64L268.41,138.91L269.66,142.51L278.4,176.31L279.65,180.14L282.15,186.57L283.39,187.51L284.64,189.79L285.89,190.28L287.14,190.59L288.39,192.31L290.89,191.34L292.13,192.27L294.63,201.01L295.88,202.55L297.13,203.26L298.38,206.76L299.62,207.74L300.87,198.14L304.62,183.5L305.87,184.65L308.36,186.38L309.61,186.55L312.11,182.84L313.36,177.43L318.35,148.95L319.6,145.19L329.59,105.59L330.84,102.67L333.33,95.29L334.58,97.57L335.83,96.85L337.08,97.06L339.57,100.48L340.82,103.34L342.07,104.37L343.32,106.46L344.57,118.36L345.82,121.94L347.06,123.45L348.31,126.62L355.8,140.17L357.05,141.43L358.3,142.7L359.55,142.53L365.79,146.76L367.04,146.85L368.29,146.96L369.54,145.98L372.03,147.66L373.28,147.96L377.03,146.34L378.28,144.98L379.52,142.6L380.77,141.91L382.02,140.53L383.27,140.84L384.52,129.27L385.77,132.33L388.26,139.17L389.51,144.68L397,173.48L398.25,176.42L400.75,180.84L402,181.88L406.99,187.19L408.24,187.46L409.49,187.75L410.73,187.2L413.23,187.55L414.48,188.93L418.23,191.64L419.47,192.8L421.97,191.25L423.22,190.07L425.72,188.1L426.96,187.54L428.21,187.08L429.46,185.64L431.96,179.82L433.21,173.66L438.2,138.47L439.45,134.75L443.19,126.69L444.44,121.69L446.94,116.3L448.19,110.71L450.68,102.94L451.93,100.85L453.18,97.5L454.43,98.51L455.68,97.95L456.93,99.54L458.18,100.57L459.42,103.07L463.17,109.51L464.42,120.82L466.91,126.47L468.16,128.46L473.16,140.95L474.41,143.56L478.15,148.71L479.4,149.32L485.64,155.63L486.89,155.83L493.13,159.05L494.38,158.16L495.63,158.18L496.88,156.75L500.62,153.7L501.87,152.1L503.12,151.89L504.37,142.64L506.86,144.4L508.11,146.14L509.36,148.17L510.61,152.53L516.85,171.87L518.1,175.24L519.35,179.64L520.6,179.41L521.85,180.77L523.09,179.84L524.34,180.31L525.59,179.68L526.84,181.32L528.09,180.51L529.34,179.45L530.58,180.86L533.08,183.55L534.33,187.99L538.08,197.7L539.32,200.74L541.82,199.88L543.07,199.72L544.32,198.88L545.57,197.02L546.81,196.31L548.06,194.36L551.81,185.08L553.06,178.76L559.3,137.71L560.55,134.87L561.8,133.52L563.04,130.41L566.79,120.25L568.04,113.42L570.53,106.19L571.78,102.52L573.03,98.79L574.28,98.65L575.53,97.4L576.78,97.69L583.02,108.11L584.27,119.48L586.76,123.17L588.01,125.27L594.25,141.29L595.5,142.66L598,146.1L598,50.16L594.25,48.64L593.01,46.73L584.27,34.05L583.02,35.4L576.78,27.66L575.53,27.09L574.28,27.99L573.03,24.03L571.78,22.7L570.53,25.86L569.29,27.41L568.04,31.28L565.54,40L564.29,42.34L561.8,48.01L560.55,49.07L559.3,51.61L558.05,60.97L553.06,92.45L551.81,95.68L549.31,96.86L548.06,102.1L544.32,112.66L543.07,111.88L540.57,108.46L539.32,108.13L533.08,57.3L531.83,55.57L529.34,49.46L528.09,51.3L526.84,52.93L525.59,50.73L523.09,55.48L521.85,60.73L520.6,62.19L519.35,66.89L515.6,51.43L514.35,47.08L509.36,38.33L508.11,39.18L504.37,43.13L503.12,46.56L500.62,49.06L499.37,51.12L496.88,53.53L495.63,54.58L491.88,55.47L490.63,55.46L486.89,54.81L485.64,54.78L480.65,52.45L479.4,51.87L478.15,49.17L476.9,48.62L473.16,45.02L471.91,43.41L464.42,33.36L463.17,34.5L458.18,27.44L456.93,26.66L455.68,25.33L454.43,25.51L451.93,18.06L450.68,19.33L446.94,24.85L445.69,25.14L444.44,26.03L443.19,29.46L439.45,31.84L438.2,36.17L435.7,50.61L434.46,59.33L431.96,68.91L430.71,72.27L429.46,75.46L428.21,75.08L426.96,73.46L425.72,73.18L424.47,72.23L423.22,75.84L419.47,85.36L418.23,82.51L414.48,75.01L413.23,76.54L409.49,85.03L408.24,83.91L406.99,83.07L405.74,80.91L403.24,78.23L402,76.92L399.5,75.48L398.25,69.69L390.76,44.62L389.51,41.84L387.01,38.08L385.77,37.8L384.52,36.03L383.27,41.82L380.77,44.2L379.52,45.95L377.03,48.81L375.78,49.63L373.28,50.72L372.03,50.57L369.54,49.8L368.29,50.03L363.29,49.52L362.05,48.98L359.55,47.93L358.3,46.83L354.56,46.62L353.31,44.33L348.31,36.63L347.06,33.11L344.57,27.27L343.32,28.51L339.57,23.7L338.33,21.38L335.83,20.15L334.58,21.06L332.08,13.77L330.84,15.55L328.34,22.77L327.09,26.94L324.59,32.3L323.34,40.83L319.6,59.02L318.35,60.31L315.85,65.18L314.61,69.68L310.86,73.37L309.61,73.68L304.62,58.82L303.37,71.22L299.62,102.77L298.38,103.3L297.13,102.18L295.88,103.04L294.63,104.19L293.38,102.65L290.89,96.28L289.64,95.89L288.39,98.08L287.14,95.74L284.64,97.34L283.39,92.75L282.15,90.92L280.9,85.49L277.15,67.81L275.9,60.35L272.16,42.57L270.91,38.32L269.66,34.54L268.41,33.54L264.67,31.59L263.42,37.81L259.67,42.55L258.43,46.08L253.43,50.13L252.18,49.91L248.44,48.64L247.19,48.7L243.44,48.29L242.2,47.52L238.45,45.63L237.2,44.99L230.96,37.96L229.71,36.46L224.72,29.69L223.47,31.1L217.23,23.03L215.98,22.11L214.73,22.38L213.48,19.89L212.23,18.47L210.99,22.49L209.74,25.79L208.49,31.49L204.74,49.94L203.49,53.4L199.75,65.48L198.5,65.62L197.25,68.02L196,75.54L194.76,76.61L193.51,79.61L192.26,78.29L191.01,75.71L189.76,76.34L188.51,71.18L184.77,57.84L183.52,63.52L176.03,93.14L174.78,93.96L173.53,93.48L172.28,94.44L171.04,92.55L169.79,92.59L167.29,90.26L166.04,85.38L164.79,85.13L163.54,79.19L157.3,61.41L156.05,55.39L149.81,32.8L148.56,32.49L144.82,35.37L143.57,39.32L141.07,42.95L139.82,44.72L138.58,47.74L137.33,48.45L133.58,52.17L132.33,52.26L129.84,51.62L128.59,52L121.1,48.85L119.85,48.45L118.6,49.48L117.35,48.55L109.86,38.91L108.61,35.04L104.87,30.21L103.62,31.29L96.13,22.27L94.88,22.17L92.38,17.59L91.14,20.01L87.39,28.37L86.14,28.7L84.89,28.79L83.65,26.68L79.9,20.09L78.65,19.96L76.15,23.68L74.91,27.62L72.41,42.01L71.16,46.6L64.92,66.54L63.67,61.9L59.92,44.73L58.68,45.83L56.18,47.25L54.93,51.11L53.68,54.92L52.43,61.68L48.69,75.17L47.44,73.9L46.19,73.79L44.94,75.64L43.7,73.95L42.45,68.09L39.95,63.33L38.7,62.77L36.2,59.81L34.96,60.21L32.46,51.24L31.21,48.09L28.71,41L27.47,39.71L24.97,36.38L23.72,42.94L22.47,44.51L21.22,47.48L16.23,53.81L14.98,54.55L12.48,55.86L11.24,55.61L9.99,55.68L8.74,54.91L0,52.66" style="vector-effect: none; fill: none; stroke: rgb(156, 201, 225); stroke-opacity: 0.8; stroke-width: 1.5px; opacity: 1;"/></g><g class="points"/><g class="text"/></g><g class="trace scatter trace6ada43" style="stroke-miterlimit: 2; opacity: 1;"><g class="fills"/><g class="errorbars"/><g class="lines"><path class="js-line" d="M0,145.39L3.75,149.16L4.99,150.04L6.24,152.04L7.49,152.48L11.24,154.07L12.48,154.39L13.73,154.89L14.98,152.99L16.23,153.02L17.48,151.66L18.73,150.23L19.97,147.05L22.47,143.39L23.72,142.32L24.97,129.34L26.22,132.01L36.2,167.43L37.45,170.91L41.2,180.62L42.45,183.3L43.7,186.95L44.94,187.98L46.19,188.05L47.44,189.24L48.69,190.94L49.94,189.94L53.68,183.14L54.93,182.7L56.18,181.18L57.43,180.99L59.92,180.36L61.17,182.63L64.92,189.26L66.17,186.79L69.91,180.6L71.16,174.9L73.66,159.79L74.91,148.39L77.4,133.18L78.65,128.47L81.15,124.13L82.4,123.41L83.65,122.34L84.89,120.27L87.39,114.03L88.64,107.04L91.14,101.53L92.38,99.34L93.63,93.71L94.88,96.64L97.38,98.19L98.63,100.12L103.62,109.66L104.87,121.11L107.37,125.54L108.61,128.02L114.86,143.49L116.1,145.13L119.85,149.48L121.1,150.53L122.35,150.47L123.59,151.92L128.59,155.21L129.84,154.79L132.33,155.01L133.58,155.24L134.83,152.56L136.08,152.21L138.58,148.88L139.82,145.2L142.32,143.46L143.57,143.4L144.82,133.68L146.07,134.11L148.56,138.53L149.81,142.91L156.05,169.25L157.3,174.03L161.05,182.47L162.3,184.32L164.79,190.07L166.04,190.26L167.29,192.65L168.54,192.69L171.04,192.72L172.28,193.72L173.53,193.43L174.78,194.32L176.03,195.46L177.28,195L179.77,192.07L181.02,191.49L183.52,187.02L184.77,184.46L187.27,186.64L188.51,187.86L189.76,188.58L191.01,185.8L192.26,184.04L193.51,178.8L197.25,150.15L198.5,144.16L205.99,126.14L207.24,119.34L210.99,104.3L212.23,101.04L213.48,95.73L214.73,97.33L215.98,96.53L217.23,97.58L220.97,102.42L222.22,105.14L223.47,107.21L224.72,119.43L229.71,130.73L230.96,131.94L233.46,138.09L234.71,139.99L237.2,143.65L238.45,144.57L242.2,147.87L243.44,149.42L245.94,151.2L247.19,151.65L250.94,153.5L252.18,154.64L254.68,153.9L255.93,152.86L259.67,145.07L260.92,144.29L263.42,142.27L264.67,130.64L268.41,138.91L269.66,142.51L278.4,176.31L279.65,180.14L282.15,186.57L283.39,187.51L284.64,189.79L285.89,190.28L287.14,190.59L288.39,192.31L290.89,191.34L292.13,192.27L294.63,201.01L295.88,202.55L297.13,203.26L298.38,206.76L299.62,207.74L300.87,198.14L304.62,183.5L305.87,184.65L308.36,186.38L309.61,186.55L312.11,182.84L313.36,177.43L318.35,148.95L319.6,145.19L329.59,105.59L330.84,102.67L333.33,95.29L334.58,97.57L335.83,96.85L337.08,97.06L339.57,100.48L340.82,103.34L342.07,104.37L343.32,106.46L344.57,118.36L345.82,121.94L347.06,123.45L348.31,126.62L355.8,140.17L357.05,141.43L358.3,142.7L359.55,142.53L365.79,146.76L367.04,146.85L368.29,146.96L369.54,145.98L372.03,147.66L373.28,147.96L377.03,146.34L378.28,144.98L379.52,142.6L380.77,141.91L382.02,140.53L383.27,140.84L384.52,129.27L385.77,132.33L388.26,139.17L389.51,144.68L397,173.48L398.25,176.42L400.75,180.84L402,181.88L406.99,187.19L408.24,187.46L409.49,187.75L410.73,187.2L413.23,187.55L414.48,188.93L418.23,191.64L419.47,192.8L421.97,191.25L423.22,190.07L425.72,188.1L426.96,187.54L428.21,187.08L429.46,185.64L431.96,179.82L433.21,173.66L438.2,138.47L439.45,134.75L443.19,126.69L444.44,121.69L446.94,116.3L448.19,110.71L450.68,102.94L451.93,100.85L453.18,97.5L454.43,98.51L455.68,97.95L456.93,99.54L458.18,100.57L459.42,103.07L463.17,109.51L464.42,120.82L466.91,126.47L468.16,128.46L473.16,140.95L474.41,143.56L478.15,148.71L479.4,149.32L485.64,155.63L486.89,155.83L493.13,159.05L494.38,158.16L495.63,158.18L496.88,156.75L500.62,153.7L501.87,152.1L503.12,151.89L504.37,142.64L506.86,144.4L508.11,146.14L509.36,148.17L510.61,152.53L516.85,171.87L518.1,175.24L519.35,179.64L520.6,179.41L521.85,180.77L523.09,179.84L524.34,180.31L525.59,179.68L526.84,181.32L528.09,180.51L529.34,179.45L530.58,180.86L533.08,183.55L534.33,187.99L538.08,197.7L539.32,200.74L541.82,199.88L543.07,199.72L544.32,198.88L545.57,197.02L546.81,196.31L548.06,194.36L551.81,185.08L553.06,178.76L559.3,137.71L560.55,134.87L561.8,133.52L563.04,130.41L566.79,120.25L568.04,113.42L570.53,106.19L571.78,102.52L573.03,98.79L574.28,98.65L575.53,97.4L576.78,97.69L583.02,108.11L584.27,119.48L586.76,123.17L588.01,125.27L594.25,141.29L595.5,142.66L598,146.1" style="vector-effect: none; fill: none; stroke: rgb(156, 201, 225); stroke-opacity: 0.8; stroke-width: 1.5px; opacity: 1;"/></g><g class="points"/><g class="text"/></g><g class="trace scatter tracebcf175" style="stroke-miterlimit: 2; opacity: 1;"><g class="fills"><g><path class="js-fill" d="M0,75.38L1.25,75.37L2.5,74.36L4.99,72.92L6.24,75.35L11.24,78.84L12.48,79.13L13.73,80.13L14.98,78.44L16.23,78.49L17.48,77.05L18.73,75.46L19.97,72.36L22.47,68.98L23.72,69.31L24.97,57.32L26.22,62.97L32.46,103.94L33.71,112.92L36.2,125.75L37.45,130.94L39.95,141.7L41.2,146.81L44.94,163.74L46.19,164.36L48.69,171.6L49.94,169.54L53.68,147.88L54.93,144.57L56.18,140.53L57.43,139.18L58.68,138.22L59.92,135.43L64.92,159.31L66.17,152.61L71.16,127.04L72.41,118.75L77.4,81.04L78.65,75.76L81.15,71.36L82.4,69.94L84.89,67.39L86.14,62.42L87.39,56.25L88.64,45.98L91.14,34.27L92.38,31.65L93.63,31.91L94.88,34.48L98.63,36.61L99.87,38.79L102.37,41.43L103.62,42.67L106.12,47.95L107.37,48.39L109.86,51.61L111.11,53.37L114.86,63.2L116.1,64.63L118.6,67.33L119.85,69.67L123.59,73.43L124.84,74.55L128.59,77.66L129.84,77.44L132.33,76.9L133.58,77.1L134.83,74.62L136.08,73.93L138.58,69.7L139.82,66.01L142.32,63.83L143.57,65.01L144.82,55.61L146.07,60.32L149.81,83.34L151.06,92.53L156.05,128.87L157.3,136.34L161.05,153.05L162.3,157.95L164.79,171.8L166.04,172.89L167.29,179.75L168.54,180.74L169.79,180.75L171.04,182L172.28,184.52L173.53,184.11L176.03,189.57L177.28,188.41L181.02,179.06L182.27,171.24L184.77,159.79L186.02,161.56L189.76,170.22L191.01,164.38L193.51,157.13L194.76,147.1L196,140.87L197.25,126L201,105.88L202.25,100.06L205.99,82.24L207.24,69.82L210.99,44.9L212.23,40.59L213.48,37.8L214.73,37.35L215.98,36.15L217.23,37.22L219.72,39.81L220.97,41.49L223.47,45.46L224.72,52.64L229.71,59.25L230.96,59.75L233.46,64.65L234.71,65.97L237.2,68.84L238.45,69.38L240.95,72.26L242.2,73.29L247.19,76.46L248.44,77.31L250.94,79.05L252.18,80.9L254.68,81.33L255.93,79.82L260.92,69.8L262.17,68.03L263.42,68.26L264.67,56.82L269.66,87.82L270.91,97.52L275.9,135.69L277.15,144.16L284.64,181.87L285.89,183.22L287.14,184.64L288.39,189.6L289.64,187.85L290.89,188.17L292.13,190L293.38,195.04L294.63,196.61L295.88,196.87L297.13,196.96L298.38,198.33L299.62,198.66L300.87,195.79L302.12,188.32L303.37,175.28L304.62,161.67L305.87,164.85L308.36,170.23L309.61,171.13L312.11,164.41L313.36,158.4L315.85,142.4L317.1,134.67L320.85,111.86L322.1,103.78L325.84,75.25L327.09,67.5L330.84,43.59L332.08,38.42L333.33,35.48L334.58,35.65L337.08,34.05L338.33,34.69L342.07,40.51L343.32,42.35L345.82,54.74L347.06,57.45L349.56,65.53L350.81,66.86L354.56,74.39L355.8,73.99L358.3,74.5L359.55,73.63L367.04,78.05L368.29,78.11L369.54,76.8L370.78,77.95L374.53,78.68L375.78,77.72L377.03,76.93L378.28,75.18L379.52,72.48L380.77,72.24L382.02,71.75L383.27,74.5L384.52,64.32L385.77,70.24L389.51,93.47L390.76,102.79L395.75,136.91L397,143.72L400.75,160.52L402,163.2L406.99,176.48L408.24,178.41L409.49,179.5L410.73,178.21L413.23,178.7L414.48,182.27L416.98,187.11L418.23,188.59L419.47,190.9L420.72,189.09L425.72,176.29L426.96,175.03L428.21,173.24L429.46,169.31L433.21,150.61L434.46,140.54L438.2,105.58L439.45,98.15L446.94,66.25L448.19,57.89L450.68,44.81L451.93,40.98L453.18,39.69L454.43,39.92L455.68,39.17L456.93,40.07L458.18,40.84L459.42,43.37L463.17,48.19L464.42,55.25L466.91,58.09L468.16,58.3L475.65,70.05L476.9,71.66L478.15,72.27L479.4,71.4L480.65,72.82L481.9,72.93L486.89,77.4L488.14,78.32L491.88,79.17L493.13,80.82L498.13,78.87L499.37,77.01L501.87,75.38L503.12,76.86L504.37,67.74L505.62,71.29L509.36,87.32L510.61,94.83L515.6,124.67L516.85,131.21L519.35,146.35L520.6,145.91L521.85,149.26L523.09,147.23L524.34,147.29L525.59,145.12L526.84,148.11L528.09,145.45L529.34,141.69L530.58,146.2L533.08,153.61L534.33,163.17L538.08,185.72L539.32,192.36L541.82,189.21L543.07,187.84L544.32,185.28L545.57,180.77L546.81,178.66L548.06,174.08L550.56,163.88L551.81,160.32L554.3,145.48L555.55,132.85L558.05,111.92L559.3,99.76L566.79,67.78L568.04,57.52L570.53,44.63L571.78,39.83L573.03,37.99L574.28,42.54L576.78,42.02L578.03,43.63L581.77,47.93L583.02,49.81L584.27,55.45L585.52,56.35L593.01,69.42L594.25,72.23L596.75,72.96L598,73.81L598,51.43L596.75,50.75L594.25,49.84L593.01,47.52L584.27,34.09L583.02,36.09L576.78,28.64L575.53,28.14L574.28,29.07L573.03,25.05L571.78,23.19L570.53,26.99L569.29,30.47L568.04,36.73L565.54,50.34L564.29,54.2L561.8,62.16L560.55,64.22L559.3,67.94L558.05,80.39L553.06,122.39L551.81,126.22L549.31,127.86L548.06,134.94L544.32,149.77L543.07,149.19L540.57,146.04L539.32,145.93L533.08,77.29L531.83,73.81L529.34,63.95L528.09,66.53L526.84,68.94L525.59,67.08L523.09,73.42L521.85,80.09L520.6,82.58L519.35,88.65L515.6,65.89L514.35,58.91L509.36,43.63L508.11,43.37L504.37,44.3L503.12,47.22L501.87,47.87L500.62,50.04L498.13,55.24L496.88,56.06L494.38,57.52L493.13,58.23L488.14,56.89L486.89,56.88L484.39,56.29L483.14,55.27L479.4,53.43L478.15,50.75L474.41,47.96L473.16,45.79L465.67,35.16L464.42,33.73L463.17,35.05L461.92,33.07L459.42,30.48L458.18,28.02L455.68,26L454.43,26.16L451.93,18.77L450.68,20.04L448.19,25.71L446.94,28.68L444.44,32.13L443.19,37.48L439.45,43.02L438.2,49.99L433.21,89.42L431.96,94.22L429.46,102.7L428.21,102.71L425.72,100.88L424.47,100.02L419.47,116.37L418.23,112.9L414.48,103.61L413.23,105.27L409.49,115.68L408.24,113.53L406.99,111.64L405.74,108.23L403.24,103.53L402,101.49L399.5,98.85L398.25,90.93L389.51,48.3L388.26,43.51L384.52,36.2L383.27,42.98L380.77,44.73L379.52,46.34L378.28,48.98L377.03,49.75L373.28,51.44L372.03,51.19L369.54,50.16L368.29,50.6L363.29,49.84L362.05,49.21L359.55,48.05L358.3,47.05L354.56,46.68L353.31,44.65L348.31,37.46L347.06,33.95L344.57,28.24L343.32,29.02L339.57,24.37L338.33,21.87L335.83,20.73L334.58,21.65L332.08,14.47L330.84,16.35L329.59,18.74L328.34,25.36L325.84,37.75L324.59,41.13L320.85,69.82L319.6,78.07L317.1,83.18L315.85,87.31L314.61,93.12L313.36,94.92L312.11,97.53L310.86,98.31L309.61,98.81L308.36,93.81L304.62,78.28L303.37,95.67L299.62,141.11L298.38,141.03L297.13,139.24L295.88,139.72L294.63,140.33L293.38,137.7L290.89,129.62L289.64,128.69L288.39,130.55L287.14,127.4L284.64,127.79L283.39,121.72L282.15,118.64L280.9,111.6L277.15,87.39L275.9,77.41L272.16,52.11L270.91,45.45L268.41,36.69L267.16,34.16L265.92,32.29L264.67,31.9L263.42,38.69L262.17,39.87L259.67,43.2L258.43,47.31L253.43,51.36L252.18,51.15L248.44,49.43L247.19,49.42L243.44,48.77L242.2,47.91L237.2,45.28L235.95,44.19L228.46,35.9L227.22,33.97L224.72,30.72L223.47,31.68L217.23,23.81L215.98,22.97L214.73,23.24L213.48,21.04L212.23,19.83L210.99,22.73L209.74,27.71L208.49,36.33L207.24,44.99L205.99,59.01L199.75,86.92L198.5,88.16L197.25,91.74L196,101.2L193.51,107.63L192.26,106.26L191.01,103.63L189.76,104.33L184.77,78.75L183.52,87.08L177.28,120.98L176.03,125.14L174.78,126.01L173.53,124.92L172.28,125.82L171.04,123.77L169.79,123.65L168.54,122.21L167.29,120.53L166.04,114.75L164.79,113.98L163.54,106.34L158.55,86.45L157.3,80.01L151.06,42.45L149.81,36.37L148.56,35.03L147.32,34.88L144.82,35.51L143.57,39.75L142.32,41.1L141.07,43.8L137.33,50.71L136.08,51.96L134.83,52.6L133.58,54.87L127.34,54.22L126.09,53.19L119.85,50.49L118.6,51.04L114.86,47.44L113.61,45.55L107.37,33.49L106.12,32.31L104.87,30.81L103.62,32.08L96.13,23.27L94.88,23.18L92.38,19.17L91.14,20.64L88.64,27.55L87.39,34.18L84.89,37.15L83.65,33.96L79.9,24.53L78.65,24.96L76.15,30L74.91,35.04L72.41,55.35L71.16,62.33L64.92,91.91L63.67,84.51L59.92,58.78L58.68,60L56.18,62.43L54.93,66.84L52.43,83.31L51.19,91.47L49.94,101.04L48.69,103.57L46.19,101.35L44.94,102.91L43.7,99.81L42.45,92.15L39.95,83.96L38.7,82.12L36.2,77.21L34.96,76.73L32.46,62.38L31.21,56.75L28.71,44.55L27.47,41.61L24.97,36.97L23.72,43.74L22.47,45.19L21.22,47.84L19.97,49.37L18.73,52.58L13.73,57.02L12.48,56.96L8.74,55.57L7.49,55.02L2.5,52.78L1.25,52.81L0,52.71Z" style="fill: rgb(87, 161, 206); fill-opacity: 0.5; stroke-width: 0;"/></g></g><g class="errorbars"/><g class="lines"><path class="js-line" d="M0,75.38L1.25,75.37L2.5,74.36L4.99,72.92L6.24,75.35L11.24,78.84L12.48,79.13L13.73,80.13L14.98,78.44L16.23,78.49L17.48,77.05L18.73,75.46L19.97,72.36L22.47,68.98L23.72,69.31L24.97,57.32L26.22,62.97L32.46,103.94L33.71,112.92L36.2,125.75L37.45,130.94L39.95,141.7L41.2,146.81L44.94,163.74L46.19,164.36L48.69,171.6L49.94,169.54L53.68,147.88L54.93,144.57L56.18,140.53L57.43,139.18L58.68,138.22L59.92,135.43L64.92,159.31L66.17,152.61L71.16,127.04L72.41,118.75L77.4,81.04L78.65,75.76L81.15,71.36L82.4,69.94L84.89,67.39L86.14,62.42L87.39,56.25L88.64,45.98L91.14,34.27L92.38,31.65L93.63,31.91L94.88,34.48L98.63,36.61L99.87,38.79L102.37,41.43L103.62,42.67L106.12,47.95L107.37,48.39L109.86,51.61L111.11,53.37L114.86,63.2L116.1,64.63L118.6,67.33L119.85,69.67L123.59,73.43L124.84,74.55L128.59,77.66L129.84,77.44L132.33,76.9L133.58,77.1L134.83,74.62L136.08,73.93L138.58,69.7L139.82,66.01L142.32,63.83L143.57,65.01L144.82,55.61L146.07,60.32L149.81,83.34L151.06,92.53L156.05,128.87L157.3,136.34L161.05,153.05L162.3,157.95L164.79,171.8L166.04,172.89L167.29,179.75L168.54,180.74L169.79,180.75L171.04,182L172.28,184.52L173.53,184.11L176.03,189.57L177.28,188.41L181.02,179.06L182.27,171.24L184.77,159.79L186.02,161.56L189.76,170.22L191.01,164.38L193.51,157.13L194.76,147.1L196,140.87L197.25,126L201,105.88L202.25,100.06L205.99,82.24L207.24,69.82L210.99,44.9L212.23,40.59L213.48,37.8L214.73,37.35L215.98,36.15L217.23,37.22L219.72,39.81L220.97,41.49L223.47,45.46L224.72,52.64L229.71,59.25L230.96,59.75L233.46,64.65L234.71,65.97L237.2,68.84L238.45,69.38L240.95,72.26L242.2,73.29L247.19,76.46L248.44,77.31L250.94,79.05L252.18,80.9L254.68,81.33L255.93,79.82L260.92,69.8L262.17,68.03L263.42,68.26L264.67,56.82L269.66,87.82L270.91,97.52L275.9,135.69L277.15,144.16L284.64,181.87L285.89,183.22L287.14,184.64L288.39,189.6L289.64,187.85L290.89,188.17L292.13,190L293.38,195.04L294.63,196.61L295.88,196.87L297.13,196.96L298.38,198.33L299.62,198.66L300.87,195.79L302.12,188.32L303.37,175.28L304.62,161.67L305.87,164.85L308.36,170.23L309.61,171.13L312.11,164.41L313.36,158.4L315.85,142.4L317.1,134.67L320.85,111.86L322.1,103.78L325.84,75.25L327.09,67.5L330.84,43.59L332.08,38.42L333.33,35.48L334.58,35.65L337.08,34.05L338.33,34.69L342.07,40.51L343.32,42.35L345.82,54.74L347.06,57.45L349.56,65.53L350.81,66.86L354.56,74.39L355.8,73.99L358.3,74.5L359.55,73.63L367.04,78.05L368.29,78.11L369.54,76.8L370.78,77.95L374.53,78.68L375.78,77.72L377.03,76.93L378.28,75.18L379.52,72.48L380.77,72.24L382.02,71.75L383.27,74.5L384.52,64.32L385.77,70.24L389.51,93.47L390.76,102.79L395.75,136.91L397,143.72L400.75,160.52L402,163.2L406.99,176.48L408.24,178.41L409.49,179.5L410.73,178.21L413.23,178.7L414.48,182.27L416.98,187.11L418.23,188.59L419.47,190.9L420.72,189.09L425.72,176.29L426.96,175.03L428.21,173.24L429.46,169.31L433.21,150.61L434.46,140.54L438.2,105.58L439.45,98.15L446.94,66.25L448.19,57.89L450.68,44.81L451.93,40.98L453.18,39.69L454.43,39.92L455.68,39.17L456.93,40.07L458.18,40.84L459.42,43.37L463.17,48.19L464.42,55.25L466.91,58.09L468.16,58.3L475.65,70.05L476.9,71.66L478.15,72.27L479.4,71.4L480.65,72.82L481.9,72.93L486.89,77.4L488.14,78.32L491.88,79.17L493.13,80.82L498.13,78.87L499.37,77.01L501.87,75.38L503.12,76.86L504.37,67.74L505.62,71.29L509.36,87.32L510.61,94.83L515.6,124.67L516.85,131.21L519.35,146.35L520.6,145.91L521.85,149.26L523.09,147.23L524.34,147.29L525.59,145.12L526.84,148.11L528.09,145.45L529.34,141.69L530.58,146.2L533.08,153.61L534.33,163.17L538.08,185.72L539.32,192.36L541.82,189.21L543.07,187.84L544.32,185.28L545.57,180.77L546.81,178.66L548.06,174.08L550.56,163.88L551.81,160.32L554.3,145.48L555.55,132.85L558.05,111.92L559.3,99.76L566.79,67.78L568.04,57.52L570.53,44.63L571.78,39.83L573.03,37.99L574.28,42.54L576.78,42.02L578.03,43.63L581.77,47.93L583.02,49.81L584.27,55.45L585.52,56.35L593.01,69.42L594.25,72.23L596.75,72.96L598,73.81L598,51.43L596.75,50.75L594.25,49.84L593.01,47.52L584.27,34.09L583.02,36.09L576.78,28.64L575.53,28.14L574.28,29.07L573.03,25.05L571.78,23.19L570.53,26.99L569.29,30.47L568.04,36.73L565.54,50.34L564.29,54.2L561.8,62.16L560.55,64.22L559.3,67.94L558.05,80.39L553.06,122.39L551.81,126.22L549.31,127.86L548.06,134.94L544.32,149.77L543.07,149.19L540.57,146.04L539.32,145.93L533.08,77.29L531.83,73.81L529.34,63.95L528.09,66.53L526.84,68.94L525.59,67.08L523.09,73.42L521.85,80.09L520.6,82.58L519.35,88.65L515.6,65.89L514.35,58.91L509.36,43.63L508.11,43.37L504.37,44.3L503.12,47.22L501.87,47.87L500.62,50.04L498.13,55.24L496.88,56.06L494.38,57.52L493.13,58.23L488.14,56.89L486.89,56.88L484.39,56.29L483.14,55.27L479.4,53.43L478.15,50.75L474.41,47.96L473.16,45.79L465.67,35.16L464.42,33.73L463.17,35.05L461.92,33.07L459.42,30.48L458.18,28.02L455.68,26L454.43,26.16L451.93,18.77L450.68,20.04L448.19,25.71L446.94,28.68L444.44,32.13L443.19,37.48L439.45,43.02L438.2,49.99L433.21,89.42L431.96,94.22L429.46,102.7L428.21,102.71L425.72,100.88L424.47,100.02L419.47,116.37L418.23,112.9L414.48,103.61L413.23,105.27L409.49,115.68L408.24,113.53L406.99,111.64L405.74,108.23L403.24,103.53L402,101.49L399.5,98.85L398.25,90.93L389.51,48.3L388.26,43.51L384.52,36.2L383.27,42.98L380.77,44.73L379.52,46.34L378.28,48.98L377.03,49.75L373.28,51.44L372.03,51.19L369.54,50.16L368.29,50.6L363.29,49.84L362.05,49.21L359.55,48.05L358.3,47.05L354.56,46.68L353.31,44.65L348.31,37.46L347.06,33.95L344.57,28.24L343.32,29.02L339.57,24.37L338.33,21.87L335.83,20.73L334.58,21.65L332.08,14.47L330.84,16.35L329.59,18.74L328.34,25.36L325.84,37.75L324.59,41.13L320.85,69.82L319.6,78.07L317.1,83.18L315.85,87.31L314.61,93.12L313.36,94.92L312.11,97.53L310.86,98.31L309.61,98.81L308.36,93.81L304.62,78.28L303.37,95.67L299.62,141.11L298.38,141.03L297.13,139.24L295.88,139.72L294.63,140.33L293.38,137.7L290.89,129.62L289.64,128.69L288.39,130.55L287.14,127.4L284.64,127.79L283.39,121.72L282.15,118.64L280.9,111.6L277.15,87.39L275.9,77.41L272.16,52.11L270.91,45.45L268.41,36.69L267.16,34.16L265.92,32.29L264.67,31.9L263.42,38.69L262.17,39.87L259.67,43.2L258.43,47.31L253.43,51.36L252.18,51.15L248.44,49.43L247.19,49.42L243.44,48.77L242.2,47.91L237.2,45.28L235.95,44.19L228.46,35.9L227.22,33.97L224.72,30.72L223.47,31.68L217.23,23.81L215.98,22.97L214.73,23.24L213.48,21.04L212.23,19.83L210.99,22.73L209.74,27.71L208.49,36.33L207.24,44.99L205.99,59.01L199.75,86.92L198.5,88.16L197.25,91.74L196,101.2L193.51,107.63L192.26,106.26L191.01,103.63L189.76,104.33L184.77,78.75L183.52,87.08L177.28,120.98L176.03,125.14L174.78,126.01L173.53,124.92L172.28,125.82L171.04,123.77L169.79,123.65L168.54,122.21L167.29,120.53L166.04,114.75L164.79,113.98L163.54,106.34L158.55,86.45L157.3,80.01L151.06,42.45L149.81,36.37L148.56,35.03L147.32,34.88L144.82,35.51L143.57,39.75L142.32,41.1L141.07,43.8L137.33,50.71L136.08,51.96L134.83,52.6L133.58,54.87L127.34,54.22L126.09,53.19L119.85,50.49L118.6,51.04L114.86,47.44L113.61,45.55L107.37,33.49L106.12,32.31L104.87,30.81L103.62,32.08L96.13,23.27L94.88,23.18L92.38,19.17L91.14,20.64L88.64,27.55L87.39,34.18L84.89,37.15L83.65,33.96L79.9,24.53L78.65,24.96L76.15,30L74.91,35.04L72.41,55.35L71.16,62.33L64.92,91.91L63.67,84.51L59.92,58.78L58.68,60L56.18,62.43L54.93,66.84L52.43,83.31L51.19,91.47L49.94,101.04L48.69,103.57L46.19,101.35L44.94,102.91L43.7,99.81L42.45,92.15L39.95,83.96L38.7,82.12L36.2,77.21L34.96,76.73L32.46,62.38L31.21,56.75L28.71,44.55L27.47,41.61L24.97,36.97L23.72,43.74L22.47,45.19L21.22,47.84L19.97,49.37L18.73,52.58L13.73,57.02L12.48,56.96L8.74,55.57L7.49,55.02L2.5,52.78L1.25,52.81L0,52.71" style="vector-effect: none; fill: none; stroke: rgb(68, 147, 199); stroke-opacity: 0.8; stroke-width: 1.5px; opacity: 1;"/></g><g class="points"/><g class="text"/></g><g class="trace scatter trace78d4b0" style="stroke-miterlimit: 2; opacity: 1;"><g class="fills"/><g class="errorbars"/><g class="lines"><path class="js-line" d="M0,75.38L1.25,75.37L2.5,74.36L4.99,72.92L6.24,75.35L11.24,78.84L12.48,79.13L13.73,80.13L14.98,78.44L16.23,78.49L17.48,77.05L18.73,75.46L19.97,72.36L22.47,68.98L23.72,69.31L24.97,57.32L26.22,62.97L32.46,103.94L33.71,112.92L36.2,125.75L37.45,130.94L39.95,141.7L41.2,146.81L44.94,163.74L46.19,164.36L48.69,171.6L49.94,169.54L53.68,147.88L54.93,144.57L56.18,140.53L57.43,139.18L58.68,138.22L59.92,135.43L64.92,159.31L66.17,152.61L71.16,127.04L72.41,118.75L77.4,81.04L78.65,75.76L81.15,71.36L82.4,69.94L84.89,67.39L86.14,62.42L87.39,56.25L88.64,45.98L91.14,34.27L92.38,31.65L93.63,31.91L94.88,34.48L98.63,36.61L99.87,38.79L102.37,41.43L103.62,42.67L106.12,47.95L107.37,48.39L109.86,51.61L111.11,53.37L114.86,63.2L116.1,64.63L118.6,67.33L119.85,69.67L123.59,73.43L124.84,74.55L128.59,77.66L129.84,77.44L132.33,76.9L133.58,77.1L134.83,74.62L136.08,73.93L138.58,69.7L139.82,66.01L142.32,63.83L143.57,65.01L144.82,55.61L146.07,60.32L149.81,83.34L151.06,92.53L156.05,128.87L157.3,136.34L161.05,153.05L162.3,157.95L164.79,171.8L166.04,172.89L167.29,179.75L168.54,180.74L169.79,180.75L171.04,182L172.28,184.52L173.53,184.11L176.03,189.57L177.28,188.41L181.02,179.06L182.27,171.24L184.77,159.79L186.02,161.56L189.76,170.22L191.01,164.38L193.51,157.13L194.76,147.1L196,140.87L197.25,126L201,105.88L202.25,100.06L205.99,82.24L207.24,69.82L210.99,44.9L212.23,40.59L213.48,37.8L214.73,37.35L215.98,36.15L217.23,37.22L219.72,39.81L220.97,41.49L223.47,45.46L224.72,52.64L229.71,59.25L230.96,59.75L233.46,64.65L234.71,65.97L237.2,68.84L238.45,69.38L240.95,72.26L242.2,73.29L247.19,76.46L248.44,77.31L250.94,79.05L252.18,80.9L254.68,81.33L255.93,79.82L260.92,69.8L262.17,68.03L263.42,68.26L264.67,56.82L269.66,87.82L270.91,97.52L275.9,135.69L277.15,144.16L284.64,181.87L285.89,183.22L287.14,184.64L288.39,189.6L289.64,187.85L290.89,188.17L292.13,190L293.38,195.04L294.63,196.61L295.88,196.87L297.13,196.96L298.38,198.33L299.62,198.66L300.87,195.79L302.12,188.32L303.37,175.28L304.62,161.67L305.87,164.85L308.36,170.23L309.61,171.13L312.11,164.41L313.36,158.4L315.85,142.4L317.1,134.67L320.85,111.86L322.1,103.78L325.84,75.25L327.09,67.5L330.84,43.59L332.08,38.42L333.33,35.48L334.58,35.65L337.08,34.05L338.33,34.69L342.07,40.51L343.32,42.35L345.82,54.74L347.06,57.45L349.56,65.53L350.81,66.86L354.56,74.39L355.8,73.99L358.3,74.5L359.55,73.63L367.04,78.05L368.29,78.11L369.54,76.8L370.78,77.95L374.53,78.68L375.78,77.72L377.03,76.93L378.28,75.18L379.52,72.48L380.77,72.24L382.02,71.75L383.27,74.5L384.52,64.32L385.77,70.24L389.51,93.47L390.76,102.79L395.75,136.91L397,143.72L400.75,160.52L402,163.2L406.99,176.48L408.24,178.41L409.49,179.5L410.73,178.21L413.23,178.7L414.48,182.27L416.98,187.11L418.23,188.59L419.47,190.9L420.72,189.09L425.72,176.29L426.96,175.03L428.21,173.24L429.46,169.31L433.21,150.61L434.46,140.54L438.2,105.58L439.45,98.15L446.94,66.25L448.19,57.89L450.68,44.81L451.93,40.98L453.18,39.69L454.43,39.92L455.68,39.17L456.93,40.07L458.18,40.84L459.42,43.37L463.17,48.19L464.42,55.25L466.91,58.09L468.16,58.3L475.65,70.05L476.9,71.66L478.15,72.27L479.4,71.4L480.65,72.82L481.9,72.93L486.89,77.4L488.14,78.32L491.88,79.17L493.13,80.82L498.13,78.87L499.37,77.01L501.87,75.38L503.12,76.86L504.37,67.74L505.62,71.29L509.36,87.32L510.61,94.83L515.6,124.67L516.85,131.21L519.35,146.35L520.6,145.91L521.85,149.26L523.09,147.23L524.34,147.29L525.59,145.12L526.84,148.11L528.09,145.45L529.34,141.69L530.58,146.2L533.08,153.61L534.33,163.17L538.08,185.72L539.32,192.36L541.82,189.21L543.07,187.84L544.32,185.28L545.57,180.77L546.81,178.66L548.06,174.08L550.56,163.88L551.81,160.32L554.3,145.48L555.55,132.85L558.05,111.92L559.3,99.76L566.79,67.78L568.04,57.52L570.53,44.63L571.78,39.83L573.03,37.99L574.28,42.54L576.78,42.02L578.03,43.63L581.77,47.93L583.02,49.81L584.27,55.45L585.52,56.35L593.01,69.42L594.25,72.23L596.75,72.96L598,73.81" style="vector-effect: none; fill: none; stroke: rgb(68, 147, 199); stroke-opacity: 0.8; stroke-width: 1.5px; opacity: 1;"/></g><g class="points"/><g class="text"/></g><g class="trace scatter trace05d9f5" style="stroke-miterlimit: 2; opacity: 1;"><g class="fills"/><g class="errorbars"/><g class="lines"><path class="js-line" d="M0,61.51L4.99,58.09L6.24,58.69L9.99,60.47L11.24,59.98L13.73,60.28L14.98,59L18.73,54.79L19.97,50.99L23.72,44.37L24.97,38.86L29.96,54.39L31.21,61.12L34.96,82.48L36.2,84.85L42.45,105.6L43.7,113.31L44.94,117.16L46.19,116.57L48.69,121.12L49.94,120.11L54.93,90.13L56.18,85.18L59.92,81.52L61.17,88.77L64.92,111.41L66.17,105.08L73.66,73.62L74.91,64.34L77.4,56L78.65,53.46L79.9,52.44L81.15,53.47L84.89,57.26L86.14,54.13L87.39,50.01L88.64,41.95L92.38,28.78L93.63,29.18L96.13,30.79L97.38,30.01L98.63,30.96L99.87,33.04L101.12,33.14L102.37,34.51L108.61,41.14L109.86,44.5L113.61,50.44L114.86,51.84L118.6,54.38L119.85,54.58L124.84,57.42L126.09,57.7L128.59,58.92L129.84,58.02L133.58,57.64L134.83,55.61L138.58,51L139.82,46.82L142.32,42.65L143.57,41.59L144.82,37.67L146.07,38.8L148.56,42.34L149.81,45.74L152.31,59.92L153.56,68.01L159.8,103.9L161.05,107.73L163.54,116.92L164.79,124.34L166.04,125.38L167.29,131.84L171.04,137.06L172.28,140.61L173.53,140.25L174.78,141.44L176.03,141.31L177.28,138.2L181.02,125.38L182.27,116.79L184.77,104.2L186.02,108.1L189.76,124.68L191.01,123.25L193.51,126.02L194.76,122.17L196,120.04L197.25,110.08L202.25,91.33L203.49,85.67L205.99,74.05L207.24,60.84L210.99,36.81L212.23,31.9L214.73,36.47L215.98,36.09L219.72,37.71L220.97,38.99L223.47,41.67L224.72,40.51L232.21,49.87L233.46,50.91L238.45,54.32L239.7,55.88L253.43,58.73L254.68,58.09L258.43,53L259.67,48.45L264.67,37.32L265.92,40.64L268.41,47.77L269.66,51.82L274.66,82.32L275.9,91.67L280.9,122.92L282.15,129.96L283.39,133.19L284.64,139.17L287.14,140.23L288.39,144.41L289.64,143.55L290.89,145.16L292.13,148.49L293.38,154.71L294.63,157.42L295.88,157.12L297.13,157.25L298.38,159.48L299.62,160.09L300.87,148.29L304.62,107.98L305.87,112L309.61,124.45L310.86,124.17L312.11,123.8L313.36,121.51L314.61,119.74L315.85,114.06L319.6,102.8L320.85,93.67L323.34,76.7L324.59,65.47L327.09,53.38L328.34,45.38L330.84,31.99L332.08,27.29L334.58,34.56L335.83,33.89L338.33,34.33L339.57,35.05L340.82,37.05L342.07,37.43L343.32,39.07L344.57,37.96L349.56,50.29L350.81,52.98L353.31,55.89L354.56,57.63L358.3,57.97L359.55,58.71L364.54,60.21L365.79,60.35L368.29,60.36L369.54,60.07L373.28,60.32L374.53,59.6L378.28,55.41L379.52,51.97L382.02,47.35L383.27,47.15L384.52,45.31L385.77,48.38L387.01,50.58L388.26,54.38L392.01,71.31L393.26,77.29L399.5,112.51L400.75,114.35L404.49,120.87L405.74,124.35L409.49,133.22L410.73,131.4L414.48,128.91L415.73,131.43L419.47,138.69L420.72,136.66L424.47,126.7L425.72,126.59L426.96,126.27L428.21,126.92L429.46,126.3L430.71,122.7L433.21,115.52L434.46,109.36L439.45,73.55L440.7,70.44L443.19,64.25L444.44,58.6L449.44,40.2L450.68,35.33L451.93,31.5L453.18,34.75L454.43,39.54L455.68,38.92L458.18,39.69L459.42,41.22L460.67,42.49L461.92,42.67L463.17,45.08L464.42,42.75L468.16,45.75L469.41,47.44L471.91,51.11L473.16,52.54L476.9,55.37L478.15,55.98L480.65,57.64L481.9,57.84L488.14,59.51L489.39,59.67L493.13,59.72L494.38,58.9L495.63,58.54L496.88,57.25L498.13,56.05L499.37,53.42L501.87,50.08L503.12,49.32L504.37,46.77L505.62,47.75L508.11,49.7L509.36,51.57L514.35,71.66L515.6,78.93L519.35,101.65L520.6,97.8L521.85,97.81L523.09,93.25L525.59,88.71L526.84,91.1L529.34,87.14L530.58,92.22L533.08,102.16L534.33,111.4L539.32,156.95L540.57,156.68L544.32,158.24L545.57,153.76L548.06,146.53L549.31,140.83L551.81,139.46L553.06,136.08L554.3,130.85L555.55,119.32L560.55,84.13L561.8,80.7L566.79,61.27L568.04,51.83L570.53,40.07L571.78,35.46L573.03,37.72L574.28,37.91L576.78,36.67L578.03,38.21L583.02,44.39L584.27,43.73L594.25,57.76L595.5,58.19L598,58.37" style="vector-effect: none; fill: none; stroke: rgb(0, 0, 255); stroke-opacity: 1; stroke-width: 1.5px; opacity: 1;"/></g><g class="points"/><g class="text"/></g><g class="trace scatter tracec7f257" style="stroke-miterlimit: 2; opacity: 1;"><g class="fills"/><g class="errorbars"/><g class="lines"><path class="js-line" d="M0,59.34L1.25,60.01L2.5,58.34L7.49,58.68L8.74,57.34L9.99,58.01L11.24,57.67L13.73,58.34L14.98,60.01L16.23,59.68L17.48,57.67L19.97,56.34L21.22,54L26.22,47.64L27.47,48.31L28.71,51.32L29.96,59.34L32.46,82.08L33.71,75.73L34.96,93.11L36.2,80.74L37.45,87.1L38.7,76.73L41.2,111.84L42.45,107.83L43.7,96.79L44.94,109.16L46.19,104.48L47.44,92.78L48.69,103.15L49.94,75.06L51.19,88.43L52.43,79.07L54.93,105.15L56.18,63.69L57.43,68.71L58.68,67.37L59.92,53.33L61.17,65.36L62.42,57.67L63.67,60.35L64.92,63.02L66.17,42.29L67.42,31.59L68.66,36.94L69.91,38.61L71.16,30.26L72.41,34.94L73.66,50.32L74.91,47.64L76.15,48.98L77.4,58.34L78.65,32.93L79.9,20.23L81.15,19.56L83.65,72.72L84.89,48.31L86.14,59.68L87.39,37.61L89.89,23.9L91.14,27.58L92.38,26.58L93.63,27.58L94.88,28.92L96.13,25.91L98.63,27.92L99.87,26.91L101.12,30.92L102.37,30.26L103.62,31.26L104.87,30.59L107.37,32.6L108.61,36.94L109.86,37.95L111.11,43.96L114.86,48.31L116.1,49.65L117.35,50.99L118.6,49.98L119.85,50.32L121.1,51.65L123.59,54.66L124.84,54.66L128.59,53.66L129.84,51.99L132.33,54.33L133.58,53.33L136.08,54.33L137.33,54.33L138.58,54L139.82,51.65L143.57,43.63L144.82,38.28L147.32,32.26L148.56,32.93L149.81,35.94L151.06,60.35L152.31,64.36L153.56,82.08L156.05,65.7L157.3,91.78L159.8,101.47L161.05,123.88L163.54,107.83L164.79,142.6L166.04,164.33L167.29,144.94L168.54,141.6L169.79,146.95L171.04,134.91L172.28,143.27L173.53,156.98L174.78,125.88L176.03,109.5L177.28,142.26L178.53,160.32L179.77,118.86L181.02,71.05L182.27,116.85L183.52,153.63L184.77,117.52L187.27,68.37L188.51,70.38L189.76,68.37L191.01,114.85L192.26,108.49L193.51,144.94L194.76,147.28L196,133.57L197.25,144.27L198.5,134.57L201,87.76L202.25,82.08L203.49,83.08L204.74,66.7L207.24,62.02L208.49,58.68L210.99,33.6L212.23,30.59L214.73,27.25L215.98,28.92L217.23,30.26L218.48,33.6L220.97,39.62L222.22,37.61L224.72,40.62L225.97,41.62L229.71,41.96L230.96,43.3L233.46,49.65L234.71,48.31L238.45,50.99L239.7,52.99L240.95,50.32L242.2,51.99L247.19,54L248.44,52.66L249.69,52.32L250.94,53.33L252.18,55L253.43,54.66L254.68,55L255.93,53.66L258.43,54L259.67,50.99L262.17,50.32L263.42,47.31L265.92,43.63L267.16,41.62L268.41,36.27L269.66,36.94L270.91,40.29L272.16,78.07L273.41,74.73L274.66,87.76L277.15,105.49L278.4,101.14L279.65,99.47L280.9,106.49L282.15,137.25L283.39,149.29L284.64,160.99L285.89,156.64L287.14,111.17L288.39,111.84L289.64,167.01L290.89,170.68L292.13,171.69L293.38,187.74L294.63,186.06L295.88,122.2L297.13,98.46L298.38,91.78L300.87,196.1L302.12,128.89L303.37,126.55L304.62,161.99L305.87,158.31L307.11,146.61L308.36,172.69L309.61,169.68L310.86,129.89L312.11,138.25L313.36,135.58L314.61,144.61L317.1,87.43L318.35,87.76L319.6,50.65L320.85,40.96L322.1,41.62L323.34,43.3L324.59,40.96L325.84,28.25L327.09,20.89L328.34,22.9L329.59,25.24L330.84,23.9L332.08,24.57L333.33,22.9L334.58,24.57L335.83,24.91L337.08,25.24L338.33,27.58L339.57,27.25L340.82,31.59L344.57,38.28L345.82,39.62L347.06,39.95L348.31,41.96L350.81,47.98L352.06,48.98L354.56,52.66L355.8,55L358.3,51.32L359.55,52.99L360.8,55L362.05,54.33L363.29,52.66L364.54,54L365.79,52.99L367.04,50.99L368.29,53.66L369.54,53.33L373.28,49.65L374.53,49.65L375.78,50.99L377.03,50.99L378.28,50.99L379.52,47.31L382.02,45.64L383.27,43.63L384.52,42.29L385.77,46.31L392.01,72.05L393.26,80.07L394.51,91.11L395.75,91.78L398.25,120.2L399.5,107.49L400.75,95.46L402,144.27L403.24,137.25L404.49,101.47L405.74,142.93L406.99,139.92L408.24,142.6L409.49,163.33L410.73,101.47L411.98,128.22L413.23,155.3L414.48,134.57L415.73,119.53L416.98,178.37L418.23,191.08L419.47,162.33L420.72,101.14L421.97,111.5L424.47,149.62L425.72,122.2L428.21,156.31L429.46,154.64L431.96,115.52L433.21,101.81L434.46,103.15L435.7,77.07L436.95,61.02L438.2,60.01L439.45,62.35L440.7,48.31L443.19,33.93L444.44,36.61L446.94,33.6L448.19,37.28L450.68,32.93L451.93,30.26L453.18,32.26L454.43,32.26L456.93,28.25L458.18,29.92L459.42,34.27L460.67,33.27L465.67,41.29L466.91,41.62L468.16,41.29L469.41,41.96L473.16,48.31L474.41,49.31L475.65,49.98L476.9,49.65L481.9,55L483.14,54L485.64,56.34L486.89,56L488.14,54.66L489.39,54.66L490.63,52.99L491.88,54L494.38,54.66L495.63,52.66L496.88,52.32L498.13,52.99L499.37,51.99L500.62,49.65L504.37,41.62L505.62,43.96L509.36,50.32L510.61,50.65L513.11,46.97L514.35,55.33L515.6,51.99L516.85,69.71L518.1,74.06L519.35,83.75L520.6,84.76L521.85,70.04L523.09,75.73L524.34,72.72L525.59,61.35L526.84,58.68L529.34,162.99L530.58,131.23L531.83,38.95L533.08,49.65L535.58,162.66L536.83,130.56L538.08,177.04L539.32,176.03L540.57,139.26L541.82,126.22L543.07,186.4L544.32,151.96L545.57,137.25L546.81,144.27L548.06,132.23L549.31,130.9L550.56,125.21L551.81,141.6L553.06,126.55L554.3,132.57L555.55,91.11L556.8,79.41L558.05,72.38L559.3,41.96L560.55,66.7L561.8,65.03L564.29,25.24L565.54,28.92L566.79,44.3L568.04,70.04L570.53,31.26L571.78,28.92L574.28,30.26L575.53,29.25L578.03,32.6L579.27,34.94L584.27,40.96L585.52,40.96L586.76,39.95L588.01,40.29L589.26,40.62L590.51,44.3L593.01,43.96L594.25,46.97L596.75,51.99L598,51.99" style="vector-effect: none; fill: none; stroke: rgb(255, 0, 0); stroke-opacity: 1; stroke-width: 1.5px; opacity: 1;"/></g><g class="points"/><g class="text"/></g></g></g></g><g class="zerolinelayer-above"/><path class="xlines-above crisp" d="M0,0" style="fill: none;"/><path class="ylines-above crisp" d="M0,0" style="fill: none;"/><g class="overlines-above"/><g class="xaxislayer-above"><g class="xtick"><text text-anchor="middle" x="0" y="333" transform="translate(80,0)" style="font-family: 'Open Sans', verdana, arial, sans-serif; font-size: 12px; fill: rgb(42, 63, 95); fill-opacity: 1; white-space: pre;"><tspan class="line" dy="0em" x="0" y="333">Apr 15</tspan><tspan class="line" dy="1.3em" x="0" y="333">2024</tspan></text></g><g class="xtick"><text text-anchor="middle" x="0" y="333" style="font-family: 'Open Sans', verdana, arial, sans-serif; font-size: 12px; fill: rgb(42, 63, 95); fill-opacity: 1; white-space: pre;" transform="translate(199.85,0)">Apr 16</text></g><g class="xtick"><text text-anchor="middle" x="0" y="333" style="font-family: 'Open Sans', verdana, arial, sans-serif; font-size: 12px; fill: rgb(42, 63, 95); fill-opacity: 1; white-space: pre;" transform="translate(319.7,0)">Apr 17</text></g><g class="xtick"><text text-anchor="middle" x="0" y="333" style="font-family: 'Open Sans', verdana, arial, sans-serif; font-size: 12px; fill: rgb(42, 63, 95); fill-opacity: 1; white-space: pre;" transform="translate(439.55,0)">Apr 18</text></g><g class="xtick"><text text-anchor="middle" x="0" y="333" style="font-family: 'Open Sans', verdana, arial, sans-serif; font-size: 12px; fill: rgb(42, 63, 95); fill-opacity: 1; white-space: pre;" transform="translate(559.4,0)">Apr 19</text></g></g><g class="yaxislayer-above"><g class="ytick"><text text-anchor="end" x="79" y="4.199999999999999" transform="translate(0,287.07)" style="font-family: 'Open Sans', verdana, arial, sans-serif; font-size: 12px; fill: rgb(42, 63, 95); fill-opacity: 1; white-space: pre;">−1M</text></g><g class="ytick"><text text-anchor="end" x="79" y="4.199999999999999" style="font-family: 'Open Sans', verdana, arial, sans-serif; font-size: 12px; fill: rgb(42, 63, 95); fill-opacity: 1; white-space: pre;" transform="translate(0,236.91)">−0.5M</text></g><g class="ytick"><text text-anchor="end" x="79" y="4.199999999999999" style="font-family: 'Open Sans', verdana, arial, sans-serif; font-size: 12px; fill: rgb(42, 63, 95); fill-opacity: 1; white-space: pre;" transform="translate(0,186.76)">0</text></g><g class="ytick"><text text-anchor="end" x="79" y="4.199999999999999" style="font-family: 'Open Sans', verdana, arial, sans-serif; font-size: 12px; fill: rgb(42, 63, 95); fill-opacity: 1; white-space: pre;" transform="translate(0,136.61)">0.5M</text></g></g><g class="overaxes-above"/></g></g><g class="polarlayer"/><g class="smithlayer"/><g class="ternarylayer"/><g class="geolayer"/><g class="funnelarealayer"/><g class="pielayer"/><g class="iciclelayer"/><g class="treemaplayer"/><g class="sunburstlayer"/><g class="glimages"/><defs id="topdefs-a55cd1"><g class="clips"/><clipPath id="legenda55cd1"><rect width="198" height="145" x="0" y="0"/></clipPath></defs><g class="layer-above"><g class="imagelayer"/><g class="shapelayer"/></g><g class="infolayer"><g class="legend" pointer-events="all" transform="translate(689.96,100)"><rect class="bg" shape-rendering="crispEdges" style="stroke: rgb(68, 68, 68); stroke-opacity: 1; fill: rgb(255, 255, 255); fill-opacity: 1; stroke-width: 0px;" width="198" height="145" x="0" y="0"/><g class="scrollbox" transform="" clip-path="url(#legenda55cd1)"><g class="groups" transform=""><g class="traces" transform="translate(0,14.5)" style="opacity: 1;"><text class="legendtext" text-anchor="start" x="40" y="4.680000000000001" style="font-family: 'Open Sans', verdana, arial, sans-serif; font-size: 12px; fill: rgb(42, 63, 95); fill-opacity: 1; white-space: pre;">GBLinear 5%-95%</text><g class="layers" style="opacity: 1;"><g class="legendfill"><path class="js-fill" d="M5,-2h30v6h-30z" style="stroke-width: 0; fill: rgb(195, 218, 238); fill-opacity: 0.5;"/></g><g class="legendlines"><path class="js-line" d="M5,-2h30" style="fill: none; stroke: rgb(176, 209, 231); stroke-opacity: 0.8; stroke-width: 1.5px;"/></g><g class="legendsymbols"><g class="legendpoints"/></g></g><rect class="legendtoggle" x="0" y="-9.5" width="192.09375" height="19" style="fill: rgb(0, 0, 0); fill-opacity: 0;"/></g></g><g class="groups" transform="translate(0,10)"><g class="traces" transform="translate(0,33.5)" style="opacity: 1;"><text class="legendtext" text-anchor="start" x="40" y="4.680000000000001" style="font-family: 'Open Sans', verdana, arial, sans-serif; font-size: 12px; fill: rgb(42, 63, 95); fill-opacity: 1; white-space: pre;">GBLinear 10%-90%</text><g class="layers" style="opacity: 1;"><g class="legendfill"><path class="js-fill" d="M5,-2h30v6h-30z" style="stroke-width: 0; fill: rgb(176, 209, 231); fill-opacity: 0.5;"/></g><g class="legendlines"><path class="js-line" d="M5,-2h30" style="fill: none; stroke: rgb(156, 201, 225); stroke-opacity: 0.8; stroke-width: 1.5px;"/></g><g class="legendsymbols"><g class="legendpoints"/></g></g><rect class="legendtoggle" x="0" y="-9.5" width="192.09375" height="19" style="fill: rgb(0, 0, 0); fill-opacity: 0;"/></g></g><g class="groups" transform="translate(0,20)"><g class="traces" transform="translate(0,52.5)" style="opacity: 1;"><text class="legendtext" text-anchor="start" x="40" y="4.680000000000001" style="font-family: 'Open Sans', verdana, arial, sans-serif; font-size: 12px; fill: rgb(42, 63, 95); fill-opacity: 1; white-space: pre;">GBLinear 30%-70%</text><g class="layers" style="opacity: 1;"><g class="legendfill"><path class="js-fill" d="M5,-2h30v6h-30z" style="stroke-width: 0; fill: rgb(87, 161, 206); fill-opacity: 0.5;"/></g><g class="legendlines"><path class="js-line" d="M5,-2h30" style="fill: none; stroke: rgb(68, 147, 199); stroke-opacity: 0.8; stroke-width: 1.5px;"/></g><g class="legendsymbols"><g class="legendpoints"/></g></g><rect class="legendtoggle" x="0" y="-9.5" width="192.09375" height="19" style="fill: rgb(0, 0, 0); fill-opacity: 0;"/></g></g><g class="groups" transform="translate(0,30)"><g class="traces" transform="translate(0,71.5)" style="opacity: 1;"><text class="legendtext" text-anchor="start" x="40" y="4.680000000000001" style="font-family: 'Open Sans', verdana, arial, sans-serif; font-size: 12px; fill: rgb(42, 63, 95); fill-opacity: 1; white-space: pre;">GBLinear Forecast (50th)</text><g class="layers" style="opacity: 1;"><g class="legendfill"/><g class="legendlines"><path class="js-line" d="M5,0h30" style="fill: none; stroke: rgb(0, 0, 255); stroke-opacity: 1; stroke-width: 1.5px;"/></g><g class="legendsymbols"><g class="legendpoints"/></g></g><rect class="legendtoggle" x="0" y="-9.5" width="192.09375" height="19" style="fill: rgb(0, 0, 0); fill-opacity: 0;"/></g></g><g class="groups" transform="translate(0,40)"><g class="traces" transform="translate(0,90.5)" style="opacity: 1;"><text class="legendtext" text-anchor="start" x="40" y="4.680000000000001" style="font-family: 'Open Sans', verdana, arial, sans-serif; font-size: 12px; fill: rgb(42, 63, 95); fill-opacity: 1; white-space: pre;">Realized</text><g class="layers" style="opacity: 1;"><g class="legendfill"/><g class="legendlines"><path class="js-line" d="M5,0h30" style="fill: none; stroke: rgb(255, 0, 0); stroke-opacity: 1; stroke-width: 1.5px;"/></g><g class="legendsymbols"><g class="legendpoints"/></g></g><rect class="legendtoggle" x="0" y="-9.5" width="192.09375" height="19" style="fill: rgb(0, 0, 0); fill-opacity: 0;"/></g></g></g><rect class="scrollbar" rx="20" ry="3" width="0" height="0" style="fill: rgb(128, 139, 164); fill-opacity: 1;" x="0" y="0"/></g><g class="g-gtitle"><text class="gtitle" x="45" y="50" text-anchor="start" dy="0em" style="opacity: 1; font-family: 'Open Sans', verdana, arial, sans-serif; font-size: 17px; fill: rgb(42, 63, 95); fill-opacity: 1; white-space: pre;">Probabilistic forecast: median plus seven quantile bands</text></g><g class="g-xtitle"><text class="xtitle" x="379" y="375.899609375" text-anchor="middle" style="opacity: 1; font-family: 'Open Sans', verdana, arial, sans-serif; font-size: 14px; fill: rgb(42, 63, 95); fill-opacity: 1; white-space: pre;">Time</text></g><g class="g-ytitle"><text class="ytitle" transform="rotate(-90,20.0375,210)" x="20.0375" y="210" text-anchor="middle" style="opacity: 1; font-family: 'Open Sans', verdana, arial, sans-serif; font-size: 14px; fill: rgb(42, 63, 95); fill-opacity: 1; white-space: pre;">Load (MW)</text></g></g></svg>