<svg class="main-svg" xmlns="http://www.w3.org/2000/svg" xmlns:xlink="http://www.w3.org/1999/xlink" width="900" height="400" style="" viewBox="0 0 900 400"><rect x="0" y="0" width="900" height="400" style="fill: rgb(255, 255, 255); fill-opacity: 1;"/><defs id="defs-3c143d"><g class="clips"><clipPath id="clip3c143dxyplot" class="plotclip"><rect width="598" height="220"/></clipPath><clipPath class="axesclip" id="clip3c143dx"><rect x="80" y="0" width="598" height="400"/></clipPath><clipPath class="axesclip" id="clip3c143dy"><rect x="0" y="100" width="900" height="220"/></clipPath><clipPath class="axesclip" id="clip3c143dxy"><rect x="80" y="100" width="598" height="220"/></clipPath></g><g class="gradients"/><g class="patterns"/></defs><g class="bglayer"/><g class="layer-below"><g class="imagelayer"/><g class="shapelayer"/></g><g class="cartesianlayer"><g class="subplot xy"><g class="layer-subplot"><g class="shapelayer"/><g class="imagelayer"/></g><g class="minor-gridlayer"><g class="x"/><g class="y"/></g><g class="gridlayer"><g class="x"><path class="xgrid crisp" transform="translate(165.56,0)" d="M0,100v220" style="stroke: rgb(235, 240, 248); stroke-opacity: 1; stroke-width: 1px;"/><path class="xgrid crisp" transform="translate(251.11,0)" d="M0,100v220" style="stroke: rgb(235, 240, 248); stroke-opacity: 1; stroke-width: 1px;"/><path class="xgrid crisp" transform="translate(336.67,0)" d="M0,100v220" style="stroke: rgb(235, 240, 248); stroke-opacity: 1; stroke-width: 1px;"/><path class="xgrid crisp" transform="translate(422.22,0)" d="M0,100v220" style="stroke: rgb(235, 240, 248); stroke-opacity: 1; stroke-width: 1px;"/><path class="xgrid crisp" transform="translate(507.78,0)" d="M0,100v220" style="stroke: rgb(235, 240, 248); stroke-opacity: 1; stroke-width: 1px;"/><path class="xgrid crisp" transform="translate(593.34,0)" d="M0,100v220" style="stroke: rgb(235, 240, 248); stroke-opacity: 1; stroke-width: 1px;"/></g><g class="y"><path class="ygrid crisp" transform="translate(0,287.68)" d="M80,0h598" style="stroke: rgb(235, 240, 248); stroke-opacity: 1; stroke-width: 1px;"/><path class="ygrid crisp" transform="translate(0,236.51)" d="M80,0h598" style="stroke: rgb(235, 240, 248); stroke-opacity: 1; stroke-width: 1px;"/><path class="ygrid crisp" transform="translate(0,134.18)" d="M80,0h598" style="stroke: rgb(235, 240, 248); stroke-opacity: 1; stroke-width: 1px;"/></g></g><g class="zerolinelayer"><path class="yzl zl crisp" transform="translate(0,185.35)" d="M80,0h598" style="stroke: rgb(235, 240, 248); stroke-opacity: 1; stroke-width: 2px;"/></g><g class="layer-between"><g class="shapelayer"/><g class="imagelayer"/></g><path class="xlines-below"/><path class="ylines-below"/><g class="overlines-below"/><g class="xaxislayer-below"/><g class="yaxislayer-below"/><g class="overaxes-below"/><g class="overplot"><g class="xy" transform="translate(80,100)" clip-path="url(#clip3c143dxyplot)"><g class="scatterlayer mlayer"><g class="trace scatter tracea1f95c" style="stroke-miterlimit: 2; opacity: 1;"><g class="fills"><g><path class="js-fill" d="M0,57.12L4.46,58.26L5.35,58.69L8.02,59.81L8.91,59.89L9.8,60.18L10.69,58.89L12.48,57.32L13.37,56.31L16.04,49.63L16.93,48.83L17.82,41.6L18.72,47.14L22.28,74.97L23.17,83.83L25.85,107.07L26.74,112.04L30.3,135.6L31.19,143.84L32.97,150.4L33.87,152.6L34.76,155.09L35.65,155.17L39.21,110.86L40.1,107.92L42.78,102.69L43.67,113.62L46.34,146.85L47.23,139.23L51.69,100.31L52.58,90.4L54.36,71.71L55.25,67.33L57.04,61.86L57.93,63.77L60.6,70.25L61.49,65.94L65.95,33.3L66.84,31.29L68.62,32.46L69.51,32.45L72.19,35.59L73.08,37.21L78.43,46.9L79.32,48.81L82.88,55.25L83.77,56L84.66,56.96L85.56,56.74L89.12,59.01L90.01,59.36L91.79,60.46L92.69,59.71L95.36,59.53L96.25,57.45L98.03,55.26L98.92,54.2L100.71,49.28L101.6,47.75L102.49,47.45L103.38,43.06L105.16,47.28L106.05,50.23L106.94,54.46L107.84,63.41L114.07,132.48L114.97,137.48L119.42,161.42L120.31,163.63L124.77,172.8L125.66,172.51L127.44,167.69L128.33,164.99L131.9,129.71L132.79,135.9L135.46,155.86L136.35,154.74L137.25,154.6L138.14,153.53L139.92,142.48L140.81,133.07L144.38,109.2L145.27,101.46L147.05,85.92L147.94,69.75L150.61,41.05L151.51,35.3L152.4,32.88L153.29,33.13L154.18,32.26L155.07,32.6L156.85,34.02L157.74,35.31L166.66,50.71L167.55,51.67L170.22,53.98L171.11,54.31L177.35,57.12L178.24,57.45L180.92,58.87L181.81,58.45L184.48,54.6L185.37,51.05L188.04,47.15L188.94,40.99L192.5,61.21L193.39,69.7L202.3,160.55L203.2,167.38L208.54,184.04L209.43,189.26L211.22,195.16L212.11,196.79L213.89,201.72L214.78,184.27L217.45,128.57L218.35,134.43L221.02,150.32L221.91,149.16L222.8,147.58L223.69,144.22L224.58,140.77L225.48,133.29L229.04,107.94L229.93,98.89L234.39,50.95L235.28,41.91L237.06,29.97L237.95,28.38L238.84,30.73L239.73,29.94L240.63,29.58L241.52,30.16L248.65,42.8L249.54,43.99L253.99,51.32L254.89,52.61L257.56,55.12L258.45,55.56L261.12,56.65L262.01,56.64L264.69,56.24L265.58,56.66L267.36,56.36L268.25,55.79L270.04,53.93L270.93,51.36L272.71,49.07L273.6,49.53L274.49,44.26L275.38,49.47L278.06,67.53L278.95,76.03L286.08,139.22L286.97,142.1L289.64,153.91L290.53,159.28L292.32,167.06L293.21,164.87L295.88,161.4L296.77,164.33L299.45,171.61L300.34,168.99L303.9,157.66L304.79,157.13L305.68,156.66L306.58,155.08L309.25,140.83L310.14,133.29L313.7,86.14L314.6,81.66L317.27,65.3L318.16,59.96L320.83,41.61L321.73,36.05L323.51,31.16L324.4,33.44L325.29,32.72L326.18,33.36L327.07,33.65L327.96,35.56L332.42,42.06L333.31,43.31L335.09,46.39L335.99,48.08L340.44,54.78L341.33,55.4L343.11,57.8L344.01,57.95L347.57,60.18L348.46,60.48L352.03,61.55L352.92,60.92L353.81,60.9L354.7,60.02L355.59,59.34L356.48,57.66L359.16,55L360.05,51.52L363.61,63.01L364.5,69.43L368.07,98.36L368.96,107.95L370.74,127.99L371.63,123.85L373.42,116.63L374.31,113.44L377.87,104.29L378.76,111.76L381.44,137.35L382.33,152.73L385,195.58L385.89,194.88L387.68,194.79L388.57,194.11L393.02,167.79L393.91,165.75L395.7,155.28L396.59,141.46L400.15,98.45L401.04,94.13L404.61,69.43L405.5,57.67L408.17,37.23L409.06,35.74L409.96,36.97L410.85,35.8L411.74,35.52L412.63,36.61L414.41,38.49L415.3,39.7L425.11,56.17L426,56.55L431.34,59.98L432.24,60.31L434.91,60.41L435.8,60.12L437.58,60.36L438.47,59.53L440.26,59.38L441.15,58.46L442.93,56.25L443.82,55.66L445.6,57.07L446.49,61.45L449.17,76.42L450.06,84.97L455.41,126.82L456.3,132.51L459.86,147.32L460.75,141.33L463.43,123.24L464.32,137.16L467.88,182.6L468.77,183.85L470.56,185.18L471.45,184.42L474.12,183.56L475.01,175.91L478.58,151.54L479.47,147.04L481.25,135.57L482.14,127.94L485.71,103.7L486.6,99.59L488.38,90.63L489.27,81.66L493.73,39.34L494.62,37.68L496.4,34.56L497.29,34.43L499.08,34.46L499.97,35.51L501.75,38.61L502.64,39.74L510.66,53.76L511.55,54.66L514.23,56.86L515.12,57.59L516.9,59.1L517.79,58.73L519.57,58.96L520.46,58.33L530.27,52.26L531.16,53.32L544.53,163.78L545.42,169.78L548.09,186.43L548.98,190.5L549.87,190.94L550.77,192.24L552.55,193.44L553.44,198.08L556.11,209L557,201.27L559.68,175.94L560.57,178.1L563.24,181.36L564.13,181.95L565.03,182.57L565.92,181.53L566.81,177.09L567.7,166.96L571.26,130.35L572.15,123.17L575.72,89.35L576.61,71.64L579.28,46.54L580.18,42.11L581.96,36.22L582.85,35.06L584.63,35.74L585.52,36.88L591.76,47.52L592.65,49.86L594.44,52.06L595.33,54.16L598,56.11L598,48.61L593.54,44.73L592.65,44.72L588.2,37.73L587.31,35.48L583.74,27.96L582.85,27.84L581.07,29.33L580.18,33.12L577.5,40.85L576.61,45.27L573.94,60.84L573.05,66.11L570.37,76.44L569.48,83.51L565.92,104.4L565.03,104.52L559.68,89.93L558.79,96.51L556.11,117.3L555.22,115.04L553.44,110.93L552.55,107.15L551.66,108.29L550.77,108.19L549.87,107.94L548.98,108.57L546.31,103.13L545.42,97.01L542.75,90.06L541.85,87.61L535.62,59.5L534.72,55.92L531.16,46.74L530.27,46.75L527.59,49.04L526.7,49.98L522.25,52.3L521.36,51.94L519.57,51.79L518.68,51.77L516.01,51.34L515.12,50.54L511.55,48.24L510.66,47.21L509.77,46.56L508.88,44.49L506.21,39.33L505.31,37.28L502.64,31.24L501.75,29.22L499.08,23.67L498.18,23.47L496.4,22.26L495.51,23L492.84,26.26L491.95,27.63L487.49,48.12L486.6,48.53L484.82,50.93L483.93,54.36L480.36,71.43L479.47,72.05L478.58,73.7L477.69,72.77L474.12,86.37L473.23,86.7L472.34,86.95L471.45,86.16L468.77,87.79L467.88,87.27L466.99,85.11L466.1,76.31L463.43,53.31L462.54,58.01L459.86,71.92L458.97,71.31L457.19,70.52L456.3,70.24L451.84,58.85L450.95,55.34L448.28,48.33L447.39,47.81L445.6,46.4L444.71,47.21L439.37,52.03L438.47,52.3L436.69,53.05L435.8,52.67L433.13,53.22L432.24,52.97L430.45,52.25L429.56,51.58L427.78,49.94L426.89,48.78L424.21,46.95L423.32,45.19L417.08,32.95L416.19,33.58L411.74,25.62L410.85,25.17L409.96,26.55L409.06,21.56L408.17,21.16L407.28,24.44L406.39,25.63L405.5,28.86L403.72,36.3L402.83,38.3L401.04,43.22L400.15,44.01L399.26,46.14L398.37,54.05L394.8,81.8L393.91,84.85L392.13,85.92L391.24,90.39L388.57,99.24L387.68,98.48L385,94.91L384.11,85.66L380.55,51.74L379.65,50.38L377.87,45.34L376.98,47.06L376.09,48.53L375.2,46.62L373.42,50.73L372.52,55.15L371.63,56.26L370.74,60.18L367.18,43.73L366.29,42.05L363.61,36.65L362.72,37.52L360.05,41.46L359.16,45.17L356.48,49.69L355.59,51.13L352.03,54.12L351.14,53.97L348.46,53.44L347.57,53.45L345.79,52.97L344.9,52.22L342.22,50.82L341.33,48.06L338.66,45.46L337.77,43.96L331.53,32.6L330.64,32.87L327.07,25.41L326.18,24.89L325.29,23.52L324.4,23.9L322.62,15.72L321.73,17.99L319.05,23.25L318.16,23.58L317.27,24.39L316.38,27.05L313.7,28.56L312.81,31.86L308.36,60.87L307.47,63.81L306.58,66.6L305.68,66.33L303.9,64.73L303.01,63.9L299.45,74.7L298.55,72.16L295.88,65.38L294.99,66.73L292.32,74.01L291.42,73.28L290.53,72.72L289.64,70.89L286.97,67.62L286.08,67.02L285.19,66.43L284.3,61.48L278.95,40.2L278.06,37.94L276.27,35.15L275.38,35.17L274.49,34.1L273.6,39.47L270.93,43.41L270.04,45.31L266.47,48.16L265.58,48.09L263.8,47.52L262.91,47.81L259.34,47.59L258.45,47.1L256.67,46.12L255.78,45.1L253.1,44.37L252.21,42.64L248.65,36.11L247.76,33.06L244.19,25.47L243.3,24.59L240.63,17.93L239.73,18.04L238.84,19.33L237.95,11.81L237.06,11L236.17,14.46L231.71,29.24L230.82,35.96L228.15,50.64L227.26,51.5L225.48,56.21L224.58,60.53L221.91,64.79L221.02,65.2L217.45,53.67L216.56,63.7L213.89,88.94L213,89.34L212.11,88.27L211.22,88.88L210.32,89.83L209.43,88.58L207.65,83.19L206.76,82.96L205.87,85.05L204.98,83.19L203.2,84.78L202.3,80.86L201.41,79.32L200.52,74.57L196.96,53.7L196.07,47.62L193.39,35.52L192.5,32.48L189.83,31.11L188.94,31.03L187.15,38.31L186.26,39.97L182.7,47.02L181.81,47.98L180.02,48.47L179.13,48.07L175.57,47.15L174.68,47.25L168.44,43.53L167.55,42.33L164.87,38.38L163.98,36.97L161.31,31.45L160.42,29.13L159.53,28.42L158.63,26.62L155.96,20.97L155.07,19.91L154.18,19.28L153.29,19.65L152.4,15.95L151.51,17.18L145.27,47.01L144.38,50.06L142.59,57.23L141.7,57.09L140.81,59.25L139.92,66L139.03,67.23L138.14,70.13L137.25,69.3L136.35,67.22L135.46,67.87L134.57,63.45L131.9,52.17L131.01,56.84L125.66,81.7L124.77,82.34L123.88,82.01L122.99,82.78L122.1,81.15L121.2,81.24L119.42,79.46L118.53,75.35L117.64,75.21L116.75,70.18L112.29,54.66L111.4,49.22L106.94,30.98L106.05,30.81L103.38,34.11L102.49,38.55L99.82,43.1L98.92,45.87L96.25,48.73L95.36,50.38L91.79,50.76L90.9,50.45L87.34,48.3L86.45,48.09L85.56,47.53L84.66,48.98L81.99,46.13L81.1,44.71L74.86,30.86L73.97,30.16L68.62,19.56L67.73,19.73L66.84,15.43L65.95,16.8L64.17,22.24L63.28,23.21L62.38,26.82L61.49,27.14L60.6,27.45L59.71,25.95L57.93,22.06L57.04,19.86L56.15,19.91L55.25,21.98L53.47,28.33L52.58,35.59L49.91,47.72L49.02,50.58L46.34,60.26L45.45,56.65L42.78,42.69L41.89,43.6L40.1,44.33L39.21,47.4L37.43,56.18L36.54,60.06L34.76,67.42L33.87,66.34L32.97,66.19L32.08,67.79L31.19,66.34L30.3,61.17L28.52,56.96L27.63,56.58L25.85,53.85L24.95,54.18L22.28,44.42L21.39,41.18L19.61,37.92L18.72,36.83L17.82,35.96L16.93,42.38L14.26,47.36L13.37,49.75L8.91,53.79L8.02,53.6L7.13,53.73L6.24,53.1L0,51.08Z" style="fill: rgb(176, 209, 231); fill-opacity: 0.5; stroke-width: 0;"/></g></g><g class="errorbars"/><g class="lines"><path class="js-line" d="M0,57.12L4.46,58.26L5.35,58.69L8.02,59.81L8.91,59.89L9.8,60.18L10.69,58.89L12.48,57.32L13.37,56.31L16.04,49.63L16.93,48.83L17.82,41.6L18.72,47.14L22.28,74.97L23.17,83.83L25.85,107.07L26.74,112.04L30.3,135.6L31.19,143.84L32.97,150.4L33.87,152.6L34.76,155.09L35.65,155.17L39.21,110.86L40.1,107.92L42.78,102.69L43.67,113.62L46.34,146.85L47.23,139.23L51.69,100.31L52.58,90.4L54.36,71.71L55.25,67.33L57.04,61.86L57.93,63.77L60.6,70.25L61.49,65.94L65.95,33.3L66.84,31.29L68.62,32.46L69.51,32.45L72.19,35.59L73.08,37.21L78.43,46.9L79.32,48.81L82.88,55.25L83.77,56L84.66,56.96L85.56,56.74L89.12,59.01L90.01,59.36L91.79,60.46L92.69,59.71L95.36,59.53L96.25,57.45L98.03,55.26L98.92,54.2L100.71,49.28L101.6,47.75L102.49,47.45L103.38,43.06L105.16,47.28L106.05,50.23L106.94,54.46L107.84,63.41L114.07,132.48L114.97,137.48L119.42,161.42L120.31,163.63L124.77,172.8L125.66,172.51L127.44,167.69L128.33,164.99L131.9,129.71L132.79,135.9L135.46,155.86L136.35,154.74L137.25,154.6L138.14,153.53L139.92,142.48L140.81,133.07L144.38,109.2L145.27,101.46L147.05,85.92L147.94,69.75L150.61,41.05L151.51,35.3L152.4,32.88L153.29,33.13L154.18,32.26L155.07,32.6L156.85,34.02L157.74,35.31L166.66,50.71L167.55,51.67L170.22,53.98L171.11,54.31L177.35,57.12L178.24,57.45L180.92,58.87L181.81,58.45L184.48,54.6L185.37,51.05L188.04,47.15L188.94,40.99L192.5,61.21L193.39,69.7L202.3,160.55L203.2,167.38L208.54,184.04L209.43,189.26L211.22,195.16L212.11,196.79L213.89,201.72L214.78,184.27L217.45,128.57L218.35,134.43L221.02,150.32L221.91,149.16L222.8,147.58L223.69,144.22L224.58,140.77L225.48,133.29L229.04,107.94L229.93,98.89L234.39,50.95L235.28,41.91L237.06,29.97L237.95,28.38L238.84,30.73L239.73,29.94L240.63,29.58L241.52,30.16L248.65,42.8L249.54,43.99L253.99,51.32L254.89,52.61L257.56,55.12L258.45,55.56L261.12,56.65L262.01,56.64L264.69,56.24L265.58,56.66L267.36,56.36L268.25,55.79L270.04,53.93L270.93,51.36L272.71,49.07L273.6,49.53L274.49,44.26L275.38,49.47L278.06,67.53L278.95,76.03L286.08,139.22L286.97,142.1L289.64,153.91L290.53,159.28L292.32,167.06L293.21,164.87L295.88,161.4L296.77,164.33L299.45,171.61L300.34,168.99L303.9,157.66L304.79,157.13L305.68,156.66L306.58,155.08L309.25,140.83L310.14,133.29L313.7,86.14L314.6,81.66L317.27,65.3L318.16,59.96L320.83,41.61L321.73,36.05L323.51,31.16L324.4,33.44L325.29,32.72L326.18,33.36L327.07,33.65L327.96,35.56L332.42,42.06L333.31,43.31L335.09,46.39L335.99,48.08L340.44,54.78L341.33,55.4L343.11,57.8L344.01,57.95L347.57,60.18L348.46,60.48L352.03,61.55L352.92,60.92L353.81,60.9L354.7,60.02L355.59,59.34L356.48,57.66L359.16,55L360.05,51.52L363.61,63.01L364.5,69.43L368.07,98.36L368.96,107.95L370.74,127.99L371.63,123.85L373.42,116.63L374.31,113.44L377.87,104.29L378.76,111.76L381.44,137.35L382.33,152.73L385,195.58L385.89,194.88L387.68,194.79L388.57,194.11L393.02,167.79L393.91,165.75L395.7,155.28L396.59,141.46L400.15,98.45L401.04,94.13L404.61,69.43L405.5,57.67L408.17,37.23L409.06,35.74L409.96,36.97L410.85,35.8L411.74,35.52L412.63,36.61L414.41,38.49L415.3,39.7L425.11,56.17L426,56.55L431.34,59.98L432.24,60.31L434.91,60.41L435.8,60.12L437.58,60.36L438.47,59.53L440.26,59.38L441.15,58.46L442.93,56.25L443.82,55.66L445.6,57.07L446.49,61.45L449.17,76.42L450.06,84.97L455.41,126.82L456.3,132.51L459.86,147.32L460.75,141.33L463.43,123.24L464.32,137.16L467.88,182.6L468.77,183.85L470.56,185.18L471.45,184.42L474.12,183.56L475.01,175.91L478.58,151.54L479.47,147.04L481.25,135.57L482.14,127.94L485.71,103.7L486.6,99.59L488.38,90.63L489.27,81.66L493.73,39.34L494.62,37.68L496.4,34.56L497.29,34.43L499.08,34.46L499.97,35.51L501.75,38.61L502.64,39.74L510.66,53.76L511.55,54.66L514.23,56.86L515.12,57.59L516.9,59.1L517.79,58.73L519.57,58.96L520.46,58.33L530.27,52.26L531.16,53.32L544.53,163.78L545.42,169.78L548.09,186.43L548.98,190.5L549.87,190.94L550.77,192.24L552.55,193.44L553.44,198.08L556.11,209L557,201.27L559.68,175.94L560.57,178.1L563.24,181.36L564.13,181.95L565.03,182.57L565.92,181.53L566.81,177.09L567.7,166.96L571.26,130.35L572.15,123.17L575.72,89.35L576.61,71.64L579.28,46.54L580.18,42.11L581.96,36.22L582.85,35.06L584.63,35.74L585.52,36.88L591.76,47.52L592.65,49.86L594.44,52.06L595.33,54.16L598,56.11L598,48.61L593.54,44.73L592.65,44.72L588.2,37.73L587.31,35.48L583.74,27.96L582.85,27.84L581.07,29.33L580.18,33.12L577.5,40.85L576.61,45.27L573.94,60.84L573.05,66.11L570.37,76.44L569.48,83.51L565.92,104.4L565.03,104.52L559.68,89.93L558.79,96.51L556.11,117.3L555.22,115.04L553.44,110.93L552.55,107.15L551.66,108.29L550.77,108.19L549.87,107.94L548.98,108.57L546.31,103.13L545.42,97.01L542.75,90.06L541.85,87.61L535.62,59.5L534.72,55.92L531.16,46.74L530.27,46.75L527.59,49.04L526.7,49.98L522.25,52.3L521.36,51.94L519.57,51.79L518.68,51.77L516.01,51.34L515.12,50.54L511.55,48.24L510.66,47.21L509.77,46.56L508.88,44.49L506.21,39.33L505.31,37.28L502.64,31.24L501.75,29.22L499.08,23.67L498.18,23.47L496.4,22.26L495.51,23L492.84,26.26L491.95,27.63L487.49,48.12L486.6,48.53L484.82,50.93L483.93,54.36L480.36,71.43L479.47,72.05L478.58,73.7L477.69,72.77L474.12,86.37L473.23,86.7L472.34,86.95L471.45,86.16L468.77,87.79L467.88,87.27L466.99,85.11L466.1,76.31L463.43,53.31L462.54,58.01L459.86,71.92L458.97,71.31L457.19,70.52L456.3,70.24L451.84,58.85L450.95,55.34L448.28,48.33L447.39,47.81L445.6,46.4L444.71,47.21L439.37,52.03L438.47,52.3L436.69,53.05L435.8,52.67L433.13,53.22L432.24,52.97L430.45,52.25L429.56,51.58L427.78,49.94L426.89,48.78L424.21,46.95L423.32,45.19L417.08,32.95L416.19,33.58L411.74,25.62L410.85,25.17L409.96,26.55L409.06,21.56L408.17,21.16L407.28,24.44L406.39,25.63L405.5,28.86L403.72,36.3L402.83,38.3L401.04,43.22L400.15,44.01L399.26,46.14L398.37,54.05L394.8,81.8L393.91,84.85L392.13,85.92L391.24,90.39L388.57,99.24L387.68,98.48L385,94.91L384.11,85.66L380.55,51.74L379.65,50.38L377.87,45.34L376.98,47.06L376.09,48.53L375.2,46.62L373.42,50.73L372.52,55.15L371.63,56.26L370.74,60.18L367.18,43.73L366.29,42.05L363.61,36.65L362.72,37.52L360.05,41.46L359.16,45.17L356.48,49.69L355.59,51.13L352.03,54.12L351.14,53.97L348.46,53.44L347.57,53.45L345.79,52.97L344.9,52.22L342.22,50.82L341.33,48.06L338.66,45.46L337.77,43.96L331.53,32.6L330.64,32.87L327.07,25.41L326.18,24.89L325.29,23.52L324.4,23.9L322.62,15.72L321.73,17.99L319.05,23.25L318.16,23.58L317.27,24.39L316.38,27.05L313.7,28.56L312.81,31.86L308.36,60.87L307.47,63.81L306.58,66.6L305.68,66.33L303.9,64.73L303.01,63.9L299.45,74.7L298.55,72.16L295.88,65.38L294.99,66.73L292.32,74.01L291.42,73.28L290.53,72.72L289.64,70.89L286.97,67.62L286.08,67.02L285.19,66.43L284.3,61.48L278.95,40.2L278.06,37.94L276.27,35.15L275.38,35.17L274.49,34.1L273.6,39.47L270.93,43.41L270.04,45.31L266.47,48.16L265.58,48.09L263.8,47.52L262.91,47.81L259.34,47.59L258.45,47.1L256.67,46.12L255.78,45.1L253.1,44.37L252.21,42.64L248.65,36.11L247.76,33.06L244.19,25.47L243.3,24.59L240.63,17.93L239.73,18.04L238.84,19.33L237.95,11.81L237.06,11L236.17,14.46L231.71,29.24L230.82,35.96L228.15,50.64L227.26,51.5L225.48,56.21L224.58,60.53L221.91,64.79L221.02,65.2L217.45,53.67L216.56,63.7L213.89,88.94L213,89.34L212.11,88.27L211.22,88.88L210.32,89.83L209.43,88.58L207.65,83.19L206.76,82.96L205.87,85.05L204.98,83.19L203.2,84.78L202.3,80.86L201.41,79.32L200.52,74.57L196.96,53.7L196.07,47.62L193.39,35.52L192.5,32.48L189.83,31.11L188.94,31.03L187.15,38.31L186.26,39.97L182.7,47.02L181.81,47.98L180.02,48.47L179.13,48.07L175.57,47.15L174.68,47.25L168.44,43.53L167.55,42.33L164.87,38.38L163.98,36.97L161.31,31.45L160.42,29.13L159.53,28.42L158.63,26.62L155.96,20.97L155.07,19.91L154.18,19.28L153.29,19.65L152.4,15.95L151.51,17.18L145.27,47.01L144.38,50.06L142.59,57.23L141.7,57.09L140.81,59.25L139.92,66L139.03,67.23L138.14,70.13L137.25,69.3L136.35,67.22L135.46,67.87L134.57,63.45L131.9,52.17L131.01,56.84L125.66,81.7L124.77,82.34L123.88,82.01L122.99,82.78L122.1,81.15L121.2,81.24L119.42,79.46L118.53,75.35L117.64,75.21L116.75,70.18L112.29,54.66L111.4,49.22L106.94,30.98L106.05,30.81L103.38,34.11L102.49,38.55L99.82,43.1L98.92,45.87L96.25,48.73L95.36,50.38L91.79,50.76L90.9,50.45L87.34,48.3L86.45,48.09L85.56,47.53L84.66,48.98L81.99,46.13L81.1,44.71L74.86,30.86L73.97,30.16L68.62,19.56L67.73,19.73L66.84,15.43L65.95,16.8L64.17,22.24L63.28,23.21L62.38,26.82L61.49,27.14L60.6,27.45L59.71,25.95L57.93,22.06L57.04,19.86L56.15,19.91L55.25,21.98L53.47,28.33L52.58,35.59L49.91,47.72L49.02,50.58L46.34,60.26L45.45,56.65L42.78,42.69L41.89,43.6L40.1,44.33L39.21,47.4L37.43,56.18L36.54,60.06L34.76,67.42L33.87,66.34L32.97,66.19L32.08,67.79L31.19,66.34L30.3,61.17L28.52,56.96L27.63,56.58L25.85,53.85L24.95,54.18L22.28,44.42L21.39,41.18L19.61,37.92L18.72,36.83L17.82,35.96L16.93,42.38L14.26,47.36L13.37,49.75L8.91,53.79L8.02,53.6L7.13,53.73L6.24,53.1L0,51.08" style="vector-effect: none; fill: none; stroke: rgb(156, 201, 225); stroke-opacity: 0.8; stroke-width: 1.5px; opacity: 1;"/></g><g class="points"/><g class="text"/></g><g class="trace scatter tracec713b5" style="stroke-miterlimit: 2; opacity: 1;"><g class="fills"/><g class="errorbars"/><g class="lines"><path class="js-line" d="M0,57.12L4.46,58.26L5.35,58.69L8.02,59.81L8.91,59.89L9.8,60.18L10.69,58.89L12.48,57.32L13.37,56.31L16.04,49.63L16.93,48.83L17.82,41.6L18.72,47.14L22.28,74.97L23.17,83.83L25.85,107.07L26.74,112.04L30.3,135.6L31.19,143.84L32.97,150.4L33.87,152.6L34.76,155.09L35.65,155.17L39.21,110.86L40.1,107.92L42.78,102.69L43.67,113.62L46.34,146.85L47.23,139.23L51.69,100.31L52.58,90.4L54.36,71.71L55.25,67.33L57.04,61.86L57.93,63.77L60.6,70.25L61.49,65.94L65.95,33.3L66.84,31.29L68.62,32.46L69.51,32.45L72.19,35.59L73.08,37.21L78.43,46.9L79.32,48.81L82.88,55.25L83.77,56L84.66,56.96L85.56,56.74L89.12,59.01L90.01,59.36L91.79,60.46L92.69,59.71L95.36,59.53L96.25,57.45L98.03,55.26L98.92,54.2L100.71,49.28L101.6,47.75L102.49,47.45L103.38,43.06L105.16,47.28L106.05,50.23L106.94,54.46L107.84,63.41L114.07,132.48L114.97,137.48L119.42,161.42L120.31,163.63L124.77,172.8L125.66,172.51L127.44,167.69L128.33,164.99L131.9,129.71L132.79,135.9L135.46,155.86L136.35,154.74L137.25,154.6L138.14,153.53L139.92,142.48L140.81,133.07L144.38,109.2L145.27,101.46L147.05,85.92L147.94,69.75L150.61,41.05L151.51,35.3L152.4,32.88L153.29,33.13L154.18,32.26L155.07,32.6L156.85,34.02L157.74,35.31L166.66,50.71L167.55,51.67L170.22,53.98L171.11,54.31L177.35,57.12L178.24,57.45L180.92,58.87L181.81,58.45L184.48,54.6L185.37,51.05L188.04,47.15L188.94,40.99L192.5,61.21L193.39,69.7L202.3,160.55L203.2,167.38L208.54,184.04L209.43,189.26L211.22,195.16L212.11,196.79L213.89,201.72L214.78,184.27L217.45,128.57L218.35,134.43L221.02,150.32L221.91,149.16L222.8,147.58L223.69,144.22L224.58,140.77L225.48,133.29L229.04,107.94L229.93,98.89L234.39,50.95L235.28,41.91L237.06,29.97L237.95,28.38L238.84,30.73L239.73,29.94L240.63,29.58L241.52,30.16L248.65,42.8L249.54,43.99L253.99,51.32L254.89,52.61L257.56,55.12L258.45,55.56L261.12,56.65L262.01,56.64L264.69,56.24L265.58,56.66L267.36,56.36L268.25,55.79L270.04,53.93L270.93,51.36L272.71,49.07L273.6,49.53L274.49,44.26L275.38,49.47L278.06,67.53L278.95,76.03L286.08,139.22L286.97,142.1L289.64,153.91L290.53,159.28L292.32,167.06L293.21,164.87L295.88,161.4L296.77,164.33L299.45,171.61L300.34,168.99L303.9,157.66L304.79,157.13L305.68,156.66L306.58,155.08L309.25,140.83L310.14,133.29L313.7,86.14L314.6,81.66L317.27,65.3L318.16,59.96L320.83,41.61L321.73,36.05L323.51,31.16L324.4,33.44L325.29,32.72L326.18,33.36L327.07,33.65L327.96,35.56L332.42,42.06L333.31,43.31L335.09,46.39L335.99,48.08L340.44,54.78L341.33,55.4L343.11,57.8L344.01,57.95L347.57,60.18L348.46,60.48L352.03,61.55L352.92,60.92L353.81,60.9L354.7,60.02L355.59,59.34L356.48,57.66L359.16,55L360.05,51.52L363.61,63.01L364.5,69.43L368.07,98.36L368.96,107.95L370.74,127.99L371.63,123.85L373.42,116.63L374.31,113.44L377.87,104.29L378.76,111.76L381.44,137.35L382.33,152.73L385,195.58L385.89,194.88L387.68,194.79L388.57,194.11L393.02,167.79L393.91,165.75L395.7,155.28L396.59,141.46L400.15,98.45L401.04,94.13L404.61,69.43L405.5,57.67L408.17,37.23L409.06,35.74L409.96,36.97L410.85,35.8L411.74,35.52L412.63,36.61L414.41,38.49L415.3,39.7L425.11,56.17L426,56.55L431.34,59.98L432.24,60.31L434.91,60.41L435.8,60.12L437.58,60.36L438.47,59.53L440.26,59.38L441.15,58.46L442.93,56.25L443.82,55.66L445.6,57.07L446.49,61.45L449.17,76.42L450.06,84.97L455.41,126.82L456.3,132.51L459.86,147.32L460.75,141.33L463.43,123.24L464.32,137.16L467.88,182.6L468.77,183.85L470.56,185.18L471.45,184.42L474.12,183.56L475.01,175.91L478.58,151.54L479.47,147.04L481.25,135.57L482.14,127.94L485.71,103.7L486.6,99.59L488.38,90.63L489.27,81.66L493.73,39.34L494.62,37.68L496.4,34.56L497.29,34.43L499.08,34.46L499.97,35.51L501.75,38.61L502.64,39.74L510.66,53.76L511.55,54.66L514.23,56.86L515.12,57.59L516.9,59.1L517.79,58.73L519.57,58.96L520.46,58.33L530.27,52.26L531.16,53.32L544.53,163.78L545.42,169.78L548.09,186.43L548.98,190.5L549.87,190.94L550.77,192.24L552.55,193.44L553.44,198.08L556.11,209L557,201.27L559.68,175.94L560.57,178.1L563.24,181.36L564.13,181.95L565.03,182.57L565.92,181.53L566.81,177.09L567.7,166.96L571.26,130.35L572.15,123.17L575.72,89.35L576.61,71.64L579.28,46.54L580.18,42.11L581.96,36.22L582.85,35.06L584.63,35.74L585.52,36.88L591.76,47.52L592.65,49.86L594.44,52.06L595.33,54.16L598,56.11" style="vector-effect: none; fill: none; stroke: rgb(156, 201, 225); stroke-opacity: 0.8; stroke-width: 1.5px; opacity: 1;"/></g><g class="points"/><g class="text"/></g><g class="trace scatter traceab6570" style="stroke-miterlimit: 2; opacity: 1;"><g class="fills"/><g class="errorbars"/><g class="lines"><path class="js-line" d="M0,55.47L6.24,58.8L7.13,59.79L9.8,59.66L10.69,58.15L12.48,56.41L13.37,55.27L15.15,50.73L16.04,48.81L16.93,47.27L17.82,36.42L21.39,53.03L22.28,59.93L24.95,82.08L25.85,82.28L28.52,89.04L29.41,93.92L32.08,111.78L32.97,110.49L33.87,110.8L34.76,112.13L35.65,109.66L36.54,97.36L40.1,60.53L41,58.67L42.78,55.85L43.67,66.85L46.34,99.95L47.23,91.98L52.58,44.88L53.47,30.89L55.25,22.16L56.15,20.53L57.04,20.73L57.93,23.96L60.6,38.05L61.49,36.82L62.38,35L63.28,28.24L65.95,19.07L66.84,19.34L67.73,22.74L68.62,22.81L73.97,31.84L74.86,31.62L77.54,36.86L78.43,41.26L83.77,53.25L84.66,54.4L86.45,54.7L87.34,54.72L91.79,58.23L92.69,57.45L95.36,57.96L96.25,55.46L98.92,53.09L99.82,49.5L102.49,45.38L103.38,38.6L106.05,36.13L106.94,36.8L110.51,67.92L111.4,76.15L114.97,107.41L115.86,113.03L119.42,134.92L120.31,137.22L121.2,139.39L122.1,139.28L122.99,140.9L123.88,140.31L124.77,141.43L125.66,139.79L128.33,122.62L129.23,114.39L131.9,82.76L132.79,90.17L135.46,115.75L136.35,116.01L138.14,120.77L139.03,116.81L139.92,112.67L140.81,102.55L143.48,89.86L144.38,82.94L147.05,62.72L147.94,46.97L150.61,21.68L151.51,19.09L152.4,19.35L153.29,22.01L154.18,21.77L155.07,22.64L157.74,26.55L158.63,28.59L164.87,39.56L165.76,41.95L171.11,50.66L172,51.22L175.57,53L176.46,53.13L178.24,53.4L179.13,53.96L180.92,54.58L181.81,53.98L184.48,50.3L185.37,46.16L188.04,42.2L188.94,32.87L191.61,38.07L192.5,40.43L196.07,70.41L196.96,82.12L201.41,131.78L202.3,136.24L203.2,143.58L204.09,144.22L204.98,144.43L205.87,147.43L206.76,146.23L207.65,147.8L210.32,159.44L211.22,159.04L212.11,158.87L213,160.83L213.89,161.32L214.78,142.46L217.45,81.37L218.35,88.16L221.02,107.78L221.91,107.3L222.8,106.46L223.69,103.74L224.58,101.66L225.48,94.98L227.26,87.26L228.15,84.93L232.61,39.53L233.5,33.37L236.17,15.94L237.06,14.27L237.95,15.58L238.84,20.16L239.73,19.41L240.63,19.69L242.41,22.89L243.3,25.13L245.97,28.09L246.86,31.66L253.1,49.27L253.99,49.27L256.67,50.74L257.56,51.62L262.01,53.06L262.91,53L263.8,52.45L264.69,52.91L266.47,53.73L267.36,53.4L270.04,51.51L270.93,48.93L273.6,45.31L274.49,36.3L278.06,50.14L278.95,55.63L282.51,83.48L283.4,91.54L286.08,109.93L286.97,111.43L289.64,119.96L290.53,124.29L292.32,129.98L293.21,124.87L295.88,113.04L296.77,117.38L299.45,128.57L300.34,124.53L303.01,108.87L303.9,109.98L304.79,110.58L305.68,112.37L306.58,112.65L307.47,108.13L310.14,89.15L311.03,74.91L313.7,42.42L314.6,40.75L316.38,36.6L317.27,30.7L319.94,24.47L320.83,20.64L322.62,17.75L323.51,19.46L324.4,23.92L325.29,23.81L327.96,28.45L328.86,29.94L333.31,36.91L334.2,38.69L338.66,50.78L339.55,51.6L343.11,57.43L344.01,57.78L347.57,60.01L348.46,59.95L351.14,60.79L352.03,61.03L355.59,57.89L356.48,56.28L359.16,52.32L360.05,46.62L363.61,44.82L364.5,48.92L367.18,59.95L368.07,68.43L370.74,96.23L371.63,88.49L375.2,67.38L376.09,67.83L377.87,61.31L378.76,67.29L381.44,90.84L382.33,110.76L385,165.89L385.89,166.37L388.57,171.76L389.46,164.62L391.24,152.18L392.13,143.31L393.91,141.42L394.8,136.92L395.7,129.34L396.59,113.57L400.15,68.57L401.04,66.17L404.61,46.81L405.5,36.58L407.28,25.94L408.17,22.16L409.06,23.18L409.96,27.21L410.85,26.38L411.74,26.95L416.19,34.17L417.08,33.27L419.76,38.56L420.65,41.41L424.21,50.95L425.11,51.7L427.78,53.85L428.67,55.62L431.34,58.84L432.24,58.68L434.02,58.78L434.91,58.16L435.8,57.97L436.69,58.6L440.26,57.51L441.15,56.71L443.82,53.91L444.71,52.81L445.6,51.53L446.49,53.88L449.17,61.32L450.06,69.17L455.41,104.01L456.3,109.16L458.97,114.28L459.86,116.14L463.43,78.36L464.32,94.14L467.88,148.37L468.77,149.59L469.67,150.13L470.56,149.74L472.34,147.68L473.23,146.87L474.12,145.61L475.01,136.92L477.69,113.66L478.58,114.22L480.36,110.07L481.25,104.43L484.82,78.02L485.71,75.12L487.49,72.63L488.38,68.74L492.84,26.3L493.73,25.89L495.51,26.06L496.4,25.48L499.08,26.88L499.97,28.25L504.42,36L505.31,37.91L507.99,43.7L508.88,45.92L510.66,50.01L511.55,51.57L512.44,52.83L513.34,52.68L522.25,57.07L523.14,56.5L524.92,54.47L525.81,54.36L529.38,51.27L530.27,52.04L531.16,52.47L532.05,58.35L536.51,87.57L537.4,94.96L542.75,141.73L543.64,145.75L548.98,178.83L549.87,177.92L551.66,177.94L552.55,176.1L555.22,190.94L556.11,195.32L559.68,145.21L560.57,149.9L565.03,167.2L565.92,168.65L566.81,165.32L567.7,154.01L571.26,115.1L572.15,108.26L574.83,83.78L575.72,75.52L577.5,49.73L578.39,42.7L581.07,30.62L581.96,29.91L583.74,30.07L584.63,31.28L587.31,35.89L588.2,38.19L592.65,46.76L593.54,46.5L595.33,48.09L596.22,49.28L598,51.73" style="vector-effect: none; fill: none; stroke: rgb(0, 0, 255); stroke-opacity: 1; stroke-width: 1.5px; opacity: 1;"/></g><g class="points"/><g class="text"/></g><g class="trace scatter trace27d907" style="stroke-miterlimit: 2; opacity: 1;"><g class="fills"/><g class="errorbars"/><g class="lines"><path class="js-line" d="M0,57.38L0.89,58.06L1.78,56.36L5.35,56.7L6.24,55.33L7.13,56.01L8.02,55.67L9.8,56.36L10.69,58.06L11.59,57.72L12.48,55.67L14.26,54.31L15.15,51.92L18.72,45.44L19.61,46.12L20.5,49.19L21.39,57.38L23.17,80.57L24.06,74.09L24.95,91.83L25.85,79.21L26.74,85.69L27.63,75.12L29.41,110.93L30.3,106.84L31.19,95.58L32.08,108.2L32.97,103.43L33.87,91.49L34.76,102.06L35.65,73.41L36.54,87.05L37.43,77.5L39.21,104.11L40.1,61.81L41,66.93L41.89,65.56L42.78,51.24L43.67,63.52L44.56,55.67L45.45,58.4L46.34,61.13L47.23,39.98L48.13,29.07L49.02,34.52L49.91,36.23L50.8,27.7L51.69,32.48L52.58,48.17L53.47,45.44L54.36,46.8L55.25,56.36L56.15,30.43L57.04,17.47L57.93,16.79L59.71,71.02L60.6,46.12L61.49,57.72L62.38,35.21L64.17,21.22L65.06,24.97L65.95,23.95L66.84,24.97L67.73,26.34L68.62,23.27L70.41,25.31L71.3,24.29L72.19,28.38L73.08,27.7L73.97,28.73L74.86,28.04L76.64,30.09L77.54,34.52L78.43,35.55L79.32,41.69L82.88,47.49L83.77,48.85L84.66,47.83L85.56,48.17L89.12,52.6L90.01,52.26L91.79,51.58L92.69,49.87L94.47,52.26L95.36,51.24L97.14,52.26L98.03,52.26L98.92,51.92L99.82,49.53L102.49,41.35L103.38,35.89L105.16,29.75L106.05,30.43L106.94,33.5L107.84,58.4L108.73,62.49L109.62,80.57L111.4,63.86L112.29,90.47L114.07,100.36L114.97,123.21L116.75,106.84L117.64,142.31L118.53,164.48L119.42,144.7L120.31,141.29L121.2,146.75L122.1,134.47L122.99,142.99L123.88,156.98L124.77,125.26L125.66,108.54L126.55,141.97L127.44,160.39L128.33,118.09L129.23,69.32L130.12,116.05L131.01,153.57L131.9,116.73L133.68,66.59L134.57,68.63L135.46,66.59L136.35,114L137.25,107.52L138.14,144.7L139.03,147.09L139.92,133.1L140.81,144.02L141.7,134.13L143.48,86.37L144.38,80.57L145.27,81.6L146.16,64.88L147.94,60.11L148.83,56.7L150.61,31.11L151.51,28.04L153.29,24.63L154.18,26.34L155.07,27.7L155.96,31.11L157.74,37.25L158.63,35.21L160.42,38.28L161.31,39.3L163.98,39.64L164.87,41.01L166.66,47.49L167.55,46.12L171.11,50.9L172,48.17L173.79,50.22L174.68,51.24L176.46,51.92L177.35,50.56L178.24,50.22L179.13,51.24L180.02,52.94L180.92,52.6L181.81,52.94L182.7,51.58L184.48,51.92L185.37,48.85L187.15,48.17L188.04,45.1L189.83,41.35L190.72,39.3L191.61,33.84L192.5,34.52L193.39,37.94L194.28,76.48L195.17,73.07L196.07,86.37L197.85,104.45L198.74,100.02L199.63,98.31L200.52,105.47L202.3,149.13L203.2,161.07L204.09,156.64L204.98,110.25L205.87,110.93L206.76,167.21L208.54,171.99L209.43,188.36L210.32,186.66L211.22,121.51L213,90.47L213.89,149.82L214.78,196.89L215.67,128.33L216.56,125.94L217.45,162.1L218.35,158.34L219.24,146.41L220.13,173.01L221.02,169.94L221.91,129.35L222.8,137.88L223.69,135.15L224.58,144.36L226.37,86.03L227.26,86.37L229.04,38.62L229.93,39.3L230.82,41.01L231.71,38.62L233.5,18.15L234.39,20.2L235.28,22.59L236.17,21.22L237.06,21.9L237.95,20.2L239.73,22.24L240.63,22.59L241.52,24.97L242.41,24.63L244.19,31.8L245.08,33.5L246.86,37.25L247.76,37.59L249.54,43.05L250.43,45.78L252.21,48.17L253.1,50.56L253.99,52.94L254.89,51.24L255.78,49.19L256.67,50.9L257.56,52.94L258.45,52.26L259.34,50.56L260.23,51.92L262.01,48.85L262.91,51.58L264.69,50.22L265.58,49.19L266.47,47.49L267.36,47.49L269.14,48.85L270.04,48.85L271.82,44.08L272.71,43.39L274.49,39.98L275.38,44.08L280.73,78.53L281.62,89.78L282.51,90.47L283.4,110.59L284.3,119.46L285.19,106.5L286.08,94.22L286.97,144.02L287.86,136.85L288.75,100.36L289.64,142.65L290.53,139.58L291.42,142.31L292.32,163.46L293.21,100.36L294.1,127.65L294.99,155.27L295.88,134.13L296.77,118.78L297.66,178.81L298.55,191.77L299.45,162.44L300.34,100.02L301.23,110.59L303.01,149.48L303.9,121.51L305.68,156.3L306.58,154.59L308.36,114.68L309.25,100.7L310.14,102.06L311.03,75.46L311.92,59.08L312.81,58.06L313.7,60.45L314.6,46.12L316.38,31.45L317.27,34.18L319.05,31.11L319.94,34.87L321.73,30.43L322.62,27.7L323.51,29.75L324.4,29.75L326.18,25.66L327.07,27.36L327.96,31.8L328.86,30.77L332.42,38.96L333.31,39.3L334.2,38.96L335.09,39.64L337.77,46.12L338.66,47.15L339.55,47.83L340.44,47.49L344.01,52.94L344.9,51.92L346.68,54.31L347.57,53.97L350.24,50.9L351.14,51.92L352.92,52.6L353.81,50.56L354.7,50.22L355.59,50.9L356.48,49.87L357.37,47.49L360.05,39.3L360.94,41.69L363.61,48.17L364.5,48.51L366.29,44.76L367.18,53.29L368.07,49.87L368.96,67.95L369.85,72.39L370.74,82.28L371.63,83.3L372.52,68.29L373.42,74.09L374.31,71.02L376.09,56.7L376.98,116.05L377.87,163.12L378.76,130.72L379.65,36.57L380.55,47.49L382.33,162.78L383.22,130.03L384.11,177.45L385,176.42L386.78,125.6L387.68,187L389.46,136.85L390.35,144.02L391.24,131.74L392.13,130.37L393.02,124.58L393.91,141.29L394.8,125.94L395.7,132.08L397.48,77.84L398.37,70.68L399.26,39.64L400.15,64.88L401.04,63.18L401.93,46.8L402.83,22.59L403.72,26.34L405.5,68.29L406.39,45.44L407.28,28.73L408.17,26.34L409.96,27.7L410.85,26.68L412.63,30.09L413.52,32.48L417.08,38.62L417.98,38.62L418.87,37.59L419.76,37.94L420.65,38.28L421.54,42.03L423.32,41.69L424.21,44.76L426,49.87L426.89,49.87L429.56,49.87L430.45,51.24L431.34,53.29L432.24,52.26L434.02,52.94L434.91,53.29L436.69,54.31L437.58,52.6L438.47,51.24L439.37,51.58L440.26,50.9L441.15,51.24L442.04,51.58L442.93,48.85L445.6,44.08L446.49,46.8L447.39,46.12L448.28,43.39L449.17,46.12L450.06,66.93L451.84,89.1L452.73,79.89L453.62,76.82L454.52,70.68L455.41,120.82L456.3,98.31L458.08,122.53L458.97,75.12L459.86,82.62L460.75,65.91L462.54,54.65L463.43,116.39L464.32,175.06L465.21,106.84L466.1,116.05L466.99,100.7L468.77,152.55L469.67,115.02L470.56,129.69L471.45,95.24L472.34,161.76L473.23,131.74L474.12,147.09L475.01,196.21L475.9,113.32L476.8,114.34L477.69,108.88L478.58,144.02L479.47,126.62L480.36,136.85L481.25,89.78L482.14,117.41L483.03,64.54L483.93,81.94L484.82,58.4L485.71,67.95L486.6,87.4L487.49,57.72L488.38,35.89L489.27,38.28L491.06,31.8L491.95,32.14L495.51,25.31L496.4,27.02L497.29,28.04L498.18,27.02L502.64,35.89L503.53,36.23L508.88,46.46L509.77,45.78L511.55,47.83L512.44,47.49L513.34,46.8L514.23,47.83L516.01,49.19L516.9,48.51L518.68,49.87L519.57,48.85L520.46,49.19L521.36,48.17L522.25,48.51L523.14,50.22L524.92,47.49L525.81,46.8L526.7,46.8L527.59,47.83L529.38,44.08L530.27,43.73L532.05,50.22L532.94,56.7L536.51,78.19L537.4,84.33L540.96,116.05L541.85,101.04L542.75,97.97L543.64,120.14L545.42,153.23L546.31,157.66L547.2,156.98L548.09,163.12L548.98,136.51L549.87,134.81L551.66,108.2L552.55,130.03L553.44,104.45L554.33,137.54L555.22,118.44L556.11,160.73L557,150.84L557.9,114.34L558.79,86.37L559.68,87.4L560.57,126.62L561.46,97.63L562.35,132.42L563.24,62.15L564.13,82.96L565.03,142.65L565.92,178.81L566.81,155.27L567.7,158.34L568.59,101.38L569.48,137.2L570.37,117.07L572.15,106.5L573.05,106.84L574.83,86.03L575.72,56.01L576.61,66.25L577.5,51.92L579.28,34.52L580.18,34.52L582.85,30.43L583.74,32.82L584.63,33.84L585.52,32.82L586.41,36.57L587.31,35.21L590.87,43.73L591.76,46.12L596.22,52.26L597.11,52.26L598,52.94" style="vector-effect: none; fill: none; stroke: rgb(255, 0, 0); stroke-opacity: 1; stroke-width: 1.5px; opacity: 1;"/></g><g class="points"/><g class="text"/></g></g></g></g><g class="zerolinelayer-above"/><path class="xlines-above crisp" d="M0,0" style="fill: none;"/><path class="ylines-above crisp" d="M0,0" style="fill: none;"/><g class="overlines-above"/><g class="xaxislayer-above"><g class="xtick"><text text-anchor="middle" x="0" y="333" transform="translate(80,0)" style="font-family: 'Open Sans', verdana, arial, sans-serif; font-size: 12px; fill: rgb(42, 63, 95); fill-opacity: 1; white-space: pre;"><tspan class="line" dy="0em" x="0" y="333">Apr 15</tspan><tspan class="line" dy="1.3em" x="0" y="333">2024</tspan></text></g><g class="xtick"><text text-anchor="middle" x="0" y="333" style="font-family: 'Open Sans', verdana, arial, sans-serif; font-size: 12px; fill: rgb(42, 63, 95); fill-opacity: 1; white-space: pre;" transform="translate(165.56,0)">Apr 16</text></g><g class="xtick"><text text-anchor="middle" x="0" y="333" style="font-family: 'Open Sans', verdana, arial, sans-serif; font-size: 12px; fill: rgb(42, 63, 95); fill-opacity: 1; white-space: pre;" transform="translate(251.11,0)">Apr 17</text></g><g class="xtick"><text text-anchor="middle" x="0" y="333" style="font-family: 'Open Sans', verdana, arial, sans-serif; font-size: 12px; fill: rgb(42, 63, 95); fill-opacity: 1; white-space: pre;" transform="translate(336.67,0)">Apr 18</text></g><g class="xtick"><text text-anchor="middle" x="0" y="333" style="font-family: 'Open Sans', verdana, arial, sans-serif; font-size: 12px; fill: rgb(42, 63, 95); fill-opacity: 1; white-space: pre;" transform="translate(422.22,0)">Apr 19</text></g><g class="xtick"><text text-anchor="middle" x="0" y="333" style="font-family: 'Open Sans', verdana, arial, sans-serif; font-size: 12px; fill: rgb(42, 63, 95); fill-opacity: 1; white-space: pre;" transform="translate(507.78,0)">Apr 20</text></g><g class="xtick"><text text-anchor="middle" x="0" y="333" style="font-family: 'Open Sans', verdana, arial, sans-serif; font-size: 12px; fill: rgb(42, 63, 95); fill-opacity: 1; white-space: pre;" transform="translate(593.34,0)">Apr 21</text></g></g><g class="yaxislayer-above"><g class="ytick"><text text-anchor="end" x="79" y="4.199999999999999" transform="translate(0,287.68)" style="font-family: 'Open Sans', verdana, arial, sans-serif; font-size: 12px; fill: rgb(42, 63, 95); fill-opacity: 1; white-space: pre;">−1M</text></g><g class="ytick"><text text-anchor="end" x="79" y="4.199999999999999" style="font-family: 'Open Sans', verdana, arial, sans-serif; font-size: 12px; fill: rgb(42, 63, 95); fill-opacity: 1; white-space: pre;" transform="translate(0,236.51)">−0.5M</text></g><g class="ytick"><text text-anchor="end" x="79" y="4.199999999999999" style="font-family: 'Open Sans', verdana, arial, sans-serif; font-size: 12px; fill: rgb(42, 63, 95); fill-opacity: 1; white-space: pre;" transform="translate(0,185.35)">0</text></g><g class="ytick"><text text-anchor="end" x="79" y="4.199999999999999" style="font-family: 'Open Sans', verdana, arial, sans-serif; font-size: 12px; fill: rgb(42, 63, 95); fill-opacity: 1; white-space: pre;" transform="translate(0,134.18)">0.5M</text></g></g><g class="overaxes-above"/></g></g><g class="polarlayer"/><g class="smithlayer"/><g class="ternarylayer"/><g class="geolayer"/><g class="funnelarealayer"/><g class="pielayer"/><g class="iciclelayer"/><g class="treemaplayer"/><g class="sunburstlayer"/><g class="glimages"/><defs id="topdefs-3c143d"><g class="clips"/><clipPath id="legend3c143d"><rect width="198" height="87" x="0" y="0"/></clipPath></defs><g class="layer-above"><g class="imagelayer"/><g class="shapelayer"/></g><g class="infolayer"><g class="legend" pointer-events="all" transform="translate(689.96,100)"><rect class="bg" shape-rendering="crispEdges" style="stroke: rgb(68, 68, 68); stroke-opacity: 1; fill: rgb(255, 255, 255); fill-opacity: 1; stroke-width: 0px;" width="198" height="87" x="0" y="0"/><g class="scrollbox" transform="" clip-path="url(#legend3c143d)"><g class="groups" transform=""><g class="traces" transform="translate(0,14.5)" style="opacity: 1;"><text class="legendtext" text-anchor="start" x="40" y="4.680000000000001" style="font-family: 'Open Sans', verdana, arial, sans-serif; font-size: 12px; fill: rgb(42, 63, 95); fill-opacity: 1; white-space: pre;">GBLinear 10%-90%</text><g class="layers" style="opacity: 1;"><g class="legendfill"><path class="js-fill" d="M5,-2h30v6h-30z" style="stroke-width: 0; fill: rgb(176, 209, 231); fill-opacity: 0.5;"/></g><g class="legendlines"><path class="js-line" d="M5,-2h30" style="fill: none; stroke: rgb(156, 201, 225); stroke-opacity: 0.8; stroke-width: 1.5px;"/></g><g class="legendsymbols"><g class="legendpoints"/></g></g><rect class="legendtoggle" x="0" y="-9.5" width="192.09375" height="19" style="fill: rgb(0, 0, 0); fill-opacity: 0;"/></g></g><g class="groups" transform="translate(0,10)"><g class="traces" transform="translate(0,33.5)" style="opacity: 1;"><text class="legendtext" text-anchor="start" x="40" y="4.680000000000001" style="font-family: 'Open Sans', verdana, arial, sans-serif; font-size: 12px; fill: rgb(42, 63, 95); fill-opacity: 1; white-space: pre;">GBLinear Forecast (50th)</text><g class="layers" style="opacity: 1;"><g class="legendfill"/><g class="legendlines"><path class="js-line" d="M5,0h30" style="fill: none; stroke: rgb(0, 0, 255); stroke-opacity: 1; stroke-width: 1.5px;"/></g><g class="legendsymbols"><g class="legendpoints"/></g></g><rect class="legendtoggle" x="0" y="-9.5" width="192.09375" height="19" style="fill: rgb(0, 0, 0); fill-opacity: 0;"/></g></g><g class="groups" transform="translate(0,20)"><g class="traces" transform="translate(0,52.5)" style="opacity: 1;"><text class="legendtext" text-anchor="start" x="40" y="4.680000000000001" style="font-family: 'Open Sans', verdana, arial, sans-serif; font-size: 12px; fill: rgb(42, 63, 95); fill-opacity: 1; white-space: pre;">Realized</text><g class="layers" style="opacity: 1;"><g class="legendfill"/><g class="legendlines"><path class="js-line" d="M5,0h30" style="fill: none; stroke: rgb(255, 0, 0); stroke-opacity: 1; stroke-width: 1.5px;"/></g><g class="legendsymbols"><g class="legendpoints"/></g></g><rect class="legendtoggle" x="0" y="-9.5" width="192.09375" height="19" style="fill: rgb(0, 0, 0); fill-opacity: 0;"/></g></g></g><rect class="scrollbar" rx="20" ry="3" width="0" height="0" style="fill: rgb(128, 139, 164); fill-opacity: 1;" x="0" y="0"/></g><g class="g-gtitle"><text class="gtitle" x="45" y="50" text-anchor="start" dy="0em" style="opacity: 1; font-family: 'Open Sans', verdana, arial, sans-serif; font-size: 17px; fill: rgb(42, 63, 95); fill-opacity: 1; white-space: pre;">7-Day Forecast with Confidence Bands (GBLinear, 36h horizon)</text></g><g class="g-xtitle"><text class="xtitle" x="379" y="375.899609375" text-anchor="middle" style="opacity: 1; font-family: 'Open Sans', verdana, arial, sans-serif; font-size: 14px; fill: rgb(42, 63, 95); fill-opacity: 1; white-space: pre;">Time</text></g><g class="g-ytitle"><text class="ytitle" transform="rotate(-90,20.0375,210)" x="20.0375" y="210" text-anchor="middle" style="opacity: 1; font-family: 'Open Sans', verdana, arial, sans-serif; font-size: 14px; fill: rgb(42, 63, 95); fill-opacity: 1; white-space: pre;">Load (MW)</text></g></g></svg>