<svg class="main-svg" xmlns="http://www.w3.org/2000/svg" xmlns:xlink="http://www.w3.org/1999/xlink" width="900" height="500" style="" viewBox="0 0 900 500"><rect x="0" y="0" width="900" height="500" style="fill: rgb(255, 255, 255); fill-opacity: 1;"/><defs id="defs-8ec271"><g class="clips"><clipPath id="clip8ec271xyplot" class="plotclip"><rect width="740" height="147.2"/></clipPath><clipPath id="clip8ec271x2y2plot" class="plotclip"><rect width="740" height="147.20000000000002"/></clipPath><clipPath class="axesclip" id="clip8ec271x"><rect x="80" y="0" width="740" height="500"/></clipPath><clipPath class="axesclip" id="clip8ec271y"><rect x="0" y="100" width="900" height="147.2"/></clipPath><clipPath class="axesclip" id="clip8ec271xy"><rect x="80" y="100" width="740" height="147.2"/></clipPath><clipPath class="axesclip" id="clip8ec271y2"><rect x="0" y="272.8" width="900" height="147.20000000000002"/></clipPath><clipPath class="axesclip" id="clip8ec271xy2"><rect x="80" y="272.8" width="740" height="147.20000000000002"/></clipPath><clipPath class="axesclip" id="clip8ec271x2"><rect x="80" y="0" width="740" height="500"/></clipPath><clipPath class="axesclip" id="clip8ec271x2y"><rect x="80" y="100" width="740" height="147.2"/></clipPath><clipPath class="axesclip" id="clip8ec271x2y2"><rect x="80" y="272.8" width="740" height="147.20000000000002"/></clipPath></g><g class="gradients"/><g class="patterns"/></defs><g class="bglayer"><rect class="bg" x="80" y="100" width="740" height="147.2" style="fill: rgb(229, 236, 246); fill-opacity: 1; stroke-width: 0;"/><rect class="bg" x="80" y="272.8" width="740" height="147.20000000000002" style="fill: rgb(229, 236, 246); fill-opacity: 1; stroke-width: 0;"/></g><g class="layer-below"><g class="imagelayer"/><g class="shapelayer"/></g><g class="cartesianlayer"><g class="subplot xy"><g class="layer-subplot"><g class="shapelayer"/><g class="imagelayer"/></g><g class="minor-gridlayer"><g class="x"/><g class="y"/></g><g class="gridlayer"><g class="x"><path class="xgrid crisp" transform="translate(154.15,0)" d="M0,100v147.2" style="stroke: rgb(255, 255, 255); stroke-opacity: 1; stroke-width: 1px;"/><path class="xgrid crisp" transform="translate(228.31,0)" d="M0,100v147.2" style="stroke: rgb(255, 255, 255); stroke-opacity: 1; stroke-width: 1px;"/><path class="xgrid crisp" transform="translate(302.46000000000004,0)" d="M0,100v147.2" style="stroke: rgb(255, 255, 255); stroke-opacity: 1; stroke-width: 1px;"/><path class="xgrid crisp" transform="translate(376.62,0)" d="M0,100v147.2" style="stroke: rgb(255, 255, 255); stroke-opacity: 1; stroke-width: 1px;"/><path class="xgrid crisp" transform="translate(450.77,0)" d="M0,100v147.2" style="stroke: rgb(255, 255, 255); stroke-opacity: 1; stroke-width: 1px;"/><path class="xgrid crisp" transform="translate(524.9300000000001,0)" d="M0,100v147.2" style="stroke: rgb(255, 255, 255); stroke-opacity: 1; stroke-width: 1px;"/><path class="xgrid crisp" transform="translate(599.08,0)" d="M0,100v147.2" style="stroke: rgb(255, 255, 255); stroke-opacity: 1; stroke-width: 1px;"/><path class="xgrid crisp" transform="translate(673.24,0)" d="M0,100v147.2" style="stroke: rgb(255, 255, 255); stroke-opacity: 1; stroke-width: 1px;"/><path class="xgrid crisp" transform="translate(747.39,0)" d="M0,100v147.2" style="stroke: rgb(255, 255, 255); stroke-opacity: 1; stroke-width: 1px;"/></g><g class="y"><path class="ygrid crisp" transform="translate(0,245.16)" d="M80,0h740" style="stroke: rgb(255, 255, 255); stroke-opacity: 1; stroke-width: 1px;"/><path class="ygrid crisp" transform="translate(0,177)" d="M80,0h740" style="stroke: rgb(255, 255, 255); stroke-opacity: 1; stroke-width: 1px;"/></g></g><g class="zerolinelayer"><path class="yzl zl crisp" transform="translate(0,108.83)" d="M80,0h740" style="stroke: rgb(255, 255, 255); stroke-opacity: 1; stroke-width: 2px;"/></g><g class="layer-between"><g class="shapelayer"/><g class="imagelayer"/></g><path class="xlines-below"/><path class="ylines-below"/><g class="overlines-below"/><g class="xaxislayer-below"/><g class="yaxislayer-below"/><g class="overaxes-below"/><g class="overplot"><g class="xy" transform="translate(80,100)" clip-path="url(#clip8ec271xyplot)"><g class="scatterlayer mlayer"><g class="trace scatter trace760f3b" style="stroke-miterlimit: 2; opacity: 1;"><g class="fills"/><g class="errorbars"/><g class="lines"><path class="js-line" d="M0,8.83L27.81,8.83L29.35,9.85L32.44,17.03L33.99,22.65L38.62,44.78L40.17,53.38L47.89,92.65L49.44,99.49L54.07,117.76L55.62,122.99L60.25,135.25L61.8,137.01L63.34,11.9L64.89,7.36L66.43,7.36L67.97,17.86L69.52,9.61L71.06,8.83L74.15,17.42L75.7,9.7L77.24,8.83L78.79,10.39L80.33,14.49L81.88,126.7L83.42,138.18L84.97,133.73L86.51,58.41L88.06,39.55L89.6,47.47L91.15,35.06L92.69,51.57L94.24,45.41L95.78,35.25L97.33,73.55L100.42,18.84L101.96,18.99L103.51,22.06L105.05,28.17L106.6,24.9L108.14,27.24L111.23,19.67L112.78,11.85L114.32,8.83L115.87,8.83L174.57,8.83L176.12,13.12L179.21,20.06L180.75,18.5L182.3,24.12L183.84,38.82L186.93,23.04L188.48,33.74L190.02,57.97L191.57,41.99L194.66,78L196.2,73.55L197.75,58.55L199.29,68.08L200.84,72.33L202.38,80.39L203.92,61.78L205.47,54.45L207.01,41.85L208.56,47.12L210.1,54.84L211.65,48.54L213.19,39.45L214.74,35.3L216.28,39.01L217.83,35.84L219.37,33.64L220.92,39.01L222.46,47.12L224.01,39.84L225.55,43.66L227.1,51.47L228.64,46.59L230.19,53.43L231.73,50.64L233.28,42.04L236.37,19.62L237.91,15.37L239.46,15.32L241,27.63L244.09,29.88L245.64,28.51L247.18,19.57L248.73,17.57L250.27,19.08L251.82,15.86L253.36,15.86L254.91,13.47L258,12.1L259.54,11.27L262.63,10.29L264.18,10.29L281.17,10.29L282.71,9.41L285.8,8.83L287.35,8.83L329.06,8.83L330.61,11.32L333.7,18.25L335.24,27.1L338.33,30.61L339.87,39.16L341.42,26.9L342.96,31.05L344.51,26.36L346.05,28.61L347.6,30.03L349.14,35.06L350.69,35.4L352.23,48.34L353.78,42.34L355.32,19.57L356.87,12.2L358.41,10.49L359.96,15.91L361.5,8.83L363.05,10.05L364.59,8.83L367.68,20.74L369.23,8.83L370.77,13.56L372.32,9.9L373.86,24.21L375.41,8.83L376.95,100.37L378.5,28.02L380.04,19.52L381.59,102.57L383.13,129.19L384.68,95.92L387.77,74.43L389.31,91.77L390.86,95.88L392.4,66.57L393.95,54.01L395.49,29L397.04,21.53L398.58,25.68L400.13,25.29L401.67,29.15L403.22,30.76L404.76,29.29L409.39,17.13L410.94,16.06L415.57,10.24L417.12,10.29L475.82,10.39L477.37,12.29L478.91,13.12L480.46,17.86L483.55,25.09L485.09,18.64L488.18,25.53L489.73,35.64L491.27,41.12L492.82,43.61L494.36,45.61L495.91,50.05L497.45,65.2L499,88.06L500.54,78L502.09,52.2L503.63,44.44L505.18,43.17L508.27,86.11L509.81,127.24L511.36,119.23L512.9,80.54L514.45,103.2L515.99,109.99L517.54,75.16L519.08,94.7L520.63,76.29L522.17,70.77L523.72,70.42L525.26,132.37L526.81,126.6L528.35,106.67L529.9,72.04L531.44,56.06L532.99,87.28L534.53,80.88L536.08,96.02L537.62,48.69L539.16,39.06L540.71,46.73L542.25,40.58L543.8,39.6L546.89,18.35L548.43,13.81L549.98,12.1L551.52,12.34L554.61,11.76L556.16,12.24L559.25,10.29L560.79,10.29L619.5,10.29L621.04,11.07L624.13,16.06L625.68,21.92L628.77,26.51L630.31,30.81L631.86,37.35L633.4,38.18L634.95,45.46L636.49,74.28L638.04,70.96L639.58,77.61L641.13,83.03L642.67,93.19L644.22,90.31L645.76,109.55L648.85,113.22L650.4,108.97L651.94,128.41L653.49,128.85L655.03,131.73L656.58,132.76L658.12,135.59L659.67,135.3L661.21,138.72L662.76,139.06L664.3,139.84L665.85,121.37L667.39,134.17L668.94,136.66L670.48,135.54L672.03,136.18L673.57,139.35L675.11,132.66L676.66,137.3L678.2,108.14L679.75,26.61L681.29,30.61L682.84,34.96L684.38,42.87L685.93,42.73L687.47,66.61L689.02,101.2L690.56,98.37L693.65,78.14L695.2,71.55L696.74,65.49L698.29,67.2L699.83,57.58L701.38,38.77L704.47,25.53L706.01,20.99L707.56,14.54L709.1,12.44L710.65,17.47L712.19,12.68L715.28,10.29L716.83,10.29L740,10.29" style="vector-effect: none; fill: none; stroke: rgb(0, 0, 255); stroke-opacity: 1; stroke-width: 1px; opacity: 1;"/></g><g class="points"/><g class="text"/></g></g></g></g><g class="zerolinelayer-above"/><path class="xlines-above crisp" d="M0,0" style="fill: none;"/><path class="ylines-above crisp" d="M0,0" style="fill: none;"/><g class="overlines-above"/><g class="xaxislayer-above"/><g class="yaxislayer-above"><g class="ytick"><text text-anchor="end" x="79" y="4.199999999999999" transform="translate(0,245.16)" style="font-family: 'Open Sans', verdana, arial, sans-serif; font-size: 12px; fill: rgb(42, 63, 95); fill-opacity: 1; white-space: pre;">−1</text></g><g class="ytick"><text text-anchor="end" x="79" y="4.199999999999999" style="font-family: 'Open Sans', verdana, arial, sans-serif; font-size: 12px; fill: rgb(42, 63, 95); fill-opacity: 1; white-space: pre;" transform="translate(0,177)">−0.5</text></g><g class="ytick"><text text-anchor="end" x="79" y="4.199999999999999" style="font-family: 'Open Sans', verdana, arial, sans-serif; font-size: 12px; fill: rgb(42, 63, 95); fill-opacity: 1; white-space: pre;" transform="translate(0,108.83)">0</text></g></g><g class="overaxes-above"/></g><g class="subplot x2y2"><g class="layer-subplot"><g class="shapelayer"/><g class="imagelayer"/></g><g class="minor-gridlayer"><g class="x2"/><g class="y2"/></g><g class="gridlayer"><g class="x2"><path class="x2grid crisp" transform="translate(154.15,0)" d="M0,272.8v147.20000000000002" style="stroke: rgb(255, 255, 255); stroke-opacity: 1; stroke-width: 1px;"/><path class="x2grid crisp" transform="translate(228.31,0)" d="M0,272.8v147.20000000000002" style="stroke: rgb(255, 255, 255); stroke-opacity: 1; stroke-width: 1px;"/><path class="x2grid crisp" transform="translate(302.46000000000004,0)" d="M0,272.8v147.20000000000002" style="stroke: rgb(255, 255, 255); stroke-opacity: 1; stroke-width: 1px;"/><path class="x2grid crisp" transform="translate(376.62,0)" d="M0,272.8v147.20000000000002" style="stroke: rgb(255, 255, 255); stroke-opacity: 1; stroke-width: 1px;"/><path class="x2grid crisp" transform="translate(450.77,0)" d="M0,272.8v147.20000000000002" style="stroke: rgb(255, 255, 255); stroke-opacity: 1; stroke-width: 1px;"/><path class="x2grid crisp" transform="translate(524.9300000000001,0)" d="M0,272.8v147.20000000000002" style="stroke: rgb(255, 255, 255); stroke-opacity: 1; stroke-width: 1px;"/><path class="x2grid crisp" transform="translate(599.08,0)" d="M0,272.8v147.20000000000002" style="stroke: rgb(255, 255, 255); stroke-opacity: 1; stroke-width: 1px;"/><path class="x2grid crisp" transform="translate(673.24,0)" d="M0,272.8v147.20000000000002" style="stroke: rgb(255, 255, 255); stroke-opacity: 1; stroke-width: 1px;"/><path class="x2grid crisp" transform="translate(747.39,0)" d="M0,272.8v147.20000000000002" style="stroke: rgb(255, 255, 255); stroke-opacity: 1; stroke-width: 1px;"/></g><g class="y2"><path class="y2grid crisp" transform="translate(0,407.81)" d="M80,0h740" style="stroke: rgb(255, 255, 255); stroke-opacity: 1; stroke-width: 1px;"/><path class="y2grid crisp" transform="translate(0,371.18)" d="M80,0h740" style="stroke: rgb(255, 255, 255); stroke-opacity: 1; stroke-width: 1px;"/><path class="y2grid crisp" transform="translate(0,334.56)" d="M80,0h740" style="stroke: rgb(255, 255, 255); stroke-opacity: 1; stroke-width: 1px;"/><path class="y2grid crisp" transform="translate(0,297.93)" d="M80,0h740" style="stroke: rgb(255, 255, 255); stroke-opacity: 1; stroke-width: 1px;"/></g></g><g class="zerolinelayer"/><g class="layer-between"><g class="shapelayer"/><g class="imagelayer"/></g><path class="xlines-below"/><path class="ylines-below"/><g class="overlines-below"/><g class="xaxislayer-below"/><g class="yaxislayer-below"/><g class="overaxes-below"/><g class="overplot"><g class="x2y2" transform="translate(80,272.8)" clip-path="url(#clip8ec271x2y2plot)"><g class="scatterlayer mlayer"><g class="trace scatter trace955d6d" style="stroke-miterlimit: 2; opacity: 1;"><g class="fills"/><g class="errorbars"/><g class="lines"><path class="js-line" d="M0,78.74L1.54,81.24L3.09,80.5L6.18,86.41L7.72,84.03L9.27,87.31L10.81,86.41L13.9,88.88L15.45,87.77L20.08,81.52L21.63,84.57L23.17,86.32L24.72,86.67L32.44,64.18L33.99,61.07L35.53,58.55L37.08,53.19L38.62,55.61L40.17,48.67L41.71,50.41L43.26,53.43L44.8,52.74L46.35,55.69L47.89,54.68L49.44,55.34L50.98,59.78L52.53,67.68L54.07,64.38L55.62,71.56L57.16,73.91L58.71,69.5L60.25,66.36L61.8,67.07L63.34,64.31L64.89,66.98L66.43,72.43L67.97,69.39L71.06,67.7L72.61,70.89L74.15,70.36L75.7,71.81L77.24,71.76L78.79,63.41L80.33,67.96L81.88,61.98L83.42,66.25L84.97,60.32L86.51,50.55L88.06,19.59L89.6,32.56L91.15,37.61L92.69,19.75L94.24,20.04L95.78,30.53L97.33,18.4L98.87,13.32L100.42,11.93L101.96,7.36L103.51,11.11L105.05,10.92L106.6,9.86L108.14,11.44L109.69,10.66L112.78,16.45L114.32,26.4L115.87,30.55L117.41,29.91L118.96,29.42L120.5,31.34L122.05,35.99L123.59,37.7L125.14,40.19L126.68,38.99L129.77,46.99L131.32,56.91L134.41,63.47L135.95,63.98L137.49,60.32L139.04,62.77L140.58,67.65L142.13,68.74L143.67,74.71L145.22,77.1L146.76,77.45L148.31,78.82L152.94,72.54L154.49,77.6L156.03,79.22L157.58,75.14L159.12,80.49L160.67,98.74L162.21,88.3L163.76,101.18L165.3,126.69L166.85,131.86L168.39,137.24L169.94,139.84L171.48,137.94L173.03,137.61L176.12,127.99L177.66,124.53L179.21,117.85L180.75,105.87L182.3,104.69L183.84,104.85L186.93,91.55L188.48,92.88L190.02,77.54L191.57,92.55L193.11,95.02L194.66,94.01L196.2,92.38L197.75,89.2L199.29,93L200.84,94.54L205.47,74.53L207.01,76.1L208.56,82.59L210.1,85.23L211.65,100.27L213.19,105.6L216.28,102.09L217.83,92.01L220.92,112.35L222.46,109.21L224.01,103.7L225.55,93.99L227.1,93.14L228.64,91.25L230.19,78.03L231.73,73.26L233.28,67.92L234.82,68.56L236.37,70.01L237.91,63.21L241,50.38L242.55,44.23L244.09,42.53L245.64,45.66L247.18,46.95L248.73,52.22L250.27,53.62L251.82,53.88L254.91,57.97L256.45,62.83L259.54,63.86L261.09,66.43L262.63,69.29L264.18,74.47L265.72,75.42L267.27,74.21L268.81,73.65L270.35,76.21L273.44,83.15L274.99,86.85L276.53,89.18L278.08,94.32L279.62,97.41L281.17,91.67L282.71,95.64L284.26,92.55L285.8,94.5L287.35,105.6L288.89,109.42L290.44,98.72L293.53,110.3L295.07,113.96L296.62,120.14L298.16,122.27L301.25,112.75L302.8,111.96L304.34,119.05L305.89,121.82L307.43,121.93L308.98,126.2L310.52,126.97L312.07,125.95L313.61,126.19L315.16,130.45L316.7,126.85L318.25,129.57L319.79,129.89L321.34,124.82L324.43,110.74L325.97,108.55L330.61,94.28L332.15,87.76L333.7,83.84L335.24,72.9L336.78,81.19L338.33,81.82L339.87,78.74L341.42,66.89L342.96,70.6L344.51,65.43L346.05,55.78L347.6,54.64L349.14,61.95L350.69,65.45L352.23,63.47L353.78,69.34L355.32,66.89L356.87,76.8L358.41,88.52L359.96,74.42L361.5,46.49L363.05,33.95L364.59,39.41L366.14,54.1L367.68,82.67L369.23,81.1L370.77,75.83L372.32,74.92L373.86,70.55L375.41,68.85L376.95,85.99L378.5,75.92L380.04,84.57L381.59,105.83L383.13,114.37L384.68,109.17L386.22,109.04L387.77,101.75L389.31,96.27L390.86,102.13L392.4,97L393.95,87.35L397.04,91.53L398.58,92.07L400.13,90.24L401.67,90.91L403.22,84.33L404.76,84.04L407.85,71.67L409.39,72.56L410.94,73.36L412.48,77.7L414.03,76.46L415.57,77.7L417.12,82.41L418.66,82.06L420.21,72.73L421.75,46.25L423.3,39.47L424.84,40.6L426.39,48.42L427.93,51.14L432.57,64.26L434.11,64.71L435.66,72.05L437.2,74.23L440.29,79.63L441.84,78.87L443.38,82.27L444.93,80.22L446.47,84.22L448.02,85.1L451.11,93.3L452.65,93L454.2,92.71L455.74,90.69L457.29,89.81L458.83,94L460.38,94.49L461.92,92.55L463.47,92.56L465.01,94.49L466.56,92.8L468.1,89.9L469.65,88.03L471.19,82.4L472.73,77.68L474.28,75.71L480.46,53.36L482,51.24L483.55,48.88L485.09,44.9L488.18,36.81L489.73,37.79L491.27,35.91L492.82,40.26L494.36,40.03L495.91,38.67L499,52.88L500.54,52.58L502.09,52.15L503.63,64.05L505.18,57.52L506.72,44.87L508.27,38.45L509.81,40.37L511.36,27.36L512.9,27.03L514.45,29.42L515.99,40.58L517.54,46.62L519.08,56.81L522.17,70.26L523.72,74.15L526.81,64.04L528.35,69.13L531.44,70.73L532.99,66.78L536.08,60.66L537.62,42.25L539.16,52.72L540.71,44.48L542.25,37.01L543.8,23.62L545.34,15.39L546.89,11.67L549.98,14.27L551.52,19.75L553.07,20.74L554.61,23.51L557.7,25.7L559.25,29.03L560.79,33.19L562.34,34.58L563.88,33.59L565.43,36.65L568.52,36.95L570.06,39.34L571.61,40.28L573.15,42.38L574.7,43.61L576.24,49.87L577.79,51.33L579.33,54.19L583.97,66.17L585.51,66.84L587.06,72.16L588.6,73.75L590.15,74.04L591.69,77.52L593.24,73.92L594.78,80.95L597.87,83.07L599.42,81.72L600.96,81.58L602.51,78.08L604.05,79.25L605.59,82.55L607.14,81.5L608.68,85.25L610.23,90.2L611.77,87.39L613.32,88.46L614.86,88.35L617.95,91.02L619.5,87.64L621.04,87.99L622.59,87.32L624.13,86.39L625.68,80.22L630.31,83.4L631.86,88.9L636.49,94.01L638.04,92.61L639.58,92.3L641.13,94L642.67,93.8L644.22,94.37L645.76,97.28L647.31,96.18L648.85,100.37L650.4,100.68L651.94,102.11L653.49,105.13L655.03,107.86L656.58,107.17L658.12,105.5L659.67,107.29L661.21,107.53L662.76,105.78L664.3,110.5L665.85,105.23L670.48,90.03L672.03,89.81L673.57,80.81L675.11,81.24L676.66,80.86L678.2,82.08L679.75,89.95L681.29,90.5L682.84,90.19L684.38,80.77L685.93,77.97L687.47,83.83L689.02,79.86L690.56,73.56L693.65,74.6L695.2,72.66L696.74,66.24L698.29,65.48L699.83,63.6L701.38,56.57L702.92,52.9L704.47,56.28L706.01,52.98L707.56,52.22L709.1,46.23L710.65,46.62L712.19,43.85L713.74,47.1L715.28,46.44L716.83,46.84L718.37,47.34L719.92,49.37L721.46,51.24L723.01,54.71L726.1,60.16L727.64,61.1L730.73,66.09L732.28,70.17L733.82,70.96L735.37,69.99L740,83.27" style="vector-effect: none; fill: none; stroke: rgb(255, 0, 0); stroke-opacity: 1; stroke-width: 1px; opacity: 1;"/></g><g class="points"/><g class="text"/></g></g></g></g><g class="zerolinelayer-above"/><path class="xlines-above crisp" d="M0,0" style="fill: none;"/><path class="ylines-above crisp" d="M0,0" style="fill: none;"/><g class="overlines-above"/><g class="xaxislayer-above"><g class="x2tick"><text text-anchor="middle" x="0" y="433" transform="translate(80,0)" style="font-family: 'Open Sans', verdana, arial, sans-serif; font-size: 12px; fill: rgb(42, 63, 95); fill-opacity: 1; white-space: pre;"><tspan class="line" dy="0em" x="0" y="433">00:00</tspan><tspan class="line" dy="1.3em" x="0" y="433">May 14, 2024</tspan></text></g><g class="x2tick"><text text-anchor="middle" x="0" y="433" style="font-family: 'Open Sans', verdana, arial, sans-serif; font-size: 12px; fill: rgb(42, 63, 95); fill-opacity: 1; white-space: pre;" transform="translate(154.15,0)">12:00</text></g><g class="x2tick"><text text-anchor="middle" x="0" y="433" style="font-family: 'Open Sans', verdana, arial, sans-serif; font-size: 12px; fill: rgb(42, 63, 95); fill-opacity: 1; white-space: pre;" transform="translate(228.31,0)"><tspan class="line" dy="0em" x="0" y="433">00:00</tspan><tspan class="line" dy="1.3em" x="0" y="433">May 15, 2024</tspan></text></g><g class="x2tick"><text text-anchor="middle" x="0" y="433" style="font-family: 'Open Sans', verdana, arial, sans-serif; font-size: 12px; fill: rgb(42, 63, 95); fill-opacity: 1; white-space: pre;" transform="translate(302.46000000000004,0)">12:00</text></g><g class="x2tick"><text text-anchor="middle" x="0" y="433" style="font-family: 'Open Sans', verdana, arial, sans-serif; font-size: 12px; fill: rgb(42, 63, 95); fill-opacity: 1; white-space: pre;" transform="translate(376.62,0)"><tspan class="line" dy="0em" x="0" y="433">00:00</tspan><tspan class="line" dy="1.3em" x="0" y="433">May 16, 2024</tspan></text></g><g class="x2tick"><text text-anchor="middle" x="0" y="433" style="font-family: 'Open Sans', verdana, arial, sans-serif; font-size: 12px; fill: rgb(42, 63, 95); fill-opacity: 1; white-space: pre;" transform="translate(450.77,0)">12:00</text></g><g class="x2tick"><text text-anchor="middle" x="0" y="433" style="font-family: 'Open Sans', verdana, arial, sans-serif; font-size: 12px; fill: rgb(42, 63, 95); fill-opacity: 1; white-space: pre;" transform="translate(524.9300000000001,0)"><tspan class="line" dy="0em" x="0" y="433">00:00</tspan><tspan class="line" dy="1.3em" x="0" y="433">May 17, 2024</tspan></text></g><g class="x2tick"><text text-anchor="middle" x="0" y="433" style="font-family: 'Open Sans', verdana, arial, sans-serif; font-size: 12px; fill: rgb(42, 63, 95); fill-opacity: 1; white-space: pre;" transform="translate(599.08,0)">12:00</text></g><g class="x2tick"><text text-anchor="middle" x="0" y="433" style="font-family: 'Open Sans', verdana, arial, sans-serif; font-size: 12px; fill: rgb(42, 63, 95); fill-opacity: 1; white-space: pre;" transform="translate(673.24,0)"><tspan class="line" dy="0em" x="0" y="433">00:00</tspan><tspan class="line" dy="1.3em" x="0" y="433">May 18, 2024</tspan></text></g><g class="x2tick"><text text-anchor="middle" x="0" y="433" style="font-family: 'Open Sans', verdana, arial, sans-serif; font-size: 12px; fill: rgb(42, 63, 95); fill-opacity: 1; white-space: pre;" transform="translate(747.39,0)">12:00</text></g></g><g class="yaxislayer-above"><g class="y2tick"><text text-anchor="end" x="79" y="4.199999999999999" transform="translate(0,407.81)" style="font-family: 'Open Sans', verdana, arial, sans-serif; font-size: 12px; fill: rgb(42, 63, 95); fill-opacity: 1; white-space: pre;">10</text></g><g class="y2tick"><text text-anchor="end" x="79" y="4.199999999999999" style="font-family: 'Open Sans', verdana, arial, sans-serif; font-size: 12px; fill: rgb(42, 63, 95); fill-opacity: 1; white-space: pre;" transform="translate(0,371.18)">20</text></g><g class="y2tick"><text text-anchor="end" x="79" y="4.199999999999999" style="font-family: 'Open Sans', verdana, arial, sans-serif; font-size: 12px; fill: rgb(42, 63, 95); fill-opacity: 1; white-space: pre;" transform="translate(0,334.56)">30</text></g><g class="y2tick"><text text-anchor="end" x="79" y="4.199999999999999" style="font-family: 'Open Sans', verdana, arial, sans-serif; font-size: 12px; fill: rgb(42, 63, 95); fill-opacity: 1; white-space: pre;" transform="translate(0,297.93)">40</text></g></g><g class="overaxes-above"/></g></g><g class="polarlayer"/><g class="smithlayer"/><g class="ternarylayer"/><g class="geolayer"/><g class="funnelarealayer"/><g class="pielayer"/><g class="iciclelayer"/><g class="treemaplayer"/><g class="sunburstlayer"/><g class="glimages"/><defs id="topdefs-8ec271"><g class="clips"/></defs><g class="layer-above"><g class="imagelayer"/><g class="shapelayer"/></g><g class="infolayer"><g class="g-gtitle"><text class="gtitle" x="45" y="50" text-anchor="start" dy="0em" style="opacity: 1; font-family: 'Open Sans', verdana, arial, sans-serif; font-size: 17px; fill: rgb(42, 63, 95); fill-opacity: 1; white-space: pre;">Aggregation Level: Low vs High</text></g><g class="g-xtitle"/><g class="g-x2title"><text class="x2title" x="450" y="475.899609375" text-anchor="middle" style="opacity: 1; font-family: 'Open Sans', verdana, arial, sans-serif; font-size: 14px; fill: rgb(42, 63, 95); fill-opacity: 1; white-space: pre;">Time</text></g><g class="g-ytitle"><text class="ytitle" transform="rotate(-90,30.146875,173.6)" x="30.146875" y="173.6" text-anchor="middle" style="opacity: 1; font-family: 'Open Sans', verdana, arial, sans-serif; font-size: 14px; fill: rgb(42, 63, 95); fill-opacity: 1; white-space: pre;">Generation (norm.)</text></g><g class="g-y2title"><text class="y2title" transform="rotate(-90,44.334375,346.40000000000003)" x="44.334375" y="346.40000000000003" text-anchor="middle" style="opacity: 1; font-family: 'Open Sans', verdana, arial, sans-serif; font-size: 14px; fill: rgb(42, 63, 95); fill-opacity: 1; white-space: pre;">Load (MW)</text></g><g class="annotation" data-index="0" style="opacity: 1;"><g class="annotation-text-g" transform="rotate(0,450,88.49999999999999)"><g class="cursor-pointer" transform="translate(215,77)"><rect class="bg" x="0.5" y="0.5" width="469" height="22" style="stroke-width: 1px; stroke: rgb(0, 0, 0); stroke-opacity: 0; fill: rgb(0, 0, 0); fill-opacity: 0;"/><text class="annotation-text" text-anchor="middle" x="234.8203125" y="18" style="font-family: 'Open Sans', verdana, arial, sans-serif; font-size: 16px; fill: rgb(42, 63, 95); fill-opacity: 1; white-space: pre;">Single Solar Park (normalized) - on/off curtailment visible</text></g></g></g><g class="annotation" data-index="1" style="opacity: 1;"><g class="annotation-text-g" transform="rotate(0,450,261.3)"><g class="cursor-pointer" transform="translate(274,250)"><rect class="bg" x="0.5" y="0.5" width="352" height="22" style="stroke-width: 1px; stroke: rgb(0, 0, 0); stroke-opacity: 0; fill: rgb(0, 0, 0); fill-opacity: 0;"/><text class="annotation-text" text-anchor="middle" x="176.5703125" y="18" style="font-family: 'Open Sans', verdana, arial, sans-serif; font-size: 16px; fill: rgb(42, 63, 95); fill-opacity: 1; white-space: pre;">Transformer OS Amsterdam Hemweg (MW)</text></g></g></g></g></svg>