<svg class="main-svg" xmlns="http://www.w3.org/2000/svg" xmlns:xlink="http://www.w3.org/1999/xlink" width="900" height="400" style="" viewBox="0 0 900 400"><rect x="0" y="0" width="900" height="400" style="fill: rgb(255, 255, 255); fill-opacity: 1;"/><defs id="defs-616f45"><g class="clips"><clipPath id="clip616f45xyplot" class="plotclip"><rect width="740" height="220"/></clipPath><clipPath class="axesclip" id="clip616f45x"><rect x="80" y="0" width="740" height="400"/></clipPath><clipPath class="axesclip" id="clip616f45y"><rect x="0" y="100" width="900" height="220"/></clipPath><clipPath class="axesclip" id="clip616f45xy"><rect x="80" y="100" width="740" height="220"/></clipPath></g><g class="gradients"/><g class="patterns"/></defs><g class="bglayer"/><g class="layer-below"><g class="imagelayer"/><g class="shapelayer"/></g><g class="cartesianlayer"><g class="subplot xy"><g class="layer-subplot"><g class="shapelayer"/><g class="imagelayer"/></g><g class="minor-gridlayer"><g class="x"/><g class="y"/></g><g class="gridlayer"><g class="x"><path class="xgrid crisp" transform="translate(172.62,0)" d="M0,100v220" style="stroke: rgb(235, 240, 248); stroke-opacity: 1; stroke-width: 1px;"/><path class="xgrid crisp" transform="translate(265.24,0)" d="M0,100v220" style="stroke: rgb(235, 240, 248); stroke-opacity: 1; stroke-width: 1px;"/><path class="xgrid crisp" transform="translate(357.86,0)" d="M0,100v220" style="stroke: rgb(235, 240, 248); stroke-opacity: 1; stroke-width: 1px;"/><path class="xgrid crisp" transform="translate(450.48,0)" d="M0,100v220" style="stroke: rgb(235, 240, 248); stroke-opacity: 1; stroke-width: 1px;"/><path class="xgrid crisp" transform="translate(543.1,0)" d="M0,100v220" style="stroke: rgb(235, 240, 248); stroke-opacity: 1; stroke-width: 1px;"/><path class="xgrid crisp" transform="translate(635.72,0)" d="M0,100v220" style="stroke: rgb(235, 240, 248); stroke-opacity: 1; stroke-width: 1px;"/><path class="xgrid crisp" transform="translate(728.34,0)" d="M0,100v220" style="stroke: rgb(235, 240, 248); stroke-opacity: 1; stroke-width: 1px;"/></g><g class="y"><path class="ygrid crisp" transform="translate(0,169.07999999999998)" d="M80,0h740" style="stroke: rgb(235, 240, 248); stroke-opacity: 1; stroke-width: 1px;"/></g></g><g class="zerolinelayer"><path class="yzl zl crisp" transform="translate(0,248.28)" d="M80,0h740" style="stroke: rgb(235, 240, 248); stroke-opacity: 1; stroke-width: 2px;"/></g><g class="layer-between"><g class="shapelayer"/><g class="imagelayer"/></g><path class="xlines-below"/><path class="ylines-below"/><g class="overlines-below"/><g class="xaxislayer-below"/><g class="yaxislayer-below"/><g class="overaxes-below"/><g class="overplot"><g class="xy" transform="translate(80,100)" clip-path="url(#clip616f45xyplot)"><g class="scatterlayer mlayer"><g class="trace scatter trace1108da" style="stroke-miterlimit: 2; opacity: 1;"><g class="fills"/><g class="errorbars"/><g class="lines"><path class="js-line" d="M0,93.9L0.96,93.37L1.93,95.48L3.86,98.65L4.82,99.18L5.79,99.7L6.75,102.87L8.68,98.12L9.65,101.82L10.61,102.34L11.58,100.23L12.54,102.34L13.51,101.82L14.47,99.18L15.44,102.34L16.4,102.34L17.37,100.23L18.33,99.7L19.3,96.01L21.23,90.73L22.19,82.81L24.12,74.89L25.08,70.14L27.01,60.63L27.98,57.99L28.94,53.24L29.91,54.82L31.84,62.22L32.8,60.63L34.73,109.74L35.7,98.65L36.66,98.65L37.63,97.06L40.52,111.32L41.49,113.43L43.42,140.89L44.38,126.63L45.35,158.84L46.31,150.39L47.28,136.66L48.24,162.01L49.2,127.16L50.17,120.82L52.1,163.06L53.06,127.69L54.03,123.99L54.99,101.82L55.96,110.79L56.92,100.23L58.85,88.62L59.82,69.08L61.75,51.66L62.71,35.29L63.68,42.15L64.64,31.06L66.57,16.81L67.54,18.39L68.5,18.92L69.47,23.67L71.4,17.86L72.36,21.56L73.32,23.14L74.29,28.42L75.25,36.34L76.22,37.93L77.18,41.1L78.15,47.96L79.11,47.43L80.08,49.54L81.04,51.66L82.01,57.99L82.97,61.16L83.94,67.5L85.87,73.3L86.83,74.89L87.8,77.53L88.76,77.53L89.73,85.98L90.69,87.56L91.66,87.03L92.62,88.62L93.59,86.5L94.55,88.09L95.51,89.67L96.48,93.9L97.44,94.95L98.41,92.31L100.34,98.65L101.3,97.59L102.27,100.76L103.23,97.59L104.2,97.59L105.16,92.84L107.09,96.01L108.06,95.48L109.02,94.95L109.99,92.84L110.95,93.37L111.92,88.62L113.85,83.34L114.81,74.36L120.6,49.54L121.56,47.96L123.49,59.05L124.46,68.55L128.32,100.23L129.28,113.43L130.25,117.13L131.21,112.9L133.14,143.53L134.11,134.02L135.07,143L136.04,163.06L137,193.69L137.97,157.78L138.93,209L139.9,137.72L140.86,110.26L141.83,184.71L144.72,92.84L145.68,113.43L146.65,108.68L147.61,99.7L149.54,81.22L150.51,78.06L152.44,64.33L153.4,55.88L154.37,56.41L155.33,47.96L159.19,11L160.16,15.22L161.12,18.92L162.09,26.31L163.05,25.26L164.02,27.9L165.95,31.59L166.91,34.23L168.84,40.57L169.8,40.04L172.7,55.88L173.66,61.16L175.59,58.52L176.56,64.86L177.52,67.5L178.49,66.97L179.45,69.08L180.42,74.36L181.38,73.83L182.35,77.53L184.28,82.81L185.24,84.92L188.14,91.26L189.1,93.37L190.07,97.59L191.03,98.12L191.99,96.01L192.96,97.06L193.92,99.18L194.89,99.18L195.85,97.59L196.82,98.65L197.78,97.06L198.75,98.65L199.71,99.7L200.68,97.06L201.64,96.54L202.61,98.12L204.54,97.59L205.5,93.37L209.36,77.53L210.33,68.55L212.26,65.38L213.22,65.91L216.11,56.41L217.08,56.94L218.04,61.16L219.01,61.16L219.97,60.63L220.94,67.5L221.9,80.7L222.87,75.94L223.83,82.81L224.8,75.42L226.73,79.11L227.69,74.36L229.62,87.56L230.59,88.09L231.55,95.48L232.52,86.5L234.45,89.14L235.41,74.89L236.38,72.25L237.34,83.86L238.31,88.09L239.27,79.11L242.16,68.02L243.13,70.14L246.02,54.82L246.99,50.07L249.88,22.09L250.85,22.09L251.81,25.78L252.78,22.62L253.74,18.92L254.71,18.39L256.64,21.56L257.6,25.78L259.53,32.12L260.5,33.18L266.28,63.8L267.25,65.91L268.21,66.97L269.18,70.66L270.14,75.42L271.11,73.3L273.04,82.28L274,82.81L276.9,93.37L277.86,91.26L280.76,100.23L281.72,98.12L282.69,99.7L283.65,103.4L284.62,102.87L285.58,104.46L286.54,107.1L287.51,106.04L288.47,105.51L289.44,108.68L290.4,107.62L291.37,103.4L293.3,107.1L294.26,107.1L296.19,103.93L297.16,102.87L300.05,88.62L301.02,83.34L304.88,65.91L305.84,63.8L306.81,58.52L307.77,59.05L308.74,56.94L309.7,59.05L312.59,70.66L313.56,72.25L315.49,73.83L316.45,86.5L318.38,92.84L319.35,92.84L320.31,98.65L321.28,87.56L322.24,83.86L323.21,76.47L326.1,87.56L327.07,82.81L328.03,81.75L329,83.34L329.96,93.9L330.93,79.11L331.89,79.64L332.86,84.39L333.82,96.01L334.78,84.92L336.71,81.75L337.68,71.72L338.64,69.08L339.61,62.22L342.5,23.14L343.47,23.67L344.43,19.45L345.4,25.26L346.36,25.26L347.33,28.42L348.29,28.42L349.26,31.06L350.22,31.59L351.19,37.93L356.98,61.69L357.94,63.27L358.9,63.8L359.87,66.44L360.83,66.97L361.8,68.55L362.76,68.02L363.73,74.89L368.55,93.9L369.52,93.9L371.45,94.95L372.41,98.65L373.38,101.29L374.34,101.29L375.31,99.7L376.27,102.34L377.24,103.4L378.2,102.87L379.17,102.34L380.13,103.4L381.1,103.4L382.06,101.29L383.02,100.23L383.99,102.34L384.95,102.34L385.92,103.93L386.88,101.82L387.85,103.93L389.78,99.7L390.74,96.54L395.57,77L396.53,69.08L398.46,63.8L399.43,63.27L400.39,62.74L401.36,65.38L402.32,68.02L403.29,75.42L404.25,82.28L405.22,98.12L408.11,129.27L409.07,119.77L410.04,106.57L411,77.53L413.9,58.52L414.86,60.63L416.79,81.75L417.76,77L419.69,73.83L420.65,96.01L421.62,91.26L422.58,81.22L423.55,84.39L424.51,77.53L425.48,82.28L426.44,82.81L427.41,79.64L428.37,86.5L430.3,70.14L431.26,66.97L433.19,46.9L434.16,36.87L436.09,20.5L437.05,23.67L438.98,32.65L439.95,34.76L441.88,35.82L442.84,32.12L443.81,33.18L444.77,42.68L445.74,48.49L446.7,47.96L447.67,49.02L448.63,52.71L449.6,53.24L450.56,60.1L451.53,60.63L452.49,65.38L453.46,68.55L454.42,68.55L455.38,69.08L456.35,73.83L458.28,79.64L459.24,77.53L460.21,79.64L461.17,84.92L462.14,83.86L463.1,85.45L465.03,90.2L466,92.84L466.96,93.9L467.93,96.54L468.89,97.06L469.86,101.29L474.68,103.93L475.65,99.7L476.61,101.82L477.57,101.29L480.47,103.4L481.43,100.76L482.4,100.76L483.36,95.48L484.33,93.9L485.29,90.2L486.26,91.78L487.22,89.14L488.19,88.09L489.15,83.86L490.12,82.28L491.08,77.53L492.05,73.3L493.01,64.86L493.98,65.91L494.94,70.14L495.91,64.86L496.87,67.5L497.84,94.95L498.8,86.5L500.73,107.1L501.69,99.7L502.66,112.38L503.62,135.08L505.55,141.94L506.52,137.19L507.48,151.45L508.45,129.8L509.41,113.43L510.38,110.26L511.34,119.24L512.31,101.29L513.27,100.23L514.24,105.51L517.13,59.05L518.1,89.67L520.03,61.16L520.99,64.86L521.96,66.44L522.92,65.38L523.89,60.63L524.85,62.22L525.81,59.05L526.78,50.07L528.71,34.76L529.67,29.48L536.43,47.96L537.39,55.35L538.36,54.3L539.32,55.88L540.29,57.99L541.25,62.22L542.22,63.27L543.18,61.69L545.11,73.3L546.08,72.78L547.04,73.3L548.01,77L548.97,78.06L549.93,80.7L552.83,87.56L553.79,91.26L554.76,91.78L555.72,93.37L556.69,93.37L557.65,98.65L560.55,103.4L561.51,101.82L563.44,100.76L564.41,101.29L565.37,101.82L566.34,103.93L567.3,102.87L568.27,104.46L569.23,103.4L570.2,100.76L571.16,103.93L572.13,102.34L574.05,103.93L575.02,102.87L575.98,101.82L576.95,96.54L578.88,90.2L579.84,88.62L580.81,88.09L581.77,85.98L582.74,83.34L583.7,77.53L586.6,65.38L587.56,65.38L588.53,63.8L589.49,58.52L590.46,59.05L591.42,66.44L592.39,70.66L593.35,63.8L594.32,58.52L595.28,61.16L596.25,65.38L597.21,60.63L598.17,59.58L599.14,56.41L601.07,59.58L602.03,54.82L603,52.71L603.96,55.88L604.93,55.35L605.89,51.13L607.82,52.71L608.79,50.07L609.75,52.18L610.72,52.18L612.65,65.38L613.61,65.91L615.54,59.05L616.51,57.46L617.47,57.46L618.44,54.3L621.33,35.29L622.29,30.01L625.19,34.76L626.15,38.98L629.05,42.15L630.01,45.32L630.98,44.79L631.94,45.85L632.91,48.49L633.87,54.82L635.8,53.77L636.77,62.74L637.73,66.44L638.7,66.97L639.66,72.25L640.63,72.25L641.59,73.3L642.56,76.47L645.45,88.09L646.41,89.14L651.24,94.95L652.2,94.95L653.17,94.42L654.13,95.48L656.06,99.7L657.03,97.59L658.96,102.34L659.92,101.29L660.89,100.76L661.85,97.59L662.82,98.12L663.78,97.59L665.71,100.76L666.68,97.59L667.64,94.42L668.6,85.98L669.57,84.39L670.53,79.11L671.5,71.19L672.46,70.66L673.43,69.08L674.39,65.91L676.32,59.05L677.29,59.05L678.25,61.16L679.22,60.63L680.18,66.97L681.15,82.28L682.11,87.56L683.08,87.56L684.04,78.06L685.01,80.17L685.97,80.7L686.94,83.34L687.9,88.62L688.87,83.86L689.83,77.53L690.8,82.28L691.76,85.98L692.72,84.92L693.69,83.34L694.65,83.86L695.62,72.78L696.58,77.53L697.55,81.22L698.51,71.19L699.48,71.72L700.44,63.8L702.37,78.58L703.34,63.8L704.3,60.63L705.27,61.16L706.23,63.27L707.2,57.46L709.13,51.13L710.09,40.04L711.06,36.87L712.02,28.42L712.99,16.81L713.95,16.28L715.88,30.01L716.84,27.37L718.77,31.06L719.74,35.82L720.7,37.4L721.67,36.34L723.6,43.74L724.56,44.79L726.49,54.82L727.46,56.41L729.39,62.22L730.35,62.22L732.28,71.72L733.25,71.19L736.14,78.58L737.11,81.75L738.07,86.5L739.04,87.03L740,90.2" style="vector-effect: none; fill: none; stroke: rgb(255, 0, 0); stroke-opacity: 1; stroke-width: 1.5px; opacity: 1;"/></g><g class="points"/><g class="text"/></g></g></g></g><g class="zerolinelayer-above"/><path class="xlines-above crisp" d="M0,0" style="fill: none;"/><path class="ylines-above crisp" d="M0,0" style="fill: none;"/><g class="overlines-above"/><g class="xaxislayer-above"><g class="xtick"><text text-anchor="middle" x="0" y="333" transform="translate(80,0)" style="font-family: 'Open Sans', verdana, arial, sans-serif; font-size: 12px; fill: rgb(42, 63, 95); fill-opacity: 1; white-space: pre;"><tspan class="line" dy="0em" x="0" y="333">Feb 12</tspan><tspan class="line" dy="1.3em" x="0" y="333">2024</tspan></text></g><g class="xtick"><text text-anchor="middle" x="0" y="333" style="font-family: 'Open Sans', verdana, arial, sans-serif; font-size: 12px; fill: rgb(42, 63, 95); fill-opacity: 1; white-space: pre;" transform="translate(172.62,0)">Feb 13</text></g><g class="xtick"><text text-anchor="middle" x="0" y="333" style="font-family: 'Open Sans', verdana, arial, sans-serif; font-size: 12px; fill: rgb(42, 63, 95); fill-opacity: 1; white-space: pre;" transform="translate(265.24,0)">Feb 14</text></g><g class="xtick"><text text-anchor="middle" x="0" y="333" style="font-family: 'Open Sans', verdana, arial, sans-serif; font-size: 12px; fill: rgb(42, 63, 95); fill-opacity: 1; white-space: pre;" transform="translate(357.86,0)">Feb 15</text></g><g class="xtick"><text text-anchor="middle" x="0" y="333" style="font-family: 'Open Sans', verdana, arial, sans-serif; font-size: 12px; fill: rgb(42, 63, 95); fill-opacity: 1; white-space: pre;" transform="translate(450.48,0)">Feb 16</text></g><g class="xtick"><text text-anchor="middle" x="0" y="333" style="font-family: 'Open Sans', verdana, arial, sans-serif; font-size: 12px; fill: rgb(42, 63, 95); fill-opacity: 1; white-space: pre;" transform="translate(543.1,0)">Feb 17</text></g><g class="xtick"><text text-anchor="middle" x="0" y="333" style="font-family: 'Open Sans', verdana, arial, sans-serif; font-size: 12px; fill: rgb(42, 63, 95); fill-opacity: 1; white-space: pre;" transform="translate(635.72,0)">Feb 18</text></g><g class="xtick"><text text-anchor="middle" x="0" y="333" style="font-family: 'Open Sans', verdana, arial, sans-serif; font-size: 12px; fill: rgb(42, 63, 95); fill-opacity: 1; white-space: pre;" transform="translate(728.34,0)">Feb 19</text></g></g><g class="yaxislayer-above"><g class="ytick"><text text-anchor="end" x="79" y="4.199999999999999" transform="translate(0,248.28)" style="font-family: 'Open Sans', verdana, arial, sans-serif; font-size: 12px; fill: rgb(42, 63, 95); fill-opacity: 1; white-space: pre;">0</text></g><g class="ytick"><text text-anchor="end" x="79" y="4.199999999999999" style="font-family: 'Open Sans', verdana, arial, sans-serif; font-size: 12px; fill: rgb(42, 63, 95); fill-opacity: 1; white-space: pre;" transform="translate(0,169.07999999999998)">500k</text></g></g><g class="overaxes-above"/></g></g><g class="polarlayer"/><g class="smithlayer"/><g class="ternarylayer"/><g class="geolayer"/><g class="funnelarealayer"/><g class="pielayer"/><g class="iciclelayer"/><g class="treemaplayer"/><g class="sunburstlayer"/><g class="glimages"/><defs id="topdefs-616f45"><g class="clips"/></defs><g class="layer-above"><g class="imagelayer"/><g class="shapelayer"/></g><g class="infolayer"><g class="g-gtitle"><text class="gtitle" x="45" y="50" text-anchor="start" dy="0em" style="opacity: 1; font-family: 'Open Sans', verdana, arial, sans-serif; font-size: 17px; fill: rgb(42, 63, 95); fill-opacity: 1; white-space: pre;">Substation Load Profile: One Week at 15-Minute Resolution</text></g><g class="g-xtitle"><text class="xtitle" x="450" y="375.899609375" text-anchor="middle" style="opacity: 1; font-family: 'Open Sans', verdana, arial, sans-serif; font-size: 14px; fill: rgb(42, 63, 95); fill-opacity: 1; white-space: pre;">Time</text></g><g class="g-ytitle"><text class="ytitle" transform="rotate(-90,29.6,210)" x="29.6" y="210" text-anchor="middle" style="opacity: 1; font-family: 'Open Sans', verdana, arial, sans-serif; font-size: 14px; fill: rgb(42, 63, 95); fill-opacity: 1; white-space: pre;">Load (MW)</text></g></g></svg>